SplineFontDB: 3.0
FontName: Actor-Regular
FullName: Actor
FamilyName: Actor
Weight: Book
Copyright: Copyright (c) 2011 by Thomas Junold <der@thomasjunold.de>, with Reserved Font Name "Actor".
Version: 1.0
ItalicAngle: 0
UnderlinePosition: -250
UnderlineWidth: 50
Ascent: 772
Descent: 228
sfntRevision: 0x00010000
LayerCount: 2
Layer: 0 1 "Back"  1
Layer: 1 1 "Fore"  0
XUID: [1021 288 713564382 1812631]
FSType: 0
OS2Version: 2
OS2_WeightWidthSlopeOnly: 0
OS2_UseTypoMetrics: 1
CreationTime: 1310047674
ModificationTime: 1310759914
PfmFamily: 17
TTFWeight: 400
TTFWidth: 5
LineGap: 0
VLineGap: 0
Panose: 2 11 5 3 5 0 0 2 0 4
OS2TypoAscent: 0
OS2TypoAOffset: 1
OS2TypoDescent: 0
OS2TypoDOffset: 1
OS2TypoLinegap: 0
OS2WinAscent: -169
OS2WinAOffset: 1
OS2WinDescent: -34
OS2WinDOffset: 1
HheadAscent: -169
HheadAOffset: 1
HheadDescent: 34
HheadDOffset: 1
OS2SubXSize: 700
OS2SubYSize: 650
OS2SubXOff: 0
OS2SubYOff: 140
OS2SupXSize: 700
OS2SupYSize: 650
OS2SupXOff: 0
OS2SupYOff: 477
OS2StrikeYSize: 50
OS2StrikeYPos: 250
OS2FamilyClass: 2050
OS2Vendor: 'PfEd'
OS2CodePages: 20000000.00000000
OS2UnicodeRanges: 800000af.4000004a.00000000.00000000
Lookup: 258 0 0 "'kern' Horizontal Kerning in Latin lookup 0"  {"'kern' Horizontal Kerning in Latin lookup 0 subtable"  } ['kern' ('DFLT' <'dflt' > 'latn' <'dflt' > ) ]
DEI: 91125
TtTable: prep
PUSHW_1
 511
SCANCTRL
PUSHB_1
 4
SCANTYPE
EndTTInstrs
ShortTable: maxp 16
  1
  0
  237
  76
  7
  44
  4
  2
  0
  1
  1
  0
  64
  0
  2
  1
EndShort
LangName: 1033 "" "" "" "FontForge 2.0 : Actor : 15-7-2011" "" "" "" "actor is a trademark of Thomas Junold." "Thomas Junold" "Thomas Junold" "A new humanist sans-serif font with old style numbers." "" "www.buerofueraufmerksamkeit.de" "This Font Software is licensed under the SIL Open Font License, Version 1.1. This license is available with a FAQ at: http://scripts.sil.org/OFL" "http://scripts.sil.org/OFL" "" "Actor" "Regular" 
GaspTable: 1 65535 15
Encoding: UnicodeBmp
UnicodeInterp: none

StartChar: exclam
Encoding: 33 33 4
Width: 341
Flags: W
LayerCount: 2
Fore
SplineSet
149 182 m 1,0,-1
 129 728 l 1,1,-1
 231 739 l 1,2,-1
 214 182 l 1,3,-1
 149 182 l 1,0,-1
137 17 m 128,-1,5
 120 34 120 34 120 58.5 c 128,-1,6
 120 83 120 83 137 100.5 c 128,-1,7
 154 118 154 118 179 118 c 128,-1,8
 204 118 204 118 222.5 100.5 c 128,-1,9
 241 83 241 83 241 58.5 c 128,-1,10
 241 34 241 34 223 17 c 128,-1,11
 205 0 205 0 179.5 0 c 128,-1,4
 154 0 154 0 137 17 c 128,-1,5
EndSplineSet
EndChar

StartChar: quotedbl
Encoding: 34 34 5
Width: 430
Flags: W
LayerCount: 2
Fore
SplineSet
245 513 m 1,0,-1
 245 758 l 1,1,-1
 325 758 l 1,2,-1
 325 513 l 1,3,-1
 245 513 l 1,0,-1
105 513 m 1,4,-1
 105 758 l 1,5,-1
 185 758 l 1,6,-1
 185 513 l 1,7,-1
 105 513 l 1,4,-1
EndSplineSet
EndChar

StartChar: numbersign
Encoding: 35 35 6
Width: 666
Flags: W
LayerCount: 2
Fore
SplineSet
117 109 m 1,0,-1
 158 229 l 1,1,-1
 100 229 l 1,2,-1
 100 299 l 1,3,-1
 182 299 l 1,4,-1
 207 373 l 1,5,-1
 117 373 l 1,6,-1
 117 443 l 1,7,-1
 231 443 l 1,8,-1
 276 572 l 1,9,-1
 346 549 l 1,10,-1
 309 443 l 1,11,-1
 430 443 l 1,12,-1
 476 577 l 1,13,-1
 546 554 l 1,14,-1
 507 443 l 1,15,-1
 566 443 l 1,16,-1
 566 373 l 1,17,-1
 483 373 l 1,18,-1
 458 299 l 1,19,-1
 527 299 l 1,20,-1
 527 229 l 1,21,-1
 434 229 l 1,22,-1
 385 87 l 1,23,-1
 317 114 l 1,24,-1
 356 229 l 1,25,-1
 235 229 l 1,26,-1
 185 82 l 1,27,-1
 117 109 l 1,0,-1
259 299 m 1,28,-1
 380 299 l 1,29,-1
 406 373 l 1,30,-1
 285 373 l 1,31,-1
 259 299 l 1,28,-1
EndSplineSet
EndChar

StartChar: dollar
Encoding: 36 36 7
Width: 565
Flags: W
LayerCount: 2
Fore
SplineSet
244 -101 m 1,0,-1
 244 -13 l 1,1,-1
 241 -13 l 2,2,3
 194 -13 194 -13 149 -5 c 128,-1,4
 104 3 104 3 82 11 c 2,5,-1
 60 19 l 1,6,-1
 80 100 l 1,7,8
 157 67 157 67 241 67 c 0,9,10
 420 67 420 67 420 161 c 0,11,12
 420 201 420 201 383.5 233.5 c 128,-1,13
 347 266 347 266 295 290.5 c 128,-1,14
 243 315 243 315 190.5 342.5 c 128,-1,15
 138 370 138 370 101.5 415 c 128,-1,16
 65 460 65 460 65 522.5 c 128,-1,17
 65 585 65 585 113.5 632 c 128,-1,18
 162 679 162 679 244 689 c 1,19,-1
 244 782 l 1,20,-1
 314 782 l 1,21,-1
 314 690 l 1,22,23
 385 688 385 688 444 675 c 2,24,-1
 462 671 l 1,25,-1
 452 588 l 1,26,27
 373 611 373 611 294 611 c 128,-1,28
 215 611 215 611 182.5 589 c 128,-1,29
 150 567 150 567 150 526.5 c 128,-1,30
 150 486 150 486 176.5 458 c 128,-1,31
 203 430 203 430 242 411 c 128,-1,32
 281 392 281 392 327.5 368 c 128,-1,33
 374 344 374 344 413 320 c 128,-1,34
 452 296 452 296 478.5 257.5 c 128,-1,35
 505 219 505 219 505 174 c 128,-1,36
 505 129 505 129 489.5 96.5 c 128,-1,37
 474 64 474 64 444 44 c 0,38,39
 390 7 390 7 314 -8 c 1,40,-1
 314 -101 l 1,41,-1
 244 -101 l 1,0,-1
EndSplineSet
EndChar

StartChar: percent
Encoding: 37 37 8
Width: 875
Flags: W
LayerCount: 2
Fore
SplineSet
100 540 m 128,-1,1
 100 564 100 564 106.5 589 c 128,-1,2
 113 614 113 614 128.5 641.5 c 128,-1,3
 144 669 144 669 177 686.5 c 128,-1,4
 210 704 210 704 254.5 704 c 128,-1,5
 299 704 299 704 330 686 c 128,-1,6
 361 668 361 668 375 640 c 128,-1,7
 389 612 389 612 395 587.5 c 128,-1,8
 401 563 401 563 401 540 c 128,-1,9
 401 517 401 517 395 492.5 c 128,-1,10
 389 468 389 468 375 440 c 128,-1,11
 361 412 361 412 330 394 c 128,-1,12
 299 376 299 376 254.5 376 c 128,-1,13
 210 376 210 376 177 393.5 c 128,-1,14
 144 411 144 411 128.5 438.5 c 128,-1,15
 113 466 113 466 106.5 491 c 128,-1,0
 100 516 100 516 100 540 c 128,-1,1
329 540 m 128,-1,17
 329 640 329 640 250 640 c 0,18,19
 208 640 208 640 189.5 610 c 128,-1,20
 171 580 171 580 171 540 c 128,-1,21
 171 500 171 500 189.5 470 c 128,-1,22
 208 440 208 440 250 440 c 0,23,16
 329 440 329 440 329 540 c 128,-1,17
474 151 m 128,-1,25
 474 175 474 175 480.5 200 c 128,-1,26
 487 225 487 225 502.5 252.5 c 128,-1,27
 518 280 518 280 551 297.5 c 128,-1,28
 584 315 584 315 628.5 315 c 128,-1,29
 673 315 673 315 704 297 c 128,-1,30
 735 279 735 279 749 251 c 128,-1,31
 763 223 763 223 769 198.5 c 128,-1,32
 775 174 775 174 775 151 c 128,-1,33
 775 128 775 128 769 103.5 c 128,-1,34
 763 79 763 79 749 51 c 128,-1,35
 735 23 735 23 704 5 c 128,-1,36
 673 -13 673 -13 628.5 -13 c 128,-1,37
 584 -13 584 -13 551 4.5 c 128,-1,38
 518 22 518 22 502.5 49.5 c 128,-1,39
 487 77 487 77 480.5 102 c 128,-1,24
 474 127 474 127 474 151 c 128,-1,25
703 151 m 128,-1,41
 703 251 703 251 624 251 c 0,42,43
 582 251 582 251 563.5 221 c 128,-1,44
 545 191 545 191 545 151 c 128,-1,45
 545 111 545 111 563.5 81 c 128,-1,46
 582 51 582 51 624 51 c 0,47,40
 703 51 703 51 703 151 c 128,-1,41
137 2 m 1,48,-1
 656 743 l 1,49,-1
 720 695 l 1,50,-1
 201 -45 l 1,51,-1
 137 2 l 1,48,-1
EndSplineSet
EndChar

StartChar: ampersand
Encoding: 38 38 9
Width: 731
Flags: W
LayerCount: 2
Fore
SplineSet
566 154 m 1,0,-1
 707 28 l 1,1,-1
 663 -21 l 1,2,3
 591 36 591 36 521 98 c 1,4,5
 415 -13 415 -13 268 -13 c 0,6,7
 177 -13 177 -13 121 32 c 128,-1,8
 65 77 65 77 65 162 c 0,9,10
 65 254 65 254 149 324 c 0,11,12
 179 349 179 349 190.5 356.5 c 128,-1,13
 202 364 202 364 234 385 c 1,14,15
 231 389 231 389 210 414 c 128,-1,16
 189 439 189 439 182.5 447 c 128,-1,17
 176 455 176 455 160.5 477.5 c 128,-1,18
 145 500 145 500 140 515 c 0,19,20
 122 563 122 563 122 596 c 0,21,22
 122 660 122 660 169.5 706 c 128,-1,23
 217 752 217 752 314 752 c 0,24,25
 498 752 498 752 498 596 c 0,26,27
 498 532 498 532 451 475 c 128,-1,28
 404 418 404 418 339 376 c 1,29,30
 423 285 423 285 512 203 c 1,31,32
 562 277 562 277 593 373 c 1,33,-1
 659 351 l 1,34,35
 626 238 626 238 566 154 c 1,0,-1
268 57 m 0,36,37
 379 57 379 57 466 147 c 1,38,39
 358 245 358 245 279 334 c 1,40,41
 246 311 246 311 228.5 297.5 c 128,-1,42
 211 284 211 284 188 261 c 0,43,44
 145 217 145 217 145 159 c 0,45,46
 145 119 145 119 177.5 88 c 128,-1,47
 210 57 210 57 268 57 c 0,36,37
230.5 659 m 128,-1,49
 202 636 202 636 202 594 c 128,-1,50
 202 552 202 552 222 518.5 c 128,-1,51
 242 485 242 485 297 421 c 1,52,53
 418 504 418 504 418 594 c 0,54,55
 418 639 418 639 395.5 660.5 c 128,-1,56
 373 682 373 682 316 682 c 128,-1,48
 259 682 259 682 230.5 659 c 128,-1,49
EndSplineSet
EndChar

StartChar: quotesingle
Encoding: 39 39 10
Width: 280
Flags: W
LayerCount: 2
Fore
SplineSet
100 513 m 1,0,-1
 100 758 l 1,1,-1
 180 758 l 1,2,-1
 180 513 l 1,3,-1
 100 513 l 1,0,-1
EndSplineSet
EndChar

StartChar: parenleft
Encoding: 40 40 11
Width: 342
Flags: W
LayerCount: 2
Fore
SplineSet
302 -216 m 1,0,-1
 254 -262 l 1,1,2
 20 -71 20 -71 20 269 c 128,-1,3
 20 609 20 609 254 800 c 1,4,-1
 302 754 l 1,5,6
 114 567 114 567 114 270 c 128,-1,7
 114 -27 114 -27 302 -216 c 1,0,-1
EndSplineSet
EndChar

StartChar: parenright
Encoding: 41 41 12
Width: 342
Flags: W
LayerCount: 2
Fore
SplineSet
87 -262 m 1,0,-1
 39 -216 l 1,1,2
 227 -27 227 -27 227 270 c 128,-1,3
 227 567 227 567 39 754 c 1,4,-1
 87 800 l 1,5,6
 321 609 321 609 321 269 c 128,-1,7
 321 -71 321 -71 87 -262 c 1,0,-1
EndSplineSet
EndChar

StartChar: asterisk
Encoding: 42 42 13
Width: 582
Flags: W
LayerCount: 2
Fore
SplineSet
477 446 m 1,0,-1
 362 410 l 1,1,-1
 436 315 l 1,2,-1
 372 267 l 1,3,-1
 300 371 l 1,4,-1
 230 265 l 1,5,-1
 164 311 l 1,6,-1
 240 411 l 1,7,-1
 125 451 l 1,8,-1
 151 526 l 1,9,-1
 265 479 l 1,10,-1
 262 600 l 1,11,-1
 342 600 l 1,12,-1
 338 479 l 1,13,-1
 450 521 l 1,14,-1
 477 446 l 1,0,-1
EndSplineSet
EndChar

StartChar: plus
Encoding: 43 43 14
Width: 640
Flags: W
LayerCount: 2
Fore
SplineSet
100 220 m 1,0,-1
 100 294 l 1,1,-1
 280 294 l 1,2,-1
 280 474 l 1,3,-1
 360 474 l 1,4,-1
 360 294 l 1,5,-1
 540 294 l 1,6,-1
 540 220 l 1,7,-1
 360 220 l 1,8,-1
 360 40 l 1,9,-1
 280 40 l 1,10,-1
 280 220 l 1,11,-1
 100 220 l 1,0,-1
EndSplineSet
EndChar

StartChar: comma
Encoding: 44 44 15
Width: 329
Flags: W
LayerCount: 2
Fore
SplineSet
105 -116 m 1,0,-1
 139 130 l 1,1,-1
 224 130 l 1,2,-1
 168 -128 l 1,3,-1
 105 -116 l 1,0,-1
EndSplineSet
EndChar

StartChar: hyphen
Encoding: 45 45 16
AltUni2: 0000ad.ffffffff.0
Width: 467
Flags: W
LayerCount: 2
Fore
SplineSet
100 220 m 1,0,-1
 100 294 l 1,1,-1
 367 294 l 1,2,-1
 367 220 l 1,3,-1
 100 220 l 1,0,-1
EndSplineSet
EndChar

StartChar: period
Encoding: 46 46 17
Width: 341
Flags: W
LayerCount: 2
Fore
SplineSet
137 17 m 128,-1,1
 120 34 120 34 120 58.5 c 128,-1,2
 120 83 120 83 137 100.5 c 128,-1,3
 154 118 154 118 179 118 c 128,-1,4
 204 118 204 118 222.5 100.5 c 128,-1,5
 241 83 241 83 241 58.5 c 128,-1,6
 241 34 241 34 223 17 c 128,-1,7
 205 0 205 0 179.5 0 c 128,-1,0
 154 0 154 0 137 17 c 128,-1,1
EndSplineSet
EndChar

StartChar: slash
Encoding: 47 47 18
Width: 576
Flags: W
LayerCount: 2
Fore
SplineSet
63 -181 m 1,0,-1
 438 850 l 1,1,-1
 513 822 l 1,2,-1
 138 -209 l 1,3,-1
 63 -181 l 1,0,-1
EndSplineSet
EndChar

StartChar: zero
Encoding: 48 48 19
Width: 656
Flags: W
LayerCount: 2
Fore
SplineSet
205.5 380.5 m 128,-1,1
 160 328 160 328 160 251 c 128,-1,2
 160 174 160 174 205.5 120.5 c 128,-1,3
 251 67 251 67 328.5 67 c 128,-1,4
 406 67 406 67 451 120.5 c 128,-1,5
 496 174 496 174 496 250.5 c 128,-1,6
 496 327 496 327 451 380 c 128,-1,7
 406 433 406 433 328.5 433 c 128,-1,0
 251 433 251 433 205.5 380.5 c 128,-1,1
75 250 m 128,-1,9
 75 360 75 360 147.5 436.5 c 128,-1,10
 220 513 220 513 328.5 513 c 128,-1,11
 437 513 437 513 509 436.5 c 128,-1,12
 581 360 581 360 581 250 c 128,-1,13
 581 140 581 140 509 63.5 c 128,-1,14
 437 -13 437 -13 329 -13 c 128,-1,15
 221 -13 221 -13 148 63.5 c 128,-1,8
 75 140 75 140 75 250 c 128,-1,9
EndSplineSet
EndChar

StartChar: one
Encoding: 49 49 20
Width: 367
Flags: W
LayerCount: 2
Fore
SplineSet
177 0 m 1,0,-1
 177 411 l 1,1,-1
 46 386 l 1,2,-1
 30 454 l 1,3,-1
 208 503 l 1,4,-1
 257 503 l 1,5,-1
 257 0 l 1,6,-1
 177 0 l 1,0,-1
EndSplineSet
EndChar

StartChar: two
Encoding: 50 50 21
Width: 535
Flags: W
LayerCount: 2
Fore
SplineSet
70 0 m 1,0,-1
 70 38 l 1,1,2
 109 67 109 67 166 118.5 c 128,-1,3
 223 170 223 170 262 209.5 c 128,-1,4
 301 249 301 249 333 295 c 128,-1,5
 365 341 365 341 365 373 c 0,6,7
 365 443 365 443 264 443 c 0,8,9
 228 443 228 443 187 435.5 c 128,-1,10
 146 428 146 428 123 420 c 2,11,-1
 100 413 l 1,12,-1
 76 477 l 1,13,14
 168 513 168 513 276 513 c 0,15,16
 352 513 352 513 401 481.5 c 128,-1,17
 450 450 450 450 450 377 c 0,18,19
 450 343 450 343 427 299 c 128,-1,20
 404 255 404 255 371 216 c 0,21,22
 305 140 305 140 248 90 c 1,23,-1
 225 71 l 1,24,25
 304 75 304 75 389 75 c 2,26,-1
 465 75 l 1,27,-1
 465 0 l 1,28,-1
 70 0 l 1,0,-1
EndSplineSet
EndChar

StartChar: three
Encoding: 51 51 22
Width: 529
Flags: W
LayerCount: 2
Fore
SplineSet
50 -159 m 1,0,-1
 75 -92 l 1,1,2
 146 -125 146 -125 209.5 -125 c 128,-1,3
 273 -125 273 -125 311 -91.5 c 128,-1,4
 349 -58 349 -58 349 6 c 128,-1,5
 349 70 349 70 296.5 106.5 c 128,-1,6
 244 143 244 143 155 144 c 1,7,-1
 155 214 l 1,8,9
 241 214 241 214 291 250.5 c 128,-1,10
 341 287 341 287 341 355 c 0,11,12
 341 443 341 443 242 443 c 0,13,14
 190 443 190 443 138 430 c 2,15,-1
 121 426 l 1,16,-1
 101 491 l 1,17,18
 165 513 165 513 249.5 513 c 128,-1,19
 334 513 334 513 380 474 c 128,-1,20
 426 435 426 435 426 360 c 128,-1,21
 426 285 426 285 387.5 242.5 c 128,-1,22
 349 200 349 200 302 184 c 1,23,-1
 302 181 l 1,24,25
 359 161 359 161 396.5 116.5 c 128,-1,26
 434 72 434 72 434 10.5 c 128,-1,27
 434 -51 434 -51 413 -92 c 128,-1,28
 392 -133 392 -133 358 -154 c 0,29,30
 294 -195 294 -195 217 -195 c 0,31,32
 173 -195 173 -195 131.5 -186 c 128,-1,33
 90 -177 90 -177 70 -168 c 2,34,-1
 50 -159 l 1,0,-1
EndSplineSet
EndChar

StartChar: four
Encoding: 52 52 23
Width: 692
Flags: W
LayerCount: 2
Fore
SplineSet
447 402 m 1,0,-1
 172 66 l 1,1,2
 291 70 291 70 380 70 c 2,3,-1
 442 70 l 1,4,-1
 442 175 l 1,5,-1
 447 402 l 1,0,-1
75 0 m 1,6,-1
 70 54 l 1,7,-1
 442 503 l 1,8,-1
 522 503 l 1,9,-1
 522 70 l 1,10,-1
 592 70 l 1,11,-1
 592 0 l 1,12,-1
 522 0 l 1,13,-1
 522 -195 l 1,14,-1
 442 -195 l 1,15,-1
 442 0 l 1,16,-1
 75 0 l 1,6,-1
EndSplineSet
EndChar

StartChar: five
Encoding: 53 53 24
Width: 569
Flags: W
LayerCount: 2
Fore
SplineSet
120 133 m 1,0,-1
 151 503 l 1,1,-1
 468 503 l 1,2,-1
 468 433 l 1,3,-1
 225 433 l 1,4,-1
 207 210 l 1,5,6
 243 221 243 221 290 221 c 0,7,8
 386 221 386 221 440 170 c 128,-1,9
 494 119 494 119 494 21 c 0,10,11
 494 -103 494 -103 420 -152 c 0,12,13
 356 -195 356 -195 262 -195 c 0,14,15
 217 -195 217 -195 169.5 -181.5 c 128,-1,16
 122 -168 122 -168 96 -154 c 2,17,-1
 70 -140 l 1,18,-1
 97 -73 l 1,19,20
 103 -76 103 -76 122.5 -85 c 128,-1,21
 142 -94 142 -94 149.5 -97.5 c 128,-1,22
 157 -101 157 -101 174.5 -107.5 c 128,-1,23
 192 -114 192 -114 204 -117 c 0,24,25
 234 -125 234 -125 263 -125 c 0,26,27
 339 -125 339 -125 374 -88 c 128,-1,28
 409 -51 409 -51 409 21 c 0,29,30
 409 151 409 151 281 151 c 0,31,32
 224 151 224 151 176 133 c 2,33,-1
 159 127 l 1,34,-1
 120 133 l 1,0,-1
EndSplineSet
EndChar

StartChar: six
Encoding: 54 54 25
Width: 620
Flags: W
LayerCount: 2
Fore
SplineSet
478 691 m 1,0,-1
 503 620 l 1,1,2
 251 542 251 542 194 387 c 1,3,4
 249 394 249 394 308 394 c 0,5,6
 397 394 397 394 461 345.5 c 128,-1,7
 525 297 525 297 525 199 c 128,-1,8
 525 101 525 101 461 44 c 128,-1,9
 397 -13 397 -13 299 -13 c 0,10,11
 95 -13 95 -13 95 268 c 0,12,13
 95 582 95 582 478 691 c 1,0,-1
180 259 m 1,14,15
 186 57 186 57 306 57 c 0,16,17
 365 57 365 57 402.5 89.5 c 128,-1,18
 440 122 440 122 440 192 c 0,19,20
 440 324 440 324 296 324 c 0,21,22
 240 324 240 324 198 318 c 1,23,-1
 184 317 l 1,24,-1
 180 259 l 1,14,15
EndSplineSet
EndChar

StartChar: seven
Encoding: 55 55 26
Width: 591
Flags: W
LayerCount: 2
Fore
SplineSet
100 433 m 1,0,-1
 100 503 l 1,1,-1
 491 503 l 1,2,-1
 491 465 l 1,3,-1
 331 81 l 2,4,5
 260 -88 260 -88 149 -207 c 1,6,-1
 90 -154 l 1,7,8
 199 -31 199 -31 264 127 c 2,9,-1
 391 433 l 1,10,-1
 100 433 l 1,0,-1
EndSplineSet
EndChar

StartChar: eight
Encoding: 56 56 27
Width: 586
Flags: W
LayerCount: 2
Fore
SplineSet
448.5 31 m 128,-1,1
 386 -13 386 -13 289.5 -13 c 128,-1,2
 193 -13 193 -13 134 31.5 c 128,-1,3
 75 76 75 76 75 177 c 128,-1,4
 75 278 75 278 200 359 c 1,5,6
 95 416 95 416 95 506.5 c 128,-1,7
 95 597 95 597 155 644 c 128,-1,8
 215 691 215 691 298.5 691 c 128,-1,9
 382 691 382 691 436.5 642 c 128,-1,10
 491 593 491 593 491 508 c 128,-1,11
 491 423 491 423 394 344 c 1,12,13
 449 315 449 315 480 277.5 c 128,-1,14
 511 240 511 240 511 173 c 0,15,0
 511 75 511 75 448.5 31 c 128,-1,1
329 376 m 1,16,17
 353 396 353 396 366.5 410.5 c 128,-1,18
 380 425 380 425 393 452 c 128,-1,19
 406 479 406 479 406 518.5 c 128,-1,20
 406 558 406 558 379.5 589.5 c 128,-1,21
 353 621 353 621 296.5 621 c 128,-1,22
 240 621 240 621 210 587.5 c 128,-1,23
 180 554 180 554 180 508 c 128,-1,24
 180 462 180 462 216.5 434 c 128,-1,25
 253 406 253 406 329 376 c 1,16,17
160 173 m 128,-1,27
 160 121 160 121 193 89 c 128,-1,28
 226 57 226 57 289.5 57 c 128,-1,29
 353 57 353 57 389.5 88.5 c 128,-1,30
 426 120 426 120 426 173 c 128,-1,31
 426 226 426 226 388.5 255.5 c 128,-1,32
 351 285 351 285 262 323 c 1,33,34
 214 292 214 292 187 258.5 c 128,-1,26
 160 225 160 225 160 173 c 128,-1,27
EndSplineSet
EndChar

StartChar: nine
Encoding: 57 57 28
Width: 520
Flags: W
LayerCount: 2
Fore
SplineSet
91 -205 m 1,0,-1
 67 -133 l 1,1,2
 194 -91 194 -91 271 -27.5 c 128,-1,3
 348 36 348 36 376 109 c 1,4,5
 321 101 321 101 262 101 c 0,6,7
 173 101 173 101 109 152 c 128,-1,8
 45 203 45 203 45 302 c 128,-1,9
 45 401 45 401 104.5 457 c 128,-1,10
 164 513 164 513 266 513 c 0,11,12
 475 513 475 513 475 227 c 0,13,14
 475 -89 475 -89 91 -205 c 1,0,-1
259 443 m 0,15,16
 204 443 204 443 167 410.5 c 128,-1,17
 130 378 130 378 130 310.5 c 128,-1,18
 130 243 130 243 167 207 c 128,-1,19
 204 171 204 171 274 171 c 0,20,21
 323 171 323 171 372 178 c 2,22,-1
 387 180 l 1,23,-1
 390 236 l 1,24,25
 386 443 386 443 259 443 c 0,15,16
EndSplineSet
EndChar

StartChar: colon
Encoding: 58 58 29
Width: 341
Flags: W
LayerCount: 2
Fore
SplineSet
137 17 m 128,-1,1
 120 34 120 34 120 58.5 c 128,-1,2
 120 83 120 83 137 100.5 c 128,-1,3
 154 118 154 118 179 118 c 128,-1,4
 204 118 204 118 222.5 100.5 c 128,-1,5
 241 83 241 83 241 58.5 c 128,-1,6
 241 34 241 34 223 17 c 128,-1,7
 205 0 205 0 179.5 0 c 128,-1,0
 154 0 154 0 137 17 c 128,-1,1
137 352 m 128,-1,9
 120 369 120 369 120 393.5 c 128,-1,10
 120 418 120 418 137 435.5 c 128,-1,11
 154 453 154 453 179 453 c 128,-1,12
 204 453 204 453 222.5 435.5 c 128,-1,13
 241 418 241 418 241 393.5 c 128,-1,14
 241 369 241 369 223 352 c 128,-1,15
 205 335 205 335 179.5 335 c 128,-1,8
 154 335 154 335 137 352 c 128,-1,9
EndSplineSet
EndChar

StartChar: semicolon
Encoding: 59 59 30
Width: 362
Flags: W
LayerCount: 2
Fore
SplineSet
158 353 m 128,-1,1
 141 370 141 370 141 394.5 c 128,-1,2
 141 419 141 419 158 436.5 c 128,-1,3
 175 454 175 454 200 454 c 128,-1,4
 225 454 225 454 243.5 436.5 c 128,-1,5
 262 419 262 419 262 394.5 c 128,-1,6
 262 370 262 370 244 353 c 128,-1,7
 226 336 226 336 200.5 336 c 128,-1,0
 175 336 175 336 158 353 c 128,-1,1
115 -127 m 1,8,-1
 149 119 l 1,9,-1
 234 119 l 1,10,-1
 178 -139 l 1,11,-1
 115 -127 l 1,8,-1
EndSplineSet
EndChar

StartChar: less
Encoding: 60 60 31
Width: 573
Flags: W
LayerCount: 2
Fore
SplineSet
473 84 m 1,0,-1
 100 290 l 1,1,-1
 100 331 l 1,2,-1
 473 506 l 1,3,-1
 473 430 l 1,4,-1
 214 305 l 1,5,-1
 473 170 l 1,6,-1
 473 84 l 1,0,-1
EndSplineSet
EndChar

StartChar: equal
Encoding: 61 61 32
Width: 640
Flags: W
LayerCount: 2
Fore
SplineSet
100 150 m 1,0,-1
 100 220 l 1,1,-1
 540 220 l 1,2,-1
 540 150 l 1,3,-1
 100 150 l 1,0,-1
100 355 m 1,4,-1
 100 425 l 1,5,-1
 540 425 l 1,6,-1
 540 355 l 1,7,-1
 100 355 l 1,4,-1
EndSplineSet
EndChar

StartChar: greater
Encoding: 62 62 33
Width: 573
Flags: W
LayerCount: 2
Fore
SplineSet
100 84 m 1,0,-1
 100 170 l 1,1,-1
 359 305 l 1,2,-1
 100 430 l 1,3,-1
 100 506 l 1,4,-1
 473 331 l 1,5,-1
 473 290 l 1,6,-1
 100 84 l 1,0,-1
EndSplineSet
EndChar

StartChar: question
Encoding: 63 63 34
Width: 525
Flags: W
LayerCount: 2
Fore
SplineSet
144 182 m 1,0,-1
 144 310 l 2,1,2
 144 371 144 371 212 402 c 1,3,4
 240 416 240 416 268 431 c 128,-1,5
 296 446 296 446 315.5 474 c 128,-1,6
 335 502 335 502 335 548 c 128,-1,7
 335 594 335 594 303 623.5 c 128,-1,8
 271 653 271 653 217 653 c 0,9,10
 178 653 178 653 150 642 c 2,11,-1
 140 638 l 1,12,-1
 120 715 l 1,13,14
 160 733 160 733 224 733 c 0,15,16
 311 733 311 733 368 683.5 c 128,-1,17
 425 634 425 634 425 554 c 0,18,19
 425 508 425 508 410 473 c 128,-1,20
 395 438 395 438 373 419 c 128,-1,21
 351 400 351 400 324.5 383.5 c 128,-1,22
 298 367 298 367 276 357.5 c 128,-1,23
 254 348 254 348 239 333.5 c 128,-1,24
 224 319 224 319 224 302 c 2,25,-1
 224 182 l 1,26,-1
 144 182 l 1,0,-1
141 17 m 128,-1,28
 124 34 124 34 124 58.5 c 128,-1,29
 124 83 124 83 141 100.5 c 128,-1,30
 158 118 158 118 183 118 c 128,-1,31
 208 118 208 118 226.5 100.5 c 128,-1,32
 245 83 245 83 245 58.5 c 128,-1,33
 245 34 245 34 227 17 c 128,-1,34
 209 0 209 0 183.5 0 c 128,-1,27
 158 0 158 0 141 17 c 128,-1,28
EndSplineSet
EndChar

StartChar: at
Encoding: 64 64 35
Width: 904
Flags: W
LayerCount: 2
Fore
SplineSet
535 438 m 1,0,1
 505 445 505 445 472 445 c 0,2,3
 417 445 417 445 376.5 397 c 128,-1,4
 336 349 336 349 336 261 c 0,5,6
 336 236 336 236 343 214 c 128,-1,7
 350 192 350 192 361.5 192 c 128,-1,8
 373 192 373 192 410 225 c 128,-1,9
 447 258 447 258 483 305.5 c 128,-1,10
 519 353 519 353 525 384 c 2,11,-1
 535 438 l 1,0,1
617 497 m 1,12,-1
 587 297 l 2,13,14
 585 283 585 283 585 271.5 c 128,-1,15
 585 260 585 260 586.5 243.5 c 128,-1,16
 588 227 588 227 593 211 c 128,-1,17
 598 195 598 195 602 195 c 0,18,19
 666 195 666 195 712.5 241 c 128,-1,20
 759 287 759 287 759 373 c 0,21,22
 759 502 759 502 686.5 561.5 c 128,-1,23
 614 621 614 621 476 621 c 0,24,25
 389 621 389 621 315 582.5 c 128,-1,26
 241 544 241 544 193 465 c 128,-1,27
 145 386 145 386 145 281 c 0,28,29
 145 134 145 134 216.5 67 c 128,-1,30
 288 0 288 0 436 0 c 0,31,32
 478 0 478 0 516 7 c 128,-1,33
 554 14 554 14 570 21 c 2,34,-1
 586 28 l 1,35,-1
 606 -38 l 1,36,37
 524 -68 524 -68 412 -68 c 0,38,39
 250 -68 250 -68 162.5 18.5 c 128,-1,40
 75 105 75 105 75 281 c 0,41,42
 75 376 75 376 108 454.5 c 128,-1,43
 141 533 141 533 197 584 c 128,-1,44
 253 635 253 635 325 663 c 128,-1,45
 397 691 397 691 476 691 c 0,46,47
 829 691 829 691 829 373 c 0,48,49
 829 267 829 267 763 193.5 c 128,-1,50
 697 120 697 120 563 120 c 0,51,52
 557 120 557 120 548.5 134 c 128,-1,53
 540 148 540 148 532.5 181.5 c 128,-1,54
 525 215 525 215 525 238 c 2,55,-1
 525 266 l 1,56,-1
 523 266 l 1,57,58
 412 125 412 125 344 125 c 0,59,60
 301 125 301 125 279 157.5 c 128,-1,61
 257 190 257 190 257 245 c 0,62,63
 257 363 257 363 323.5 438 c 128,-1,64
 390 513 390 513 494 513 c 0,65,66
 528 513 528 513 594 501 c 2,67,-1
 617 497 l 1,12,-1
EndSplineSet
EndChar

StartChar: A
Encoding: 65 65 36
Width: 632
Flags: W
LayerCount: 2
Fore
SplineSet
30 0 m 1,0,-1
 264 682 l 1,1,-1
 368 682 l 1,2,-1
 602 0 l 1,3,-1
 515 0 l 1,4,-1
 455 182 l 1,5,-1
 178 182 l 1,6,-1
 117 0 l 1,7,-1
 30 0 l 1,0,-1
204 262 m 1,8,-1
 428 262 l 1,9,-1
 318 602 l 1,10,-1
 315 602 l 1,11,-1
 204 262 l 1,8,-1
EndSplineSet
EndChar

StartChar: B
Encoding: 66 66 37
Width: 572
Flags: W
LayerCount: 2
Fore
SplineSet
85 0 m 1,0,-1
 85 682 l 1,1,-1
 267 682 l 2,2,3
 374 682 374 682 423 642.5 c 128,-1,4
 472 603 472 603 472 520 c 0,5,6
 472 476 472 476 455 438 c 128,-1,7
 438 400 438 400 422 384 c 1,8,-1
 405 369 l 1,9,10
 522 323 522 323 522 200 c 0,11,12
 522 109 522 109 469.5 54.5 c 128,-1,13
 417 0 417 0 298 0 c 2,14,-1
 85 0 l 1,0,-1
169 607 m 1,15,-1
 169 386 l 1,16,-1
 336 386 l 1,17,18
 338 388 338 388 341.5 390.5 c 128,-1,19
 345 393 345 393 354 404 c 128,-1,20
 363 415 363 415 370 428 c 0,21,22
 387 463 387 463 387 513 c 128,-1,23
 387 563 387 563 358 585 c 128,-1,24
 329 607 329 607 276 607 c 2,25,-1
 169 607 l 1,15,-1
169 316 m 1,26,-1
 169 75 l 1,27,-1
 305 75 l 2,28,29
 369 75 369 75 403 108.5 c 128,-1,30
 437 142 437 142 437 200 c 0,31,32
 437 316 437 316 298 316 c 2,33,-1
 169 316 l 1,26,-1
EndSplineSet
EndChar

StartChar: C
Encoding: 67 67 38
Width: 623
Flags: W
LayerCount: 2
Fore
SplineSet
569 660 m 1,0,-1
 551 586 l 1,1,2
 465 616 465 616 366 616 c 0,3,4
 309 616 309 616 264.5 590.5 c 128,-1,5
 220 565 220 565 195 523 c 0,6,7
 145 439 145 439 145 326 c 128,-1,8
 145 213 145 213 209.5 137.5 c 128,-1,9
 274 62 274 62 367 62 c 0,10,11
 417 62 417 62 464.5 69 c 128,-1,12
 512 76 512 76 534 83 c 2,13,-1
 556 90 l 1,14,-1
 573 19 l 1,15,16
 483 -13 483 -13 367 -13 c 0,17,18
 214 -13 214 -13 132 82.5 c 128,-1,19
 50 178 50 178 50 341.5 c 128,-1,20
 50 505 50 505 137.5 598 c 128,-1,21
 225 691 225 691 367 691 c 0,22,23
 416 691 416 691 466.5 683.5 c 128,-1,24
 517 676 517 676 543 668 c 2,25,-1
 569 660 l 1,0,-1
EndSplineSet
EndChar

StartChar: D
Encoding: 68 68 39
Width: 711
Flags: W
LayerCount: 2
Fore
SplineSet
169 605 m 1,0,-1
 169 77 l 1,1,-1
 304 77 l 2,2,3
 424 77 424 77 497.5 141 c 128,-1,4
 571 205 571 205 571 340 c 128,-1,5
 571 475 571 475 500.5 540 c 128,-1,6
 430 605 430 605 304 605 c 2,7,-1
 169 605 l 1,0,-1
85 0 m 1,8,-1
 85 682 l 1,9,-1
 304 682 l 2,10,11
 471 682 471 682 566 597.5 c 128,-1,12
 661 513 661 513 661 344 c 128,-1,13
 661 175 661 175 561.5 87.5 c 128,-1,14
 462 0 462 0 304 0 c 2,15,-1
 85 0 l 1,8,-1
EndSplineSet
EndChar

StartChar: E
Encoding: 69 69 40
Width: 578
Flags: W
LayerCount: 2
Fore
SplineSet
85 0 m 1,0,-1
 85 682 l 1,1,-1
 503 682 l 1,2,-1
 503 605 l 1,3,-1
 169 605 l 1,4,-1
 169 387 l 1,5,-1
 479 387 l 1,6,-1
 479 312 l 1,7,-1
 169 312 l 1,8,-1
 169 77 l 1,9,-1
 513 77 l 1,10,-1
 513 0 l 1,11,-1
 85 0 l 1,0,-1
EndSplineSet
EndChar

StartChar: F
Encoding: 70 70 41
Width: 558
Flags: W
LayerCount: 2
Fore
SplineSet
85 0 m 1,0,-1
 85 682 l 1,1,-1
 503 682 l 1,2,-1
 503 605 l 1,3,-1
 169 605 l 1,4,-1
 169 387 l 1,5,-1
 479 387 l 1,6,-1
 479 312 l 1,7,-1
 169 312 l 1,8,-1
 169 0 l 1,9,-1
 85 0 l 1,0,-1
EndSplineSet
EndChar

StartChar: G
Encoding: 71 71 42
Width: 695
Flags: W
LayerCount: 2
Fore
SplineSet
620 663 m 1,0,-1
 606 586 l 1,1,2
 488 613 488 613 398 613 c 0,3,4
 271 613 271 613 208 541 c 128,-1,5
 145 469 145 469 145 335.5 c 128,-1,6
 145 202 145 202 215 131.5 c 128,-1,7
 285 61 285 61 398 61 c 0,8,9
 438 61 438 61 475 67.5 c 128,-1,10
 512 74 512 74 528 80 c 2,11,-1
 545 87 l 1,12,-1
 545 270 l 1,13,-1
 420 270 l 1,14,-1
 420 345 l 1,15,-1
 630 345 l 1,16,-1
 630 46 l 1,17,18
 621 39 621 39 603 29.5 c 128,-1,19
 585 20 585 20 524.5 3.5 c 128,-1,20
 464 -13 464 -13 398 -13 c 0,21,22
 50 -13 50 -13 50 347 c 0,23,24
 50 512 50 512 146.5 601.5 c 128,-1,25
 243 691 243 691 389 691 c 0,26,27
 496 691 496 691 589 670 c 2,28,-1
 620 663 l 1,0,-1
EndSplineSet
EndChar

StartChar: H
Encoding: 72 72 43
Width: 683
Flags: W
LayerCount: 2
Fore
SplineSet
85 0 m 1,0,-1
 85 682 l 1,1,-1
 169 682 l 1,2,-1
 169 387 l 1,3,-1
 514 387 l 1,4,-1
 514 682 l 1,5,-1
 598 682 l 1,6,-1
 598 0 l 1,7,-1
 514 0 l 1,8,-1
 514 312 l 1,9,-1
 169 312 l 1,10,-1
 169 0 l 1,11,-1
 85 0 l 1,0,-1
EndSplineSet
EndChar

StartChar: I
Encoding: 73 73 44
Width: 254
Flags: W
LayerCount: 2
Fore
SplineSet
85 0 m 1,0,-1
 85 682 l 1,1,-1
 169 682 l 1,2,-1
 169 0 l 1,3,-1
 85 0 l 1,0,-1
EndSplineSet
EndChar

StartChar: J
Encoding: 74 74 45
Width: 330
Flags: W
LayerCount: 2
Fore
SplineSet
161 682 m 1,0,-1
 245 682 l 1,1,-1
 245 213 l 2,2,3
 245 149 245 149 233.5 109 c 128,-1,4
 222 69 222 69 192 46 c 0,5,6
 131 -1 131 -1 36 -13 c 1,7,-1
 25 58 l 1,8,9
 72 66 72 66 99.5 77.5 c 128,-1,10
 127 89 127 89 140.5 109.5 c 128,-1,11
 154 130 154 130 157.5 152 c 128,-1,12
 161 174 161 174 161 214 c 2,13,-1
 161 682 l 1,0,-1
EndSplineSet
EndChar

StartChar: K
Encoding: 75 75 46
Width: 630
Flags: W
LayerCount: 2
Fore
SplineSet
85 0 m 1,0,-1
 85 682 l 1,1,-1
 169 682 l 1,2,-1
 169 367 l 1,3,-1
 455 682 l 1,4,-1
 560 682 l 1,5,-1
 298 396 l 1,6,-1
 600 0 l 1,7,-1
 495 0 l 1,8,-1
 240 334 l 1,9,-1
 169 256 l 1,10,-1
 169 0 l 1,11,-1
 85 0 l 1,0,-1
EndSplineSet
EndChar

StartChar: L
Encoding: 76 76 47
Width: 514
Flags: W
LayerCount: 2
Fore
SplineSet
85 0 m 1,0,-1
 85 682 l 1,1,-1
 169 682 l 1,2,-1
 169 80 l 1,3,-1
 479 80 l 1,4,-1
 479 0 l 1,5,-1
 85 0 l 1,0,-1
EndSplineSet
EndChar

StartChar: M
Encoding: 77 77 48
Width: 875
Flags: W
LayerCount: 2
Fore
SplineSet
80 0 m 1,0,-1
 116 682 l 1,1,-1
 223 682 l 1,2,-1
 377 276 l 1,3,-1
 437 111 l 1,4,-1
 439 111 l 1,5,6
 461 184 461 184 496 276 c 2,7,-1
 653 682 l 1,8,-1
 760 682 l 1,9,-1
 795 0 l 1,10,-1
 710 0 l 1,11,-1
 693 375 l 1,12,-1
 689 556 l 1,13,-1
 687 556 l 1,14,15
 670 506 670 506 621 375 c 2,16,-1
 480 0 l 1,17,-1
 395 0 l 1,18,-1
 253 375 l 1,19,-1
 188 556 l 1,20,-1
 186 556 l 1,21,22
 189 532 189 532 189 488.5 c 128,-1,23
 189 445 189 445 185 375 c 2,24,-1
 165 0 l 1,25,-1
 80 0 l 1,0,-1
EndSplineSet
EndChar

StartChar: N
Encoding: 78 78 49
Width: 694
Flags: W
LayerCount: 2
Fore
SplineSet
90 0 m 1,0,-1
 90 682 l 1,1,-1
 170 682 l 1,2,-1
 528 141 l 1,3,-1
 530 141 l 1,4,5
 524 240 524 240 524 342 c 2,6,-1
 524 682 l 1,7,-1
 604 682 l 1,8,-1
 604 0 l 1,9,-1
 524 0 l 1,10,-1
 166 543 l 1,11,-1
 164 543 l 1,12,13
 170 443 170 443 170 341 c 2,14,-1
 170 0 l 1,15,-1
 90 0 l 1,0,-1
EndSplineSet
EndChar

StartChar: O
Encoding: 79 79 50
Width: 758
Flags: W
LayerCount: 2
Fore
SplineSet
70 202 m 0,0,1
 50 264 50 264 50 340 c 128,-1,2
 50 416 50 416 70 476.5 c 128,-1,3
 90 537 90 537 122.5 576.5 c 128,-1,4
 155 616 155 616 198 642 c 0,5,6
 278 691 278 691 379 691 c 0,7,8
 504 691 504 691 599 621 c 0,9,10
 649 584 649 584 678.5 512 c 128,-1,11
 708 440 708 440 708 343.5 c 128,-1,12
 708 247 708 247 678 176 c 128,-1,13
 648 105 648 105 599 66 c 0,14,15
 502 -13 502 -13 379 -13 c 0,16,17
 279 -13 279 -13 198 35 c 0,18,19
 106 90 106 90 70 202 c 0,0,1
548.5 136 m 128,-1,21
 613 205 613 205 613 337 c 128,-1,22
 613 469 613 469 551.5 540 c 128,-1,23
 490 611 490 611 382 611 c 128,-1,24
 274 611 274 611 209.5 543.5 c 128,-1,25
 145 476 145 476 145 344.5 c 128,-1,26
 145 213 145 213 206.5 140 c 128,-1,27
 268 67 268 67 376 67 c 128,-1,20
 484 67 484 67 548.5 136 c 128,-1,21
EndSplineSet
EndChar

StartChar: P
Encoding: 80 80 51
Width: 547
Flags: W
LayerCount: 2
Fore
SplineSet
85 0 m 1,0,-1
 85 682 l 1,1,-1
 242 682 l 2,2,3
 374 682 374 682 435.5 635.5 c 128,-1,4
 497 589 497 589 497 481 c 0,5,6
 497 425 497 425 474.5 382 c 128,-1,7
 452 339 452 339 416 316 c 0,8,9
 346 271 346 271 268 271 c 2,10,-1
 169 271 l 1,11,-1
 169 0 l 1,12,-1
 85 0 l 1,0,-1
169 607 m 1,13,-1
 169 346 l 1,14,-1
 261 346 l 2,15,16
 334 346 334 346 373 376.5 c 128,-1,17
 412 407 412 407 412 483 c 128,-1,18
 412 559 412 559 370.5 583 c 128,-1,19
 329 607 329 607 231 607 c 2,20,-1
 169 607 l 1,13,-1
EndSplineSet
EndChar

StartChar: Q
Encoding: 81 81 52
Width: 759
Flags: W
LayerCount: 2
Fore
SplineSet
548.5 136 m 128,-1,1
 613 205 613 205 613 337 c 128,-1,2
 613 469 613 469 551.5 540 c 128,-1,3
 490 611 490 611 382 611 c 128,-1,4
 274 611 274 611 209.5 543.5 c 128,-1,5
 145 476 145 476 145 344.5 c 128,-1,6
 145 213 145 213 206.5 140 c 128,-1,7
 268 67 268 67 376 67 c 128,-1,0
 484 67 484 67 548.5 136 c 128,-1,1
423 -11 m 1,8,9
 406 -13 406 -13 371 -13 c 128,-1,10
 336 -13 336 -13 293 -3.5 c 128,-1,11
 250 6 250 6 204.5 31.5 c 128,-1,12
 159 57 159 57 126 95.5 c 128,-1,13
 93 134 93 134 71.5 197 c 128,-1,14
 50 260 50 260 50 338 c 128,-1,15
 50 416 50 416 70 476.5 c 128,-1,16
 90 537 90 537 122.5 576.5 c 128,-1,17
 155 616 155 616 198 642 c 0,18,19
 278 691 278 691 382 691 c 0,20,21
 507 691 507 691 600 621 c 0,22,23
 650 584 650 584 679 512 c 128,-1,24
 708 440 708 440 708 327 c 128,-1,25
 708 214 708 214 654.5 134.5 c 128,-1,26
 601 55 601 55 520 19 c 1,27,28
 524 17 524 17 569 -12 c 0,29,30
 657 -69 657 -69 697.5 -69 c 128,-1,31
 738 -69 738 -69 773 -46 c 1,32,-1
 810 -111 l 1,33,34
 745 -149 745 -149 695 -149 c 0,35,36
 666 -149 666 -149 618 -127 c 128,-1,37
 570 -105 570 -105 531.5 -81 c 128,-1,38
 493 -57 493 -57 423 -11 c 1,8,9
EndSplineSet
EndChar

StartChar: R
Encoding: 82 82 53
Width: 595
Flags: W
LayerCount: 2
Fore
SplineSet
85 0 m 1,0,-1
 85 682 l 1,1,-1
 253 682 l 2,2,3
 372 682 372 682 434.5 638 c 128,-1,4
 497 594 497 594 497 488 c 0,5,6
 497 441 497 441 483 403.5 c 128,-1,7
 469 366 469 366 449 346 c 0,8,9
 408 305 408 305 374 295 c 2,10,-1
 360 291 l 1,11,-1
 360 289 l 1,12,13
 372 276 372 276 387 256 c 2,14,-1
 580 0 l 1,15,-1
 481 0 l 1,16,-1
 283 271 l 1,17,-1
 169 271 l 1,18,-1
 169 0 l 1,19,-1
 85 0 l 1,0,-1
412 474 m 1,20,21
 412 554 412 554 374 580.5 c 128,-1,22
 336 607 336 607 252 607 c 2,23,-1
 169 607 l 1,24,-1
 169 346 l 1,25,-1
 268 346 l 2,26,27
 341 346 341 346 375.5 381 c 128,-1,28
 410 416 410 416 412 474 c 1,20,21
EndSplineSet
EndChar

StartChar: S
Encoding: 83 83 54
Width: 575
Flags: W
LayerCount: 2
Fore
SplineSet
471 669 m 1,0,-1
 457 588 l 1,1,2
 378 611 378 611 299 611 c 128,-1,3
 220 611 220 611 187.5 588.5 c 128,-1,4
 155 566 155 566 155 525.5 c 128,-1,5
 155 485 155 485 181.5 456.5 c 128,-1,6
 208 428 208 428 247 409.5 c 128,-1,7
 286 391 286 391 332.5 367.5 c 128,-1,8
 379 344 379 344 418 320.5 c 128,-1,9
 457 297 457 297 483.5 258.5 c 128,-1,10
 510 220 510 220 510 168.5 c 128,-1,11
 510 117 510 117 485.5 78 c 128,-1,12
 461 39 461 39 420 20 c 1,13,14
 344 -13 344 -13 246 -13 c 0,15,16
 199 -13 199 -13 154 -5 c 128,-1,17
 109 3 109 3 87 11 c 2,18,-1
 65 19 l 1,19,-1
 85 100 l 1,20,21
 162 67 162 67 246 67 c 0,22,23
 425 67 425 67 425 161 c 0,24,25
 425 196 425 196 398.5 225 c 128,-1,26
 372 254 372 254 333 272.5 c 128,-1,27
 294 291 294 291 247.5 315 c 128,-1,28
 201 339 201 339 162 362.5 c 128,-1,29
 123 386 123 386 96.5 427 c 128,-1,30
 70 468 70 468 70 519 c 0,31,32
 70 592 70 592 123 641.5 c 128,-1,33
 176 691 176 691 293 691 c 0,34,35
 383 691 383 691 448 674 c 1,36,-1
 471 669 l 1,0,-1
EndSplineSet
EndChar

StartChar: T
Encoding: 84 84 55
Width: 572
Flags: W
LayerCount: 2
Fore
SplineSet
244 0 m 1,0,-1
 244 604 l 1,1,-1
 30 604 l 1,2,-1
 30 682 l 1,3,-1
 542 682 l 1,4,-1
 542 604 l 1,5,-1
 328 604 l 1,6,-1
 328 0 l 1,7,-1
 244 0 l 1,0,-1
EndSplineSet
EndChar

StartChar: U
Encoding: 85 85 56
Width: 720
Flags: W
LayerCount: 2
Fore
SplineSet
85 682 m 1,0,-1
 169 682 l 1,1,-1
 169 256 l 2,2,3
 169 68 169 68 360 68 c 128,-1,4
 551 68 551 68 551 256 c 2,5,-1
 551 682 l 1,6,-1
 635 682 l 1,7,-1
 635 235 l 2,8,9
 635 130 635 130 558.5 59 c 128,-1,10
 482 -12 482 -12 355 -12 c 128,-1,11
 228 -12 228 -12 156.5 53 c 128,-1,12
 85 118 85 118 85 235 c 2,13,-1
 85 682 l 1,0,-1
EndSplineSet
EndChar

StartChar: V
Encoding: 86 86 57
Width: 620
Flags: W
LayerCount: 2
Fore
SplineSet
257 0 m 1,0,-1
 30 682 l 1,1,-1
 115 682 l 1,2,-1
 311 80 l 1,3,-1
 312 80 l 1,4,-1
 505 682 l 1,5,-1
 590 682 l 1,6,-1
 363 0 l 1,7,-1
 257 0 l 1,0,-1
EndSplineSet
EndChar

StartChar: W
Encoding: 87 87 58
Width: 949
Flags: W
LayerCount: 2
Fore
SplineSet
188 0 m 1,0,-1
 30 682 l 1,1,-1
 115 682 l 1,2,-1
 247 80 l 1,3,-1
 248 80 l 1,4,-1
 423 682 l 1,5,-1
 529 682 l 1,6,-1
 702 80 l 1,7,-1
 703 80 l 1,8,-1
 834 682 l 1,9,-1
 919 682 l 1,10,-1
 762 0 l 1,11,-1
 656 0 l 1,12,-1
 476 601 l 1,13,-1
 475 601 l 1,14,-1
 294 0 l 1,15,-1
 188 0 l 1,0,-1
EndSplineSet
EndChar

StartChar: X
Encoding: 88 88 59
Width: 582
Flags: W
LayerCount: 2
Fore
SplineSet
35 0 m 1,0,-1
 232 347 l 1,1,-1
 35 682 l 1,2,-1
 130 682 l 1,3,-1
 291 405 l 1,4,-1
 451 682 l 1,5,-1
 546 682 l 1,6,-1
 344 339 l 1,7,-1
 547 0 l 1,8,-1
 450 0 l 1,9,-1
 286 285 l 1,10,-1
 130 0 l 1,11,-1
 35 0 l 1,0,-1
EndSplineSet
EndChar

StartChar: Y
Encoding: 89 89 60
Width: 581
Flags: W
LayerCount: 2
Fore
SplineSet
248 0 m 1,0,-1
 248 248 l 1,1,-1
 30 682 l 1,2,-1
 123 682 l 1,3,-1
 290 351 l 1,4,-1
 458 682 l 1,5,-1
 551 682 l 1,6,-1
 333 248 l 1,7,-1
 333 0 l 1,8,-1
 248 0 l 1,0,-1
EndSplineSet
EndChar

StartChar: Z
Encoding: 90 90 61
Width: 620
Flags: W
LayerCount: 2
Fore
SplineSet
50 0 m 1,0,-1
 50 36 l 1,1,-1
 436 602 l 1,2,-1
 50 602 l 1,3,-1
 50 682 l 1,4,-1
 570 682 l 1,5,-1
 570 648 l 1,6,-1
 181 80 l 1,7,-1
 561 80 l 1,8,-1
 561 0 l 1,9,-1
 50 0 l 1,0,-1
EndSplineSet
EndChar

StartChar: bracketleft
Encoding: 91 91 62
Width: 328
Flags: W
LayerCount: 2
Fore
SplineSet
100 -252 m 1,0,-1
 100 790 l 1,1,-1
 308 790 l 1,2,-1
 308 710 l 1,3,-1
 185 710 l 1,4,-1
 185 -172 l 1,5,-1
 308 -172 l 1,6,-1
 308 -252 l 1,7,-1
 100 -252 l 1,0,-1
EndSplineSet
EndChar

StartChar: backslash
Encoding: 92 92 63
Width: 576
Flags: W
LayerCount: 2
Fore
SplineSet
438 -208 m 1,0,-1
 63 823 l 1,1,-1
 138 849 l 1,2,-1
 513 -182 l 1,3,-1
 438 -208 l 1,0,-1
EndSplineSet
EndChar

StartChar: bracketright
Encoding: 93 93 64
Width: 328
Flags: W
LayerCount: 2
Fore
SplineSet
228 790 m 1,0,-1
 228 -252 l 1,1,-1
 20 -252 l 1,2,-1
 20 -172 l 1,3,-1
 143 -172 l 1,4,-1
 143 710 l 1,5,-1
 20 710 l 1,6,-1
 20 790 l 1,7,-1
 228 790 l 1,0,-1
EndSplineSet
EndChar

StartChar: asciicircum
Encoding: 94 94 65
Width: 666
Flags: W
LayerCount: 2
Fore
SplineSet
100 432 m 1,0,-1
 335 745 l 1,1,-1
 566 432 l 1,2,-1
 481 432 l 1,3,-1
 335 637 l 1,4,-1
 189 432 l 1,5,-1
 100 432 l 1,0,-1
EndSplineSet
EndChar

StartChar: underscore
Encoding: 95 95 66
Width: 641
Flags: W
LayerCount: 2
Fore
SplineSet
100 -126 m 1,0,-1
 100 -66 l 1,1,-1
 541 -66 l 1,2,-1
 541 -126 l 1,3,-1
 100 -126 l 1,0,-1
EndSplineSet
EndChar

StartChar: grave
Encoding: 96 96 67
Width: 424
Flags: W
LayerCount: 2
Fore
SplineSet
290 601 m 1,0,-1
 100 710 l 1,1,-1
 152 771 l 1,2,-1
 324 646 l 1,3,-1
 290 601 l 1,0,-1
EndSplineSet
EndChar

StartChar: a
Encoding: 97 97 68
Width: 563
Flags: W
LayerCount: 2
Fore
SplineSet
387 117 m 1,0,-1
 387 231 l 1,1,2
 318 228 318 228 282 223 c 0,3,4
 211 214 211 214 180.5 191.5 c 128,-1,5
 150 169 150 169 150 131 c 0,6,7
 150 57 150 57 228.5 57 c 128,-1,8
 307 57 307 57 387 117 c 1,0,-1
396 -8 m 1,9,-1
 386 47 l 1,10,11
 283 -13 283 -13 211 -13 c 0,12,13
 65 -13 65 -13 65 127 c 0,14,15
 65 199 65 199 132 239.5 c 128,-1,16
 199 280 199 280 295 288 c 1,17,-1
 387 294 l 1,18,19
 387 336 387 336 384.5 358 c 128,-1,20
 382 380 382 380 373 402.5 c 128,-1,21
 364 425 364 425 343.5 434 c 128,-1,22
 323 443 323 443 288 443 c 0,23,24
 215 443 215 443 158 426 c 1,25,-1
 138 421 l 1,26,-1
 122 490 l 1,27,28
 206 513 206 513 305 513 c 0,29,30
 402 513 402 513 437 457 c 0,31,32
 467 409 467 409 467 331 c 2,33,-1
 467 91 l 1,34,-1
 473 0 l 1,35,-1
 396 -8 l 1,9,-1
EndSplineSet
EndChar

StartChar: b
Encoding: 98 98 69
Width: 597
Flags: W
LayerCount: 2
Fore
SplineSet
100 30 m 1,0,-1
 100 749 l 1,1,-1
 180 758 l 1,2,-1
 180 460 l 1,3,4
 256 513 256 513 321 513 c 0,5,6
 409 513 409 513 465.5 446 c 128,-1,7
 522 379 522 379 522 252 c 0,8,9
 522 181 522 181 501.5 128 c 128,-1,10
 481 75 481 75 446 46 c 0,11,12
 377 -13 377 -13 278 -13 c 0,13,14
 224 -13 224 -13 180 -2.5 c 128,-1,15
 136 8 136 8 118 19 c 2,16,-1
 100 30 l 1,0,-1
180 388 m 1,17,-1
 180 74 l 1,18,19
 226 57 226 57 278 57 c 0,20,21
 366 57 366 57 401.5 105 c 128,-1,22
 437 153 437 153 437 239 c 128,-1,23
 437 325 437 325 404 384 c 128,-1,24
 371 443 371 443 312 443 c 0,25,26
 288 443 288 443 255 429.5 c 128,-1,27
 222 416 222 416 201 402 c 2,28,-1
 180 388 l 1,17,-1
EndSplineSet
EndChar

StartChar: c
Encoding: 99 99 70
Width: 500
Flags: W
LayerCount: 2
Fore
SplineSet
430 497 m 1,0,-1
 414 430 l 1,1,2
 358 443 358 443 310.5 443 c 128,-1,3
 263 443 263 443 233 425.5 c 128,-1,4
 203 408 203 408 188 378 c 0,5,6
 160 322 160 322 160 236.5 c 128,-1,7
 160 151 160 151 204.5 104 c 128,-1,8
 249 57 249 57 316 57 c 0,9,10
 364 57 364 57 410 70 c 2,11,-1
 424 74 l 1,12,-1
 440 7 l 1,13,14
 380 -13 380 -13 306 -13 c 0,15,16
 192 -13 192 -13 133.5 48.5 c 128,-1,17
 75 110 75 110 75 245.5 c 128,-1,18
 75 381 75 381 141.5 447 c 128,-1,19
 208 513 208 513 306 513 c 0,20,21
 366 513 366 513 414 501 c 2,22,-1
 430 497 l 1,0,-1
EndSplineSet
EndChar

StartChar: d
Encoding: 100 100 71
Width: 596
Flags: W
LayerCount: 2
Fore
SplineSet
416 110 m 1,0,-1
 416 428 l 1,1,2
 375 443 375 443 319 443 c 0,3,4
 240 443 240 443 200 389.5 c 128,-1,5
 160 336 160 336 160 255.5 c 128,-1,6
 160 175 160 175 193 116 c 128,-1,7
 226 57 226 57 285 57 c 0,8,9
 311 57 311 57 343.5 70.5 c 128,-1,10
 376 84 376 84 396 97 c 2,11,-1
 416 110 l 1,0,-1
425 -8 m 1,12,-1
 417 40 l 1,13,14
 341 -13 341 -13 276 -13 c 0,15,16
 181 -13 181 -13 128 54.5 c 128,-1,17
 75 122 75 122 75 248 c 0,18,19
 75 306 75 306 91.5 353 c 128,-1,20
 108 400 108 400 133.5 429 c 128,-1,21
 159 458 159 458 192 478 c 0,22,23
 252 513 252 513 319 513 c 0,24,25
 363 513 363 513 402 502 c 2,26,-1
 416 498 l 1,27,-1
 416 749 l 1,28,-1
 496 758 l 1,29,-1
 496 91 l 1,30,-1
 502 0 l 1,31,-1
 425 -8 l 1,12,-1
EndSplineSet
EndChar

StartChar: e
Encoding: 101 101 72
Width: 580
Flags: W
LayerCount: 2
Fore
SplineSet
460 79 m 1,0,-1
 475 12 l 1,1,2
 399 -13 399 -13 312 -13 c 0,3,4
 204 -13 204 -13 139.5 49.5 c 128,-1,5
 75 112 75 112 75 243 c 128,-1,6
 75 374 75 374 140.5 443.5 c 128,-1,7
 206 513 206 513 304 513 c 128,-1,8
 402 513 402 513 451 445.5 c 128,-1,9
 500 378 500 378 500 275 c 1,10,-1
 485 231 l 1,11,-1
 162 231 l 1,12,13
 162 159 162 159 201.5 108 c 128,-1,14
 241 57 241 57 327 57 c 0,15,16
 402 57 402 57 445 74 c 1,17,-1
 460 79 l 1,0,-1
165 295 m 1,18,-1
 417 295 l 1,19,20
 417 325 417 325 400 375 c 0,21,22
 391 404 391 404 366 423.5 c 128,-1,23
 341 443 341 443 303.5 443 c 128,-1,24
 266 443 266 443 236.5 426 c 128,-1,25
 207 409 207 409 192 384 c 1,26,27
 165 335 165 335 165 295 c 1,18,-1
EndSplineSet
EndChar

StartChar: f
Encoding: 102 102 73
Width: 426
Flags: W
LayerCount: 2
Fore
SplineSet
143 0 m 1,0,-1
 143 438 l 1,1,-1
 50 438 l 1,2,-1
 50 503 l 1,3,-1
 143 503 l 1,4,5
 143 642 143 642 183 700 c 128,-1,6
 223 758 223 758 317 758 c 0,7,8
 392 758 392 758 441 715 c 1,9,-1
 406 655 l 1,10,11
 363 688 363 688 318 688 c 0,12,13
 269 688 269 688 246 654 c 1,14,15
 223 618 223 618 223 503 c 1,16,-1
 348 503 l 1,17,-1
 348 438 l 1,18,-1
 223 438 l 1,19,-1
 223 0 l 1,20,-1
 143 0 l 1,0,-1
EndSplineSet
EndChar

StartChar: g
Encoding: 103 103 74
Width: 596
Flags: W
LayerCount: 2
Fore
SplineSet
496 491 m 1,0,-1
 496 -48 l 2,1,2
 496 -189 496 -189 394 -227 c 0,3,4
 351 -243 351 -243 296 -243 c 0,5,6
 196 -243 196 -243 127 -218 c 1,7,-1
 105 -209 l 1,8,-1
 126 -139 l 1,9,10
 202 -174 202 -174 276.5 -174 c 128,-1,11
 351 -174 351 -174 384 -142 c 128,-1,12
 417 -110 417 -110 417 -33 c 2,13,-1
 417 40 l 1,14,15
 341 -13 341 -13 276 -13 c 0,16,17
 181 -13 181 -13 128 53.5 c 128,-1,18
 75 120 75 120 75 248 c 0,19,20
 75 319 75 319 98 373 c 128,-1,21
 121 427 121 427 158 456 c 0,22,23
 232 513 232 513 319 513 c 0,24,25
 359 513 359 513 424 502.5 c 128,-1,26
 489 492 489 492 496 491 c 1,0,-1
285 57 m 0,27,28
 311 57 311 57 344 70.5 c 128,-1,29
 377 84 377 84 397 97 c 2,30,-1
 417 110 l 1,31,-1
 417 429 l 1,32,33
 374 443 374 443 319 443 c 0,34,35
 240 443 240 443 200 389.5 c 128,-1,36
 160 336 160 336 160 255.5 c 128,-1,37
 160 175 160 175 193 116 c 128,-1,38
 226 57 226 57 285 57 c 0,27,28
EndSplineSet
EndChar

StartChar: h
Encoding: 104 104 75
Width: 600
Flags: W
LayerCount: 2
Fore
SplineSet
100 0 m 1,0,-1
 100 749 l 1,1,-1
 180 758 l 1,2,-1
 180 440 l 1,3,4
 223 468 223 468 275 490.5 c 128,-1,5
 327 513 327 513 360 513 c 0,6,7
 442 513 442 513 473.5 472 c 128,-1,8
 505 431 505 431 505 324 c 2,9,-1
 505 0 l 1,10,-1
 425 0 l 1,11,-1
 425 315 l 2,12,13
 425 403 425 403 408 422 c 0,14,15
 390 443 390 443 354 443 c 128,-1,16
 318 443 318 443 276 424.5 c 128,-1,17
 234 406 234 406 207 388 c 2,18,-1
 180 370 l 1,19,-1
 180 0 l 1,20,-1
 100 0 l 1,0,-1
EndSplineSet
EndChar

StartChar: i
Encoding: 105 105 76
Width: 280
Flags: W
LayerCount: 2
Fore
SplineSet
100 0 m 1,0,-1
 100 504 l 1,1,-1
 180 513 l 1,2,-1
 180 0 l 1,3,-1
 100 0 l 1,0,-1
87 647 m 128,-1,5
 87 670 87 670 102.5 685.5 c 128,-1,6
 118 701 118 701 141.5 701 c 128,-1,7
 165 701 165 701 181.5 685.5 c 128,-1,8
 198 670 198 670 198 647 c 128,-1,9
 198 624 198 624 181.5 608.5 c 128,-1,10
 165 593 165 593 141.5 593 c 128,-1,11
 118 593 118 593 102.5 608.5 c 128,-1,4
 87 624 87 624 87 647 c 128,-1,5
EndSplineSet
EndChar

StartChar: j
Encoding: 106 106 77
Width: 317
Flags: W
LayerCount: 2
Fore
SplineSet
122 502 m 1,0,-1
 202 514 l 1,1,-1
 202 9 l 2,2,3
 202 -80 202 -80 169 -139 c 128,-1,4
 136 -198 136 -198 66 -238 c 1,5,-1
 25 -167 l 1,6,7
 122 -111 122 -111 122 20 c 2,8,-1
 122 502 l 1,0,-1
106 647 m 128,-1,10
 106 670 106 670 122 685.5 c 128,-1,11
 138 701 138 701 161 701 c 128,-1,12
 184 701 184 701 200.5 685.5 c 128,-1,13
 217 670 217 670 217 647 c 128,-1,14
 217 624 217 624 200.5 608.5 c 128,-1,15
 184 593 184 593 160.5 593 c 128,-1,16
 137 593 137 593 121.5 608.5 c 128,-1,9
 106 624 106 624 106 647 c 128,-1,10
EndSplineSet
EndChar

StartChar: k
Encoding: 107 107 78
Width: 546
Flags: W
LayerCount: 2
Fore
SplineSet
100 0 m 1,0,-1
 100 749 l 1,1,-1
 180 758 l 1,2,-1
 180 307 l 1,3,-1
 403 503 l 1,4,-1
 513 503 l 1,5,-1
 295 312 l 1,6,-1
 521 0 l 1,7,-1
 420 0 l 1,8,-1
 236 261 l 1,9,-1
 180 212 l 1,10,-1
 180 0 l 1,11,-1
 100 0 l 1,0,-1
EndSplineSet
EndChar

StartChar: l
Encoding: 108 108 79
Width: 280
Flags: W
LayerCount: 2
Fore
SplineSet
100 0 m 1,0,-1
 100 749 l 1,1,-1
 180 758 l 1,2,-1
 180 0 l 1,3,-1
 100 0 l 1,0,-1
EndSplineSet
EndChar

StartChar: m
Encoding: 109 109 80
Width: 885
Flags: W
LayerCount: 2
Fore
SplineSet
100 0 m 1,0,-1
 100 412 l 1,1,-1
 94 494 l 1,2,-1
 169 504 l 1,3,-1
 180 441 l 1,4,5
 215 469 215 469 264.5 491 c 128,-1,6
 314 513 314 513 357 513 c 0,7,8
 448 513 448 513 472 436 c 1,9,10
 581 513 581 513 653 513 c 128,-1,11
 725 513 725 513 755 471.5 c 128,-1,12
 785 430 785 430 785 324 c 2,13,-1
 785 0 l 1,14,-1
 705 0 l 1,15,-1
 705 315 l 2,16,17
 705 404 705 404 691 422 c 1,18,19
 673 443 673 443 641.5 443 c 128,-1,20
 610 443 610 443 579.5 430 c 128,-1,21
 549 417 549 417 531 404.5 c 128,-1,22
 513 392 513 392 485 369 c 1,23,-1
 485 0 l 1,24,-1
 405 0 l 1,25,-1
 405 315 l 2,26,27
 405 404 405 404 391 422 c 1,28,29
 373 443 373 443 340.5 443 c 128,-1,30
 308 443 308 443 268 425 c 128,-1,31
 228 407 228 407 204 389 c 2,32,-1
 180 371 l 1,33,-1
 180 0 l 1,34,-1
 100 0 l 1,0,-1
EndSplineSet
EndChar

StartChar: n
Encoding: 110 110 81
Width: 605
Flags: W
LayerCount: 2
Fore
SplineSet
100 0 m 1,0,-1
 100 403 l 1,1,-1
 95 494 l 1,2,-1
 169 504 l 1,3,-1
 180 440 l 1,4,5
 223 468 223 468 275 490.5 c 128,-1,6
 327 513 327 513 360 513 c 0,7,8
 442 513 442 513 473.5 472 c 128,-1,9
 505 431 505 431 505 324 c 2,10,-1
 505 0 l 1,11,-1
 425 0 l 1,12,-1
 425 315 l 2,13,14
 425 403 425 403 408 422 c 0,15,16
 390 443 390 443 354 443 c 128,-1,17
 318 443 318 443 276 424.5 c 128,-1,18
 234 406 234 406 207 388 c 2,19,-1
 180 370 l 1,20,-1
 180 0 l 1,21,-1
 100 0 l 1,0,-1
EndSplineSet
EndChar

StartChar: o
Encoding: 111 111 82
Width: 636
Flags: W
LayerCount: 2
Fore
SplineSet
160 249 m 0,0,1
 160 154 160 154 203 105.5 c 128,-1,2
 246 57 246 57 320.5 57 c 128,-1,3
 395 57 395 57 435.5 105 c 128,-1,4
 476 153 476 153 476 247.5 c 128,-1,5
 476 342 476 342 433 392.5 c 128,-1,6
 390 443 390 443 314 443 c 0,7,8
 160 443 160 443 160 249 c 0,0,1
97.5 122 m 128,-1,10
 75 176 75 176 75 242 c 128,-1,11
 75 308 75 308 91 355 c 128,-1,12
 107 402 107 402 132 430.5 c 128,-1,13
 157 459 157 459 190 478 c 0,14,15
 250 513 250 513 320 513 c 0,16,17
 403 513 403 513 476 461 c 0,18,19
 514 434 514 434 537.5 381 c 128,-1,20
 561 328 561 328 561 254.5 c 128,-1,21
 561 181 561 181 537 126 c 128,-1,22
 513 71 513 71 474 42 c 0,23,24
 400 -13 400 -13 315 -13 c 0,25,26
 228 -13 228 -13 158 40 c 0,27,9
 120 68 120 68 97.5 122 c 128,-1,10
EndSplineSet
EndChar

StartChar: p
Encoding: 112 112 83
Width: 597
Flags: W
LayerCount: 2
Fore
SplineSet
100 -228 m 1,0,-1
 100 387 l 1,1,-1
 95 494 l 1,2,-1
 169 504 l 1,3,-1
 178 450 l 1,4,5
 186 457 186 457 199 467.5 c 128,-1,6
 212 478 212 478 250 495.5 c 128,-1,7
 288 513 288 513 321 513 c 0,8,9
 411 513 411 513 466.5 450 c 128,-1,10
 522 387 522 387 522 252 c 128,-1,11
 522 117 522 117 450.5 52 c 128,-1,12
 379 -13 379 -13 278 -13 c 0,13,14
 240 -13 240 -13 195 -4 c 2,15,-1
 180 -1 l 1,16,-1
 180 -218 l 1,17,-1
 100 -228 l 1,0,-1
278 57 m 0,18,19
 357 57 357 57 397 110.5 c 128,-1,20
 437 164 437 164 437 246.5 c 128,-1,21
 437 329 437 329 407 386 c 128,-1,22
 377 443 377 443 312 443 c 0,23,24
 282 443 282 443 249 427.5 c 128,-1,25
 216 412 216 412 198 396 c 2,26,-1
 180 380 l 1,27,-1
 180 73 l 1,28,29
 217 57 217 57 278 57 c 0,18,19
EndSplineSet
EndChar

StartChar: q
Encoding: 113 113 84
Width: 596
Flags: W
LayerCount: 2
Fore
SplineSet
417 -229 m 1,0,-1
 417 40 l 1,1,2
 341 -13 341 -13 276 -13 c 0,3,4
 186 -13 186 -13 130.5 50 c 128,-1,5
 75 113 75 113 75 248 c 0,6,7
 75 313 75 313 97.5 365.5 c 128,-1,8
 120 418 120 418 156 449 c 0,9,10
 230 513 230 513 319 513 c 0,11,12
 375 513 375 513 423 499 c 128,-1,13
 471 485 471 485 496 485 c 1,14,-1
 496 -219 l 1,15,-1
 417 -229 l 1,0,-1
285 57 m 0,16,17
 311 57 311 57 344 70.5 c 128,-1,18
 377 84 377 84 397 97 c 2,19,-1
 417 110 l 1,20,-1
 417 429 l 1,21,22
 392 443 392 443 316 443 c 128,-1,23
 240 443 240 443 200 389.5 c 128,-1,24
 160 336 160 336 160 255.5 c 128,-1,25
 160 175 160 175 193 116 c 128,-1,26
 226 57 226 57 285 57 c 0,16,17
EndSplineSet
EndChar

StartChar: r
Encoding: 114 114 85
Width: 383
Flags: W
LayerCount: 2
Fore
SplineSet
100 0 m 1,0,-1
 100 422 l 1,1,-1
 95 494 l 1,2,-1
 169 504 l 1,3,-1
 177 431 l 1,4,-1
 178 431 l 1,5,6
 185 440 185 440 196 453.5 c 128,-1,7
 207 467 207 467 235.5 490 c 128,-1,8
 264 513 264 513 284 513 c 1,9,-1
 348 508 l 1,10,-1
 330 431 l 1,11,12
 301 436 301 436 282.5 436 c 128,-1,13
 264 436 264 436 238 411 c 128,-1,14
 212 386 212 386 196 361 c 2,15,-1
 180 336 l 1,16,-1
 180 0 l 1,17,-1
 100 0 l 1,0,-1
EndSplineSet
EndChar

StartChar: s
Encoding: 115 115 86
Width: 470
Flags: W
LayerCount: 2
Fore
SplineSet
382 492 m 1,0,-1
 368 421 l 1,1,2
 307 443 307 443 234 443 c 0,3,4
 199 443 199 443 175.5 426 c 128,-1,5
 152 409 152 409 152 383.5 c 128,-1,6
 152 358 152 358 178 337 c 128,-1,7
 204 316 204 316 241 299 c 128,-1,8
 278 282 278 282 315.5 261.5 c 128,-1,9
 353 241 353 241 379 207.5 c 128,-1,10
 405 174 405 174 405 126 c 128,-1,11
 405 78 405 78 373.5 44 c 128,-1,12
 342 10 342 10 303.5 -1.5 c 128,-1,13
 265 -13 265 -13 222 -13 c 0,14,15
 128 -13 128 -13 83 2 c 2,16,-1
 65 8 l 1,17,-1
 80 80 l 1,18,19
 159 57 159 57 210.5 57 c 128,-1,20
 262 57 262 57 291.5 73.5 c 128,-1,21
 321 90 321 90 321 120 c 128,-1,22
 321 150 321 150 295 173.5 c 128,-1,23
 269 197 269 197 231.5 214.5 c 128,-1,24
 194 232 194 232 156.5 252.5 c 128,-1,25
 119 273 119 273 93 307.5 c 128,-1,26
 67 342 67 342 67 393 c 128,-1,27
 67 444 67 444 119.5 478.5 c 128,-1,28
 172 513 172 513 234 513 c 0,29,30
 298 513 298 513 362 497 c 2,31,-1
 382 492 l 1,0,-1
EndSplineSet
EndChar

StartChar: t
Encoding: 116 116 87
Width: 419
Flags: W
LayerCount: 2
Fore
SplineSet
142 643 m 1,0,-1
 222 653 l 1,1,-1
 222 503 l 1,2,-1
 367 503 l 1,3,-1
 367 438 l 1,4,-1
 222 438 l 1,5,-1
 222 171 l 2,6,7
 222 103 222 103 230.5 80 c 128,-1,8
 239 57 239 57 262 57 c 0,9,10
 303 57 303 57 342 78 c 2,11,-1
 355 85 l 1,12,-1
 379 24 l 1,13,14
 332 -13 332 -13 264 -13 c 128,-1,15
 196 -13 196 -13 169 24 c 128,-1,16
 142 61 142 61 142 149 c 2,17,-1
 142 438 l 1,18,-1
 50 438 l 1,19,-1
 50 503 l 1,20,-1
 142 503 l 1,21,-1
 142 643 l 1,0,-1
EndSplineSet
EndChar

StartChar: u
Encoding: 117 117 88
Width: 579
Flags: W
LayerCount: 2
Fore
SplineSet
410 -8 m 1,0,-1
 404 55 l 1,1,-1
 402 55 l 1,2,3
 316 -13 316 -13 238 -13 c 128,-1,4
 160 -13 160 -13 130 28.5 c 128,-1,5
 100 70 100 70 100 176 c 2,6,-1
 100 503 l 1,7,-1
 180 503 l 1,8,-1
 180 188 l 2,9,10
 180 96 180 96 194 80 c 0,11,12
 213 57 213 57 245 57 c 128,-1,13
 277 57 277 57 316.5 75 c 128,-1,14
 356 93 356 93 380 111 c 2,15,-1
 404 129 l 1,16,-1
 404 503 l 1,17,-1
 484 503 l 1,18,-1
 484 65 l 1,19,-1
 489 0 l 1,20,-1
 410 -8 l 1,0,-1
EndSplineSet
EndChar

StartChar: v
Encoding: 118 118 89
Width: 530
Flags: W
LayerCount: 2
Fore
SplineSet
215 0 m 1,0,-1
 30 503 l 1,1,-1
 118 503 l 1,2,-1
 240 148 l 1,3,-1
 262 69 l 1,4,-1
 263 69 l 1,5,-1
 286 148 l 1,6,-1
 416 503 l 1,7,-1
 500 503 l 1,8,-1
 305 0 l 1,9,-1
 215 0 l 1,0,-1
EndSplineSet
EndChar

StartChar: w
Encoding: 119 119 90
Width: 779
Flags: W
LayerCount: 2
Fore
SplineSet
166 0 m 1,0,-1
 30 503 l 1,1,-1
 114 503 l 1,2,-1
 173 276 l 2,3,4
 187 223 187 223 208 118 c 1,5,-1
 213 89 l 1,6,-1
 214 89 l 1,7,8
 241 199 241 199 265 276 c 2,9,-1
 336 503 l 1,10,-1
 443 503 l 1,11,-1
 500 276 l 1,12,-1
 539 89 l 1,13,-1
 540 89 l 1,14,15
 573 202 573 202 596 276 c 2,16,-1
 666 503 l 1,17,-1
 749 503 l 1,18,-1
 584 0 l 1,19,-1
 495 0 l 1,20,-1
 423 276 l 1,21,-1
 386 440 l 1,22,-1
 384 440 l 1,23,24
 371 377 371 377 340 276 c 2,25,-1
 255 0 l 1,26,-1
 166 0 l 1,0,-1
EndSplineSet
EndChar

StartChar: x
Encoding: 120 120 91
Width: 567
Flags: W
LayerCount: 2
Fore
SplineSet
35 0 m 1,0,-1
 226 264 l 1,1,-1
 40 503 l 1,2,-1
 134 503 l 1,3,-1
 281 317 l 1,4,-1
 420 503 l 1,5,-1
 510 503 l 1,6,-1
 335 267 l 1,7,-1
 527 0 l 1,8,-1
 433 0 l 1,9,-1
 280 213 l 1,10,-1
 125 0 l 1,11,-1
 35 0 l 1,0,-1
EndSplineSet
EndChar

StartChar: y
Encoding: 121 121 92
Width: 542
Flags: W
LayerCount: 2
Fore
SplineSet
231 13 m 1,0,-1
 30 503 l 1,1,-1
 115 503 l 1,2,-1
 209 276 l 2,3,4
 246 187 246 187 266 118 c 2,5,-1
 274 91 l 1,6,-1
 275 91 l 1,7,8
 307 189 307 189 341 276 c 2,9,-1
 428 503 l 1,10,-1
 512 503 l 1,11,-1
 274 -97 l 2,12,13
 257 -140 257 -140 223.5 -177 c 128,-1,14
 190 -214 190 -214 166 -228 c 2,15,-1
 142 -242 l 1,16,-1
 103 -173 l 1,17,18
 131 -159 131 -159 160 -130 c 128,-1,19
 189 -101 189 -101 200 -69 c 1,20,-1
 231 13 l 1,0,-1
EndSplineSet
EndChar

StartChar: z
Encoding: 122 122 93
Width: 495
Flags: W
LayerCount: 2
Fore
SplineSet
45 0 m 1,0,-1
 45 31 l 1,1,-1
 332 441 l 1,2,3
 291 437 291 437 233 437 c 2,4,-1
 70 437 l 1,5,-1
 70 503 l 1,6,-1
 445 503 l 1,7,-1
 445 468 l 1,8,-1
 163 63 l 1,9,10
 205 66 205 66 234 66 c 2,11,-1
 444 66 l 1,12,-1
 444 0 l 1,13,-1
 45 0 l 1,0,-1
EndSplineSet
EndChar

StartChar: braceleft
Encoding: 123 123 94
Width: 395
Flags: W
LayerCount: 2
Fore
SplineSet
166 -72 m 1,0,-1
 173 130 l 1,1,2
 173 190 173 190 140 216 c 0,3,4
 118 233 118 233 80 250 c 1,5,-1
 80 325 l 1,6,7
 107 336 107 336 118 341.5 c 128,-1,8
 129 347 129 347 145 362 c 0,9,10
 173 387 173 387 173 455 c 1,11,12
 173 455 173 455 166 657 c 1,13,14
 166 689 166 689 183.5 715.5 c 128,-1,15
 201 742 201 742 230 758 c 1,16,17
 279 787 279 787 341 802 c 1,18,-1
 355 732 l 1,19,20
 310 721 310 721 289 707 c 0,21,22
 245 678 245 678 245 640 c 1,23,-1
 252 449 l 1,24,25
 252 310 252 310 169 287 c 1,26,27
 215 274 215 274 233.5 237 c 128,-1,28
 252 200 252 200 252 136 c 1,29,-1
 245 -55 l 1,30,31
 245 -94 245 -94 284 -118 c 0,32,33
 319 -140 319 -140 344 -144 c 1,34,-1
 355 -147 l 1,35,-1
 341 -217 l 1,36,37
 166 -175 166 -175 166 -72 c 1,0,-1
EndSplineSet
EndChar

StartChar: bar
Encoding: 124 124 95
Width: 280
Flags: W
LayerCount: 2
Fore
SplineSet
100 -228 m 1,0,-1
 100 758 l 1,1,-1
 180 758 l 1,2,-1
 180 -228 l 1,3,-1
 100 -228 l 1,0,-1
EndSplineSet
EndChar

StartChar: braceright
Encoding: 125 125 96
Width: 395
Flags: W
LayerCount: 2
Fore
SplineSet
229 657 m 1,0,-1
 222 455 l 1,1,2
 222 387 222 387 250 362 c 0,3,4
 266 347 266 347 277 341.5 c 128,-1,5
 288 336 288 336 315 325 c 1,6,-1
 315 250 l 1,7,8
 277 233 277 233 257 217 c 0,9,10
 222 190 222 190 222 130 c 1,11,-1
 229 -72 l 1,12,13
 229 -104 229 -104 211.5 -130.5 c 128,-1,14
 194 -157 194 -157 166 -174 c 1,15,16
 116 -202 116 -202 54 -217 c 1,17,-1
 40 -147 l 1,18,19
 85 -136 85 -136 106 -122 c 0,20,21
 150 -93 150 -93 150 -55 c 1,22,-1
 143 136 l 1,23,24
 143 200 143 200 161.5 237 c 128,-1,25
 180 274 180 274 226 287 c 1,26,27
 143 310 143 310 143 449 c 1,28,-1
 150 640 l 1,29,30
 150 679 150 679 111 703 c 0,31,32
 74 726 74 726 52 730 c 2,33,-1
 40 732 l 1,34,-1
 54 802 l 1,35,36
 229 760 229 760 229 657 c 1,0,-1
EndSplineSet
EndChar

StartChar: asciitilde
Encoding: 126 126 97
Width: 658
Flags: W
LayerCount: 2
Fore
SplineSet
524 338 m 1,0,-1
 560 282 l 1,1,2
 538 264 538 264 526 255.5 c 128,-1,3
 514 247 514 247 490 237.5 c 128,-1,4
 466 228 466 228 433.5 228 c 128,-1,5
 401 228 401 228 337 256.5 c 128,-1,6
 273 285 273 285 233 285 c 0,7,8
 208 285 208 285 186 272.5 c 128,-1,9
 164 260 164 260 135 242 c 1,10,-1
 101 299 l 1,11,12
 180 355 180 355 226.5 355 c 128,-1,13
 273 355 273 355 337 326.5 c 128,-1,14
 401 298 401 298 437 298 c 128,-1,15
 473 298 473 298 524 338 c 1,0,-1
EndSplineSet
EndChar

StartChar: exclamdown
Encoding: 161 161 98
Width: 341
Flags: W
LayerCount: 2
Fore
SplineSet
109 -231 m 1,0,-1
 129 315 l 1,1,-1
 194 315 l 1,2,-1
 211 -242 l 1,3,-1
 109 -231 l 1,0,-1
117 392.5 m 128,-1,5
 100 410 100 410 100 434.5 c 128,-1,6
 100 459 100 459 117 476 c 128,-1,7
 134 493 134 493 159.5 493 c 128,-1,8
 185 493 185 493 203 476 c 128,-1,9
 221 459 221 459 221 434.5 c 128,-1,10
 221 410 221 410 202.5 392.5 c 128,-1,11
 184 375 184 375 159 375 c 128,-1,4
 134 375 134 375 117 392.5 c 128,-1,5
EndSplineSet
EndChar

StartChar: cent
Encoding: 162 162 99
Width: 518
Flags: W
LayerCount: 2
Fore
SplineSet
250 -20 m 1,0,-1
 250 102 l 1,1,2
 160 107 160 107 117.5 159.5 c 128,-1,3
 75 212 75 212 75 322.5 c 128,-1,4
 75 433 75 433 125.5 494 c 128,-1,5
 176 555 176 555 250 565 c 1,6,-1
 250 682 l 1,7,-1
 330 682 l 1,8,-1
 330 564 l 1,9,10
 389 557 389 557 418 548 c 2,11,-1
 431 544 l 1,12,-1
 415 477 l 1,13,14
 348 498 348 498 296 498 c 128,-1,15
 244 498 244 498 221.5 486.5 c 128,-1,16
 199 475 199 475 187.5 459.5 c 128,-1,17
 176 444 176 444 170 419 c 0,18,19
 160 382 160 382 160 332 c 0,20,21
 160 243 160 243 189 207 c 128,-1,22
 218 171 218 171 293 171 c 0,23,24
 350 171 350 171 404 189 c 2,25,-1
 422 195 l 1,26,-1
 438 128 l 1,27,28
 397 111 397 111 330 104 c 1,29,-1
 330 -20 l 1,30,-1
 250 -20 l 1,0,-1
EndSplineSet
EndChar

StartChar: sterling
Encoding: 163 163 100
Width: 657
Flags: W
LayerCount: 2
Fore
SplineSet
110 -13 m 1,0,-1
 100 59 l 1,1,-1
 188 74 l 1,2,-1
 171 307 l 1,3,-1
 112 301 l 1,4,-1
 105 372 l 1,5,-1
 166 380 l 1,6,-1
 157 509 l 2,7,8
 156 517 156 517 156 525 c 0,9,10
 156 596 156 596 209 643.5 c 128,-1,11
 262 691 262 691 370 691 c 0,12,13
 452 691 452 691 522 672 c 1,14,-1
 543 665 l 1,15,-1
 522 597 l 1,16,17
 448 621 448 621 376.5 621 c 128,-1,18
 305 621 305 621 273 595.5 c 128,-1,19
 241 570 241 570 241 515 c 0,20,21
 241 507 241 507 242 498 c 2,22,-1
 250 387 l 1,23,-1
 488 387 l 1,24,-1
 488 312 l 1,25,-1
 255 312 l 1,26,-1
 273 80 l 1,27,-1
 557 80 l 1,28,-1
 557 0 l 1,29,-1
 242 0 l 2,30,31
 184 0 184 0 131 -10 c 1,32,-1
 110 -13 l 1,0,-1
EndSplineSet
EndChar

StartChar: currency
Encoding: 164 164 101
Width: 646
Flags: W
LayerCount: 2
Fore
SplineSet
515 -14 m 1,0,-1
 446 67 l 1,1,2
 396 26 396 26 327.5 26 c 128,-1,3
 259 26 259 26 208 68 c 1,4,-1
 139 -14 l 1,5,-1
 100 19 l 1,6,-1
 172 105 l 1,7,8
 126 167 126 167 126 250 c 128,-1,9
 126 333 126 333 172 395 c 1,10,-1
 100 481 l 1,11,-1
 139 514 l 1,12,-1
 208 432 l 1,13,14
 260 475 260 475 327 475 c 128,-1,15
 394 475 394 475 447 433 c 1,16,-1
 515 514 l 1,17,-1
 554 481 l 1,18,-1
 482 396 l 1,19,20
 530 332 530 332 530 250.5 c 128,-1,21
 530 169 530 169 481 104 c 1,22,-1
 554 19 l 1,23,-1
 515 -14 l 1,0,-1
230.5 366 m 128,-1,25
 190 320 190 320 190 250.5 c 128,-1,26
 190 181 190 181 230.5 135 c 128,-1,27
 271 89 271 89 328.5 89 c 128,-1,28
 386 89 386 89 426 135 c 128,-1,29
 466 181 466 181 466 250.5 c 128,-1,30
 466 320 466 320 426 366 c 128,-1,31
 386 412 386 412 328.5 412 c 128,-1,24
 271 412 271 412 230.5 366 c 128,-1,25
EndSplineSet
EndChar

StartChar: yen
Encoding: 165 165 102
Width: 581
Flags: W
LayerCount: 2
Fore
SplineSet
248 0 m 1,0,-1
 248 107 l 1,1,-1
 50 107 l 1,2,-1
 50 177 l 1,3,-1
 248 177 l 1,4,-1
 248 258 l 1,5,-1
 50 258 l 1,6,-1
 50 328 l 1,7,-1
 208 328 l 1,8,-1
 30 682 l 1,9,-1
 125 682 l 1,10,-1
 290 356 l 1,11,-1
 456 682 l 1,12,-1
 551 682 l 1,13,-1
 373 328 l 1,14,-1
 531 328 l 1,15,-1
 531 258 l 1,16,-1
 333 258 l 1,17,-1
 333 177 l 1,18,-1
 531 177 l 1,19,-1
 531 107 l 1,20,-1
 333 107 l 1,21,-1
 333 0 l 1,22,-1
 248 0 l 1,0,-1
EndSplineSet
EndChar

StartChar: brokenbar
Encoding: 166 166 103
Width: 270
Flags: W
LayerCount: 2
Fore
SplineSet
100 0 m 1,0,-1
 100 306 l 1,1,-1
 170 306 l 1,2,-1
 170 0 l 1,3,-1
 100 0 l 1,0,-1
100 376 m 1,4,-1
 100 682 l 1,5,-1
 170 682 l 1,6,-1
 170 376 l 1,7,-1
 100 376 l 1,4,-1
EndSplineSet
EndChar

StartChar: section
Encoding: 167 167 104
Width: 565
Flags: W
LayerCount: 2
Fore
SplineSet
448 675 m 1,0,1
 373 691 373 691 294.5 691 c 128,-1,2
 216 691 216 691 183 668 c 128,-1,3
 150 645 150 645 150 602 c 128,-1,4
 150 559 150 559 186.5 528.5 c 128,-1,5
 223 498 223 498 275 475 c 128,-1,6
 327 452 327 452 379.5 426.5 c 128,-1,7
 432 401 432 401 468.5 359 c 128,-1,8
 505 317 505 317 505 261 c 0,9,10
 505 163 505 163 407 94 c 1,11,12
 505 33 505 33 505 -58 c 0,13,14
 505 -114 505 -114 478 -153 c 128,-1,15
 451 -192 451 -192 407 -210 c 0,16,17
 326 -243 326 -243 241 -243 c 0,18,19
 194 -243 194 -243 149 -235 c 128,-1,20
 104 -227 104 -227 82 -219 c 2,21,-1
 60 -211 l 1,22,-1
 80 -130 l 1,23,24
 157 -163 157 -163 241 -163 c 0,25,26
 420 -163 420 -163 420 -69 c 0,27,28
 420 2 420 2 295 56 c 0,29,30
 243 79 243 79 190.5 104.5 c 128,-1,31
 138 130 138 130 101.5 174.5 c 128,-1,32
 65 219 65 219 65 279 c 0,33,34
 65 365 65 365 166 436 c 1,35,36
 65 502 65 502 65 598 c 0,37,38
 65 668 65 668 124 719 c 128,-1,39
 183 770 183 770 288 770 c 0,40,41
 374 770 374 770 440 755 c 2,42,-1
 462 750 l 1,43,-1
 448 675 l 1,0,1
419 250 m 0,44,45
 419 284 419 284 380 320 c 0,46,47
 351 347 351 347 289 374 c 0,48,49
 272 382 272 382 239 397 c 1,50,51
 150 342 150 342 150 279 c 0,52,53
 150 233 150 233 214 192 c 0,54,55
 255 166 255 166 333 131 c 1,56,57
 419 185 419 185 419 250 c 0,44,45
EndSplineSet
EndChar

StartChar: dieresis
Encoding: 168 168 105
Width: 482
Flags: W
LayerCount: 2
Fore
SplineSet
100 647 m 128,-1,1
 100 670 100 670 116 685.5 c 128,-1,2
 132 701 132 701 155 701 c 128,-1,3
 178 701 178 701 194.5 685.5 c 128,-1,4
 211 670 211 670 211 647 c 128,-1,5
 211 624 211 624 194.5 608.5 c 128,-1,6
 178 593 178 593 154.5 593 c 128,-1,7
 131 593 131 593 115.5 608.5 c 128,-1,0
 100 624 100 624 100 647 c 128,-1,1
271 647 m 128,-1,9
 271 670 271 670 286.5 685.5 c 128,-1,10
 302 701 302 701 325.5 701 c 128,-1,11
 349 701 349 701 365.5 685.5 c 128,-1,12
 382 670 382 670 382 647 c 128,-1,13
 382 624 382 624 365.5 608.5 c 128,-1,14
 349 593 349 593 325.5 593 c 128,-1,15
 302 593 302 593 286.5 608.5 c 128,-1,8
 271 624 271 624 271 647 c 128,-1,9
EndSplineSet
EndChar

StartChar: copyright
Encoding: 169 169 106
Width: 831
Flags: W
LayerCount: 2
Fore
SplineSet
75 341 m 128,-1,1
 75 482 75 482 174.5 582 c 128,-1,2
 274 682 274 682 415 682 c 128,-1,3
 556 682 556 682 656 582 c 128,-1,4
 756 482 756 482 756 341 c 128,-1,5
 756 200 756 200 656 100.5 c 128,-1,6
 556 1 556 1 415 1 c 128,-1,7
 274 1 274 1 174.5 100.5 c 128,-1,0
 75 200 75 200 75 341 c 128,-1,1
215 541 m 128,-1,9
 132 458 132 458 132 341.5 c 128,-1,10
 132 225 132 225 215.5 141.5 c 128,-1,11
 299 58 299 58 415.5 58 c 128,-1,12
 532 58 532 58 615 141 c 128,-1,13
 698 224 698 224 698 341.5 c 128,-1,14
 698 459 698 459 615.5 541.5 c 128,-1,15
 533 624 533 624 415.5 624 c 128,-1,8
 298 624 298 624 215 541 c 128,-1,9
514 531 m 1,16,-1
 500 472 l 1,17,18
 457 482 457 482 417.5 482 c 128,-1,19
 378 482 378 482 354 458 c 128,-1,20
 330 434 330 434 322.5 405 c 128,-1,21
 315 376 315 376 315 342 c 0,22,23
 315 275 315 275 347.5 240 c 128,-1,24
 380 205 380 205 425 205 c 0,25,26
 466 205 466 205 496 216 c 1,27,-1
 507 219 l 1,28,-1
 519 160 l 1,29,30
 473 142 473 142 417 142 c 0,31,32
 240 142 240 142 240 343 c 0,33,34
 240 446 240 446 291.5 495 c 128,-1,35
 343 544 343 544 417 544 c 0,36,37
 465 544 465 544 500 534 c 1,38,-1
 514 531 l 1,16,-1
EndSplineSet
EndChar

StartChar: ordfeminine
Encoding: 170 170 107
Width: 597
Flags: W
LayerCount: 2
Fore
SplineSet
380 468 m 1,0,-1
 380 535 l 1,1,2
 343 533 343 533 319 529 c 1,3,4
 272 524 272 524 253.5 509.5 c 128,-1,5
 235 495 235 495 235 470 c 0,6,7
 235 427 235 427 282 427 c 0,8,9
 319 427 319 427 349 446 c 0,10,11
 360 453 360 453 380 468 c 1,0,-1
386 379 m 1,12,-1
 379 416 l 1,13,14
 323 376 323 376 275 376 c 128,-1,15
 227 376 227 376 197 399 c 128,-1,16
 167 422 167 422 167 470 c 128,-1,17
 167 518 167 518 214.5 545.5 c 128,-1,18
 262 573 262 573 327 578 c 2,19,-1
 380 582 l 1,20,21
 380 582 380 582 380 616 c 0,22,23
 380 636 380 636 378.5 639.5 c 128,-1,24
 377 643 377 643 375 650 c 128,-1,25
 373 657 373 657 370 658.5 c 128,-1,26
 367 660 367 660 363 664 c 128,-1,27
 359 668 359 668 353 669 c 0,28,29
 335 672 335 672 318 672 c 0,30,31
 268 672 268 672 228 662 c 2,32,-1
 212 658 l 1,33,-1
 201 715 l 1,34,35
 267 730 267 730 334 730 c 0,36,37
 447 730 447 730 447 607 c 2,38,-1
 447 445 l 1,39,-1
 451 384 l 1,40,-1
 386 379 l 1,12,-1
EndSplineSet
EndChar

StartChar: guillemotleft
Encoding: 171 171 108
Width: 570
Flags: W
LayerCount: 2
Fore
SplineSet
149 255 m 1,0,-1
 301 73 l 1,1,-1
 248 28 l 1,2,-1
 57 255 l 1,3,-1
 248 482 l 1,4,-1
 301 437 l 1,5,-1
 149 255 l 1,0,-1
361 255 m 1,6,-1
 513 73 l 1,7,-1
 460 28 l 1,8,-1
 269 255 l 1,9,-1
 460 482 l 1,10,-1
 513 437 l 1,11,-1
 361 255 l 1,6,-1
EndSplineSet
EndChar

StartChar: logicalnot
Encoding: 172 172 109
Width: 670
Flags: W
LayerCount: 2
Fore
SplineSet
115 220 m 1,0,-1
 115 294 l 1,1,-1
 555 294 l 1,2,-1
 555 74 l 1,3,-1
 481 74 l 1,4,-1
 481 220 l 1,5,-1
 115 220 l 1,0,-1
EndSplineSet
EndChar

StartChar: registered
Encoding: 174 174 110
Width: 831
Flags: W
LayerCount: 2
Fore
SplineSet
75 341 m 128,-1,1
 75 482 75 482 174.5 582 c 128,-1,2
 274 682 274 682 415 682 c 128,-1,3
 556 682 556 682 656 582 c 128,-1,4
 756 482 756 482 756 341 c 128,-1,5
 756 200 756 200 656 100.5 c 128,-1,6
 556 1 556 1 415 1 c 128,-1,7
 274 1 274 1 174.5 100.5 c 128,-1,0
 75 200 75 200 75 341 c 128,-1,1
215 541 m 128,-1,9
 132 458 132 458 132 341.5 c 128,-1,10
 132 225 132 225 215.5 141.5 c 128,-1,11
 299 58 299 58 415.5 58 c 128,-1,12
 532 58 532 58 615 141 c 128,-1,13
 698 224 698 224 698 341.5 c 128,-1,14
 698 459 698 459 615.5 541.5 c 128,-1,15
 533 624 533 624 415.5 624 c 128,-1,8
 298 624 298 624 215 541 c 128,-1,9
302 159 m 1,16,-1
 302 543 l 1,17,-1
 396 543 l 2,18,19
 461 543 461 543 497.5 515.5 c 128,-1,20
 534 488 534 488 534 434 c 0,21,22
 534 369 534 369 485 336 c 0,23,24
 477 330 477 330 458 323 c 1,25,-1
 458 321 l 1,26,-1
 580 159 l 1,27,-1
 503 159 l 1,28,-1
 391 312 l 1,29,-1
 366 312 l 1,30,-1
 366 159 l 1,31,-1
 302 159 l 1,16,-1
467 426 m 1,32,33
 467 458 467 458 450.5 470 c 128,-1,34
 434 482 434 482 396 482 c 2,35,-1
 366 482 l 1,36,-1
 366 373 l 1,37,-1
 404 373 l 2,38,39
 465 373 465 373 467 426 c 1,32,33
EndSplineSet
EndChar

StartChar: macron
Encoding: 175 175 111
AltUni2: 0002c9.ffffffff.0
Width: 606
Flags: W
LayerCount: 2
Fore
SplineSet
100 592 m 1,0,-1
 100 662 l 1,1,-1
 506 662 l 1,2,-1
 506 592 l 1,3,-1
 100 592 l 1,0,-1
EndSplineSet
EndChar

StartChar: degree
Encoding: 176 176 112
Width: 470
Flags: W
LayerCount: 2
Fore
SplineSet
139.5 531.5 m 128,-1,1
 100 572 100 572 100 626.5 c 128,-1,2
 100 681 100 681 139.5 719.5 c 128,-1,3
 179 758 179 758 233.5 758 c 128,-1,4
 288 758 288 758 329 719.5 c 128,-1,5
 370 681 370 681 370 626.5 c 128,-1,6
 370 572 370 572 329 531.5 c 128,-1,7
 288 491 288 491 233.5 491 c 128,-1,0
 179 491 179 491 139.5 531.5 c 128,-1,1
183 679 m 128,-1,9
 164 659 164 659 164 626.5 c 128,-1,10
 164 594 164 594 183 572.5 c 128,-1,11
 202 551 202 551 234 551 c 128,-1,12
 266 551 266 551 286 572.5 c 128,-1,13
 306 594 306 594 306 626.5 c 128,-1,14
 306 659 306 659 286 679 c 128,-1,15
 266 699 266 699 234 699 c 128,-1,8
 202 699 202 699 183 679 c 128,-1,9
EndSplineSet
EndChar

StartChar: plusminus
Encoding: 177 177 113
Width: 641
Flags: W
LayerCount: 2
Fore
SplineSet
101 0 m 1,0,-1
 101 74 l 1,1,-1
 280 74 l 1,2,-1
 280 220 l 1,3,-1
 100 220 l 1,4,-1
 100 294 l 1,5,-1
 280 294 l 1,6,-1
 280 470 l 1,7,-1
 360 470 l 1,8,-1
 360 294 l 1,9,-1
 540 294 l 1,10,-1
 540 220 l 1,11,-1
 360 220 l 1,12,-1
 360 74 l 1,13,-1
 541 74 l 1,14,-1
 541 0 l 1,15,-1
 101 0 l 1,0,-1
EndSplineSet
EndChar

StartChar: twosuperior
Encoding: 178 178 114
Width: 424
Flags: W
LayerCount: 2
Fore
SplineSet
80 315 m 1,0,-1
 80 356 l 1,1,2
 96 369 96 369 133 407 c 128,-1,3
 170 445 170 445 193 472.5 c 128,-1,4
 216 500 216 500 234.5 532.5 c 128,-1,5
 253 565 253 565 253 588.5 c 128,-1,6
 253 612 253 612 239.5 622 c 128,-1,7
 226 632 226 632 198 632 c 0,8,9
 150 632 150 632 114 620 c 2,10,-1
 101 616 l 1,11,-1
 84 669 l 1,12,13
 130 691 130 691 202 691 c 0,14,15
 323 691 323 691 323 592 c 0,16,17
 323 542 323 542 270 475 c 0,18,19
 222 413 222 413 188 384 c 1,20,-1
 173 370 l 1,21,22
 202 374 202 374 265 374 c 2,23,-1
 334 374 l 1,24,-1
 334 315 l 1,25,-1
 80 315 l 1,0,-1
EndSplineSet
EndChar

StartChar: threesuperior
Encoding: 179 179 115
Width: 377
Flags: W
LayerCount: 2
Fore
SplineSet
154 632 m 0,0,1
 124 632 124 632 96 624 c 1,2,-1
 78 679 l 1,3,4
 112 691 112 691 162.5 691 c 128,-1,5
 213 691 213 691 245.5 669.5 c 128,-1,6
 278 648 278 648 278 607.5 c 128,-1,7
 278 567 278 567 256.5 542 c 128,-1,8
 235 517 235 517 211 509 c 1,9,-1
 211 507 l 1,10,11
 282 481 282 481 282 420 c 128,-1,12
 282 359 282 359 238.5 333.5 c 128,-1,13
 195 308 195 308 141 308 c 0,14,15
 95 308 95 308 60 322 c 1,16,-1
 50 327 l 1,17,-1
 72 378 l 1,18,19
 102 363 102 363 141 363 c 0,20,21
 212 363 212 363 212 422.5 c 128,-1,22
 212 482 212 482 107 482 c 1,23,-1
 107 530 l 1,24,25
 208 530 208 530 208 591 c 0,26,27
 208 632 208 632 154 632 c 0,0,1
EndSplineSet
EndChar

StartChar: acute
Encoding: 180 180 116
Width: 424
Flags: W
LayerCount: 2
Fore
SplineSet
100 646 m 1,0,-1
 272 771 l 1,1,-1
 324 710 l 1,2,-1
 134 601 l 1,3,-1
 100 646 l 1,0,-1
EndSplineSet
EndChar

StartChar: mu
Encoding: 181 181 117
AltUni2: 0003bc.ffffffff.0
Width: 609
Flags: W
LayerCount: 2
Fore
SplineSet
115 -227 m 1,0,-1
 115 503 l 1,1,-1
 195 503 l 1,2,-1
 195 188 l 2,3,4
 195 96 195 96 209 80 c 0,5,6
 228 57 228 57 260 57 c 128,-1,7
 292 57 292 57 331.5 75 c 128,-1,8
 371 93 371 93 395 111 c 2,9,-1
 419 129 l 1,10,-1
 419 503 l 1,11,-1
 499 503 l 1,12,-1
 499 65 l 1,13,-1
 504 0 l 1,14,-1
 425 -8 l 1,15,-1
 419 55 l 1,16,-1
 417 55 l 1,17,18
 331 -13 331 -13 250 -13 c 0,19,20
 219 -13 219 -13 195 0 c 1,21,-1
 195 -227 l 1,22,-1
 115 -227 l 1,0,-1
EndSplineSet
EndChar

StartChar: paragraph
Encoding: 182 182 118
Width: 575
Flags: W
LayerCount: 2
Fore
SplineSet
395 10 m 2,0,-1
 395 612 l 1,1,-1
 323 612 l 1,2,-1
 323 266 l 1,3,-1
 275 266 l 2,4,5
 179 266 179 266 127 327 c 128,-1,6
 75 388 75 388 75 474 c 0,7,8
 75 585 75 585 118 633.5 c 128,-1,9
 161 682 161 682 266 682 c 2,10,-1
 475 682 l 1,11,-1
 475 -1 l 2,12,13
 475 -88 475 -88 449 -136 c 128,-1,14
 423 -184 423 -184 355 -237 c 1,15,-1
 299 -177 l 1,16,17
 355 -134 355 -134 375 -90.5 c 128,-1,18
 395 -47 395 -47 395 10 c 2,0,-1
EndSplineSet
EndChar

StartChar: periodcentered
Encoding: 183 183 119
AltUni2: 002219.ffffffff.0
Width: 318
Flags: W
LayerCount: 2
Fore
SplineSet
100 393 m 128,-1,1
 100 418 100 418 117 435 c 128,-1,2
 134 452 134 452 159 452 c 128,-1,3
 184 452 184 452 201 435 c 128,-1,4
 218 418 218 418 218 393 c 128,-1,5
 218 368 218 368 201 351 c 128,-1,6
 184 334 184 334 159 334 c 128,-1,7
 134 334 134 334 117 351 c 128,-1,0
 100 368 100 368 100 393 c 128,-1,1
EndSplineSet
EndChar

StartChar: cedilla
Encoding: 184 184 120
Width: 331
Flags: W
LayerCount: 2
Fore
SplineSet
152 -83 m 2,0,-1
 152 -59 l 1,1,-1
 231 -59 l 1,2,-1
 231 -83 l 2,3,4
 231 -124 231 -124 216.5 -159 c 128,-1,5
 202 -194 202 -194 157 -244 c 1,6,-1
 100 -197 l 1,7,8
 124 -171 124 -171 136.5 -147 c 128,-1,9
 149 -123 149 -123 150.5 -112 c 128,-1,10
 152 -101 152 -101 152 -83 c 2,0,-1
EndSplineSet
EndChar

StartChar: onesuperior
Encoding: 185 185 121
Width: 319
Flags: W
LayerCount: 2
Fore
SplineSet
142 315 m 1,0,-1
 142 614 l 1,1,-1
 42 592 l 1,2,-1
 30 638 l 1,3,-1
 170 682 l 1,4,-1
 209 682 l 1,5,-1
 209 315 l 1,6,-1
 142 315 l 1,0,-1
EndSplineSet
EndChar

StartChar: ordmasculine
Encoding: 186 186 122
Width: 597
Flags: W
LayerCount: 2
Fore
SplineSet
211 552 m 0,0,1
 211 494 211 494 238 463 c 128,-1,2
 265 432 265 432 314.5 432 c 128,-1,3
 364 432 364 432 389.5 462.5 c 128,-1,4
 415 493 415 493 415 550.5 c 128,-1,5
 415 608 415 608 387.5 640.5 c 128,-1,6
 360 673 360 673 310 673 c 0,7,8
 211 673 211 673 211 552 c 0,0,1
159 465 m 128,-1,10
 143 502 143 502 143 551.5 c 128,-1,11
 143 601 143 601 160 637.5 c 128,-1,12
 177 674 177 674 204 693 c 128,-1,13
 231 712 231 712 258.5 721 c 128,-1,14
 286 730 286 730 314 730 c 128,-1,15
 342 730 342 730 369 721.5 c 128,-1,16
 396 713 396 713 422.5 695 c 128,-1,17
 449 677 449 677 465.5 641 c 128,-1,18
 482 605 482 605 482 555.5 c 128,-1,19
 482 506 482 506 465 468.5 c 128,-1,20
 448 431 448 431 421 412 c 0,21,22
 369 374 369 374 311 374 c 0,23,24
 252 374 252 374 202 410 c 1,25,9
 175 428 175 428 159 465 c 128,-1,10
EndSplineSet
EndChar

StartChar: guillemotright
Encoding: 187 187 123
Width: 572
Flags: W
LayerCount: 2
Fore
SplineSet
270 73 m 1,0,-1
 422 255 l 1,1,-1
 270 437 l 1,2,-1
 323 482 l 1,3,-1
 514 255 l 1,4,-1
 323 28 l 1,5,-1
 270 73 l 1,0,-1
58 73 m 1,6,-1
 210 255 l 1,7,-1
 58 437 l 1,8,-1
 111 482 l 1,9,-1
 302 255 l 1,10,-1
 111 28 l 1,11,-1
 58 73 l 1,6,-1
EndSplineSet
EndChar

StartChar: onequarter
Encoding: 188 188 124
Width: 883
Flags: W
LayerCount: 2
Fore
SplineSet
142 315 m 1,0,-1
 142 614 l 1,1,-1
 42 592 l 1,2,-1
 30 638 l 1,3,-1
 170 682 l 1,4,-1
 209 682 l 1,5,-1
 209 315 l 1,6,-1
 142 315 l 1,0,-1
217 -55 m 1,7,-1
 513 757 l 1,8,-1
 569 737 l 1,9,-1
 273 -75 l 1,10,-1
 217 -55 l 1,7,-1
682 294 m 1,11,-1
 557 138 l 1,12,13
 600 140 600 140 646 140 c 2,14,-1
 679 140 l 1,15,-1
 679 195 l 1,16,-1
 682 294 l 1,11,-1
484 83 m 1,17,-1
 484 131 l 1,18,-1
 679 367 l 1,19,-1
 746 367 l 1,20,-1
 746 140 l 1,21,-1
 783 140 l 1,22,-1
 783 83 l 1,23,-1
 746 83 l 1,24,-1
 746 0 l 1,25,-1
 679 0 l 1,26,-1
 679 83 l 1,27,-1
 484 83 l 1,17,-1
EndSplineSet
EndChar

StartChar: onehalf
Encoding: 189 189 125
Width: 832
Flags: W
LayerCount: 2
Fore
SplineSet
142 315 m 1,0,-1
 142 614 l 1,1,-1
 42 592 l 1,2,-1
 30 638 l 1,3,-1
 170 682 l 1,4,-1
 209 682 l 1,5,-1
 209 315 l 1,6,-1
 142 315 l 1,0,-1
207 -55 m 1,7,-1
 503 757 l 1,8,-1
 559 737 l 1,9,-1
 263 -75 l 1,10,-1
 207 -55 l 1,7,-1
508 0 m 1,11,-1
 508 41 l 1,12,13
 524 54 524 54 561 92 c 128,-1,14
 598 130 598 130 621 157.5 c 128,-1,15
 644 185 644 185 662.5 217.5 c 128,-1,16
 681 250 681 250 681 273.5 c 128,-1,17
 681 297 681 297 667.5 307 c 128,-1,18
 654 317 654 317 626 317 c 0,19,20
 578 317 578 317 542 305 c 2,21,-1
 529 301 l 1,22,-1
 512 354 l 1,23,24
 558 376 558 376 630 376 c 0,25,26
 751 376 751 376 751 277 c 0,27,28
 751 227 751 227 698 160 c 0,29,30
 650 98 650 98 616 69 c 1,31,-1
 601 55 l 1,32,33
 630 59 630 59 693 59 c 2,34,-1
 762 59 l 1,35,-1
 762 0 l 1,36,-1
 508 0 l 1,11,-1
EndSplineSet
EndChar

StartChar: threequarters
Encoding: 190 190 126
Width: 933
Flags: W
LayerCount: 2
Fore
SplineSet
267 -55 m 1,0,-1
 563 757 l 1,1,-1
 619 737 l 1,2,-1
 323 -75 l 1,3,-1
 267 -55 l 1,0,-1
154 632 m 0,4,5
 124 632 124 632 96 624 c 1,6,-1
 78 679 l 1,7,8
 112 691 112 691 162.5 691 c 128,-1,9
 213 691 213 691 245.5 669.5 c 128,-1,10
 278 648 278 648 278 607.5 c 128,-1,11
 278 567 278 567 256.5 542 c 128,-1,12
 235 517 235 517 211 509 c 1,13,-1
 211 507 l 1,14,15
 282 481 282 481 282 420 c 128,-1,16
 282 359 282 359 238.5 333.5 c 128,-1,17
 195 308 195 308 141 308 c 0,18,19
 95 308 95 308 60 322 c 1,20,-1
 50 327 l 1,21,-1
 72 378 l 1,22,23
 102 363 102 363 141 363 c 0,24,25
 212 363 212 363 212 422.5 c 128,-1,26
 212 482 212 482 107 482 c 1,27,-1
 107 530 l 1,28,29
 208 530 208 530 208 591 c 0,30,31
 208 632 208 632 154 632 c 0,4,5
732 294 m 1,32,-1
 607 138 l 1,33,34
 650 140 650 140 696 140 c 2,35,-1
 729 140 l 1,36,-1
 729 195 l 1,37,-1
 732 294 l 1,32,-1
534 83 m 1,38,-1
 534 131 l 1,39,-1
 729 367 l 1,40,-1
 796 367 l 1,41,-1
 796 140 l 1,42,-1
 833 140 l 1,43,-1
 833 83 l 1,44,-1
 796 83 l 1,45,-1
 796 0 l 1,46,-1
 729 0 l 1,47,-1
 729 83 l 1,48,-1
 534 83 l 1,38,-1
EndSplineSet
EndChar

StartChar: questiondown
Encoding: 191 191 127
Width: 500
Flags: W
LayerCount: 2
Fore
SplineSet
361 476 m 128,-1,1
 378 459 378 459 378 434.5 c 128,-1,2
 378 410 378 410 361 392.5 c 128,-1,3
 344 375 344 375 319 375 c 128,-1,4
 294 375 294 375 275.5 392.5 c 128,-1,5
 257 410 257 410 257 434.5 c 128,-1,6
 257 459 257 459 275 476 c 128,-1,7
 293 493 293 493 318.5 493 c 128,-1,0
 344 493 344 493 361 476 c 128,-1,1
276 179 m 2,8,-1
 276 307 l 1,9,-1
 356 307 l 1,10,-1
 356 179 l 2,11,12
 356 111 356 111 288 84 c 0,13,14
 260 72 260 72 232 59 c 128,-1,15
 204 46 204 46 184.5 18 c 128,-1,16
 165 -10 165 -10 165 -57.5 c 128,-1,17
 165 -105 165 -105 197 -134.5 c 128,-1,18
 229 -164 229 -164 283 -164 c 0,19,20
 320 -164 320 -164 350 -152 c 1,21,-1
 360 -149 l 1,22,-1
 380 -226 l 1,23,24
 340 -244 340 -244 276 -244 c 0,25,26
 189 -244 189 -244 132 -194.5 c 128,-1,27
 75 -145 75 -145 75 -65 c 0,28,29
 75 -11 75 -11 95.5 28.5 c 128,-1,30
 116 68 116 68 146 87.5 c 128,-1,31
 176 107 176 107 205.5 121 c 128,-1,32
 235 135 235 135 255.5 148.5 c 128,-1,33
 276 162 276 162 276 179 c 2,8,-1
EndSplineSet
EndChar

StartChar: Agrave
Encoding: 192 192 128
Width: 633
Flags: W
LayerCount: 2
Fore
SplineSet
30 0 m 1,0,-1
 264 682 l 1,1,-1
 368 682 l 1,2,-1
 602 0 l 1,3,-1
 515 0 l 1,4,-1
 455 182 l 1,5,-1
 178 182 l 1,6,-1
 117 0 l 1,7,-1
 30 0 l 1,0,-1
204 262 m 1,8,-1
 428 262 l 1,9,-1
 318 602 l 1,10,-1
 315 602 l 1,11,-1
 204 262 l 1,8,-1
349 769 m 1,12,-1
 159 878 l 1,13,-1
 211 939 l 1,14,-1
 383 814 l 1,15,-1
 349 769 l 1,12,-1
EndSplineSet
EndChar

StartChar: Aacute
Encoding: 193 193 129
Width: 633
Flags: W
LayerCount: 2
Fore
SplineSet
30 0 m 1,0,-1
 264 682 l 1,1,-1
 368 682 l 1,2,-1
 602 0 l 1,3,-1
 515 0 l 1,4,-1
 455 182 l 1,5,-1
 178 182 l 1,6,-1
 117 0 l 1,7,-1
 30 0 l 1,0,-1
204 262 m 1,8,-1
 428 262 l 1,9,-1
 318 602 l 1,10,-1
 315 602 l 1,11,-1
 204 262 l 1,8,-1
216 813 m 1,12,-1
 388 938 l 1,13,-1
 440 877 l 1,14,-1
 250 768 l 1,15,-1
 216 813 l 1,12,-1
EndSplineSet
EndChar

StartChar: Acircumflex
Encoding: 194 194 130
Width: 633
Flags: W
LayerCount: 2
Fore
SplineSet
30 0 m 1,0,-1
 264 682 l 1,1,-1
 368 682 l 1,2,-1
 602 0 l 1,3,-1
 515 0 l 1,4,-1
 455 182 l 1,5,-1
 178 182 l 1,6,-1
 117 0 l 1,7,-1
 30 0 l 1,0,-1
204 262 m 1,8,-1
 428 262 l 1,9,-1
 318 602 l 1,10,-1
 315 602 l 1,11,-1
 204 262 l 1,8,-1
161 803 m 1,12,-1
 296 940 l 1,13,-1
 336 940 l 1,14,-1
 471 803 l 1,15,-1
 431 770 l 1,16,-1
 316 867 l 1,17,-1
 201 770 l 1,18,-1
 161 803 l 1,12,-1
EndSplineSet
EndChar

StartChar: Atilde
Encoding: 195 195 131
Width: 633
Flags: W
LayerCount: 2
Fore
SplineSet
30 0 m 1,0,-1
 264 682 l 1,1,-1
 368 682 l 1,2,-1
 602 0 l 1,3,-1
 515 0 l 1,4,-1
 455 182 l 1,5,-1
 178 182 l 1,6,-1
 117 0 l 1,7,-1
 30 0 l 1,0,-1
204 262 m 1,8,-1
 428 262 l 1,9,-1
 318 602 l 1,10,-1
 315 602 l 1,11,-1
 204 262 l 1,8,-1
434 869 m 1,12,-1
 488 828 l 1,13,14
 438 765 438 765 385 765 c 0,15,16
 348 765 348 765 304.5 785 c 128,-1,17
 261 805 261 805 249 805 c 0,18,19
 213 805 213 805 186 768 c 1,20,-1
 134 812 l 1,21,22
 176 870 176 870 245 870 c 0,23,24
 276 870 276 870 318 850 c 128,-1,25
 360 830 360 830 374 830 c 0,26,27
 407 830 407 830 434 869 c 1,12,-1
EndSplineSet
EndChar

StartChar: Adieresis
Encoding: 196 196 132
Width: 633
Flags: W
LayerCount: 2
Fore
SplineSet
30 0 m 1,0,-1
 264 682 l 1,1,-1
 368 682 l 1,2,-1
 602 0 l 1,3,-1
 515 0 l 1,4,-1
 455 182 l 1,5,-1
 178 182 l 1,6,-1
 117 0 l 1,7,-1
 30 0 l 1,0,-1
204 262 m 1,8,-1
 428 262 l 1,9,-1
 318 602 l 1,10,-1
 315 602 l 1,11,-1
 204 262 l 1,8,-1
190.5 785.5 m 128,-1,13
 175 801 175 801 175 823.5 c 128,-1,14
 175 846 175 846 190.5 862 c 128,-1,15
 206 878 206 878 229.5 878 c 128,-1,16
 253 878 253 878 269.5 862.5 c 128,-1,17
 286 847 286 847 286 824 c 128,-1,18
 286 801 286 801 269.5 785.5 c 128,-1,19
 253 770 253 770 229.5 770 c 128,-1,12
 206 770 206 770 190.5 785.5 c 128,-1,13
361.5 785.5 m 128,-1,21
 346 801 346 801 346 823.5 c 128,-1,22
 346 846 346 846 362 862 c 128,-1,23
 378 878 378 878 401 878 c 128,-1,24
 424 878 424 878 440.5 862.5 c 128,-1,25
 457 847 457 847 457 824 c 128,-1,26
 457 801 457 801 440.5 785.5 c 128,-1,27
 424 770 424 770 400.5 770 c 128,-1,20
 377 770 377 770 361.5 785.5 c 128,-1,21
EndSplineSet
EndChar

StartChar: Aring
Encoding: 197 197 133
Width: 633
Flags: W
LayerCount: 2
Fore
SplineSet
30 0 m 1,0,-1
 264 682 l 1,1,-1
 368 682 l 1,2,-1
 602 0 l 1,3,-1
 515 0 l 1,4,-1
 455 182 l 1,5,-1
 178 182 l 1,6,-1
 117 0 l 1,7,-1
 30 0 l 1,0,-1
204 262 m 1,8,-1
 428 262 l 1,9,-1
 318 602 l 1,10,-1
 315 602 l 1,11,-1
 204 262 l 1,8,-1
239.5 750.5 m 128,-1,13
 209 782 209 782 209 827.5 c 128,-1,14
 209 873 209 873 239.5 904.5 c 128,-1,15
 270 936 270 936 316 936 c 128,-1,16
 362 936 362 936 394 904.5 c 128,-1,17
 426 873 426 873 426 827.5 c 128,-1,18
 426 782 426 782 393.5 750.5 c 128,-1,19
 361 719 361 719 315.5 719 c 128,-1,12
 270 719 270 719 239.5 750.5 c 128,-1,13
260 827 m 128,-1,21
 260 803 260 803 276.5 786.5 c 128,-1,22
 293 770 293 770 317 770 c 128,-1,23
 341 770 341 770 358 786.5 c 128,-1,24
 375 803 375 803 375 827 c 128,-1,25
 375 851 375 851 358 868 c 128,-1,26
 341 885 341 885 317 885 c 128,-1,27
 293 885 293 885 276.5 868 c 128,-1,20
 260 851 260 851 260 827 c 128,-1,21
EndSplineSet
EndChar

StartChar: AE
Encoding: 198 198 134
Width: 900
Flags: W
LayerCount: 2
Fore
SplineSet
407 192 m 1,0,-1
 214 192 l 1,1,-1
 126 0 l 1,2,-1
 30 0 l 1,3,-1
 359 682 l 1,4,-1
 825 682 l 1,5,-1
 825 605 l 1,6,-1
 491 605 l 1,7,-1
 491 387 l 1,8,-1
 801 387 l 1,9,-1
 801 312 l 1,10,-1
 491 312 l 1,11,-1
 491 77 l 1,12,-1
 835 77 l 1,13,-1
 835 0 l 1,14,-1
 407 0 l 1,15,-1
 407 192 l 1,0,-1
403 602 m 1,16,-1
 251 272 l 1,17,-1
 407 272 l 1,18,-1
 407 602 l 1,19,-1
 403 602 l 1,16,-1
EndSplineSet
EndChar

StartChar: Ccedilla
Encoding: 199 199 135
Width: 623
Flags: W
LayerCount: 2
Fore
SplineSet
564 660 m 1,0,-1
 546 586 l 1,1,2
 460 616 460 616 361 616 c 0,3,4
 304 616 304 616 259.5 590.5 c 128,-1,5
 215 565 215 565 190 523 c 0,6,7
 140 439 140 439 140 326 c 128,-1,8
 140 213 140 213 204.5 137.5 c 128,-1,9
 269 62 269 62 362 62 c 0,10,11
 412 62 412 62 459.5 69 c 128,-1,12
 507 76 507 76 529 83 c 2,13,-1
 551 90 l 1,14,-1
 568 19 l 1,15,16
 478 -13 478 -13 362 -13 c 0,17,18
 209 -13 209 -13 127 82.5 c 128,-1,19
 45 178 45 178 45 341.5 c 128,-1,20
 45 505 45 505 132.5 598 c 128,-1,21
 220 691 220 691 362 691 c 0,22,23
 411 691 411 691 461.5 683.5 c 128,-1,24
 512 676 512 676 538 668 c 2,25,-1
 564 660 l 1,0,-1
321 -83 m 2,26,-1
 321 -59 l 1,27,-1
 400 -59 l 1,28,-1
 400 -83 l 2,29,30
 400 -124 400 -124 385.5 -159 c 128,-1,31
 371 -194 371 -194 326 -244 c 1,32,-1
 269 -197 l 1,33,34
 293 -171 293 -171 305.5 -147 c 128,-1,35
 318 -123 318 -123 319.5 -112 c 128,-1,36
 321 -101 321 -101 321 -83 c 2,26,-1
EndSplineSet
EndChar

StartChar: Egrave
Encoding: 200 200 136
Width: 578
Flags: W
LayerCount: 2
Fore
SplineSet
85 0 m 1,0,-1
 85 682 l 1,1,-1
 503 682 l 1,2,-1
 503 605 l 1,3,-1
 169 605 l 1,4,-1
 169 387 l 1,5,-1
 479 387 l 1,6,-1
 479 312 l 1,7,-1
 169 312 l 1,8,-1
 169 77 l 1,9,-1
 513 77 l 1,10,-1
 513 0 l 1,11,-1
 85 0 l 1,0,-1
359 768 m 1,12,-1
 169 877 l 1,13,-1
 221 938 l 1,14,-1
 393 813 l 1,15,-1
 359 768 l 1,12,-1
EndSplineSet
EndChar

StartChar: Ecircumflex
Encoding: 202 202 138
Width: 578
Flags: W
LayerCount: 2
Fore
SplineSet
85 0 m 1,0,-1
 85 682 l 1,1,-1
 503 682 l 1,2,-1
 503 605 l 1,3,-1
 169 605 l 1,4,-1
 169 387 l 1,5,-1
 479 387 l 1,6,-1
 479 312 l 1,7,-1
 169 312 l 1,8,-1
 169 77 l 1,9,-1
 513 77 l 1,10,-1
 513 0 l 1,11,-1
 85 0 l 1,0,-1
148 802 m 1,12,-1
 283 939 l 1,13,-1
 323 939 l 1,14,-1
 458 802 l 1,15,-1
 418 769 l 1,16,-1
 303 866 l 1,17,-1
 188 769 l 1,18,-1
 148 802 l 1,12,-1
EndSplineSet
EndChar

StartChar: Igrave
Encoding: 204 204 140
Width: 254
Flags: W
LayerCount: 2
Fore
SplineSet
85 0 m 1,0,-1
 85 682 l 1,1,-1
 169 682 l 1,2,-1
 169 0 l 1,3,-1
 85 0 l 1,0,-1
174 768 m 1,4,-1
 -16 877 l 1,5,-1
 36 938 l 1,6,-1
 208 813 l 1,7,-1
 174 768 l 1,4,-1
85 0 m 1,8,-1
 169 0 l 1,9,-1
 169 682 l 1,10,-1
 85 682 l 1,11,-1
 85 0 l 1,8,-1
174 768 m 1,12,-1
 208 813 l 1,13,-1
 36 938 l 1,14,-1
 -16 877 l 1,15,-1
 174 768 l 1,12,-1
EndSplineSet
EndChar

StartChar: Icircumflex
Encoding: 206 206 142
Width: 254
Flags: W
LayerCount: 2
Fore
SplineSet
85 0 m 1,0,-1
 85 682 l 1,1,-1
 169 682 l 1,2,-1
 169 0 l 1,3,-1
 85 0 l 1,0,-1
-29 802 m 1,4,-1
 106 939 l 1,5,-1
 146 939 l 1,6,-1
 281 802 l 1,7,-1
 241 769 l 1,8,-1
 126 866 l 1,9,-1
 11 769 l 1,10,-1
 -29 802 l 1,4,-1
EndSplineSet
EndChar

StartChar: Eth
Encoding: 208 208 144
Width: 744
Flags: W
LayerCount: 2
Fore
SplineSet
118 0 m 1,0,-1
 118 312 l 1,1,-1
 -5 312 l 1,2,-1
 -5 392 l 1,3,-1
 118 392 l 1,4,-1
 118 682 l 1,5,-1
 337 682 l 2,6,7
 504 682 504 682 599 597.5 c 128,-1,8
 694 513 694 513 694 344 c 128,-1,9
 694 175 694 175 594.5 87.5 c 128,-1,10
 495 0 495 0 337 0 c 2,11,-1
 118 0 l 1,0,-1
202 605 m 1,12,-1
 202 392 l 1,13,-1
 360 392 l 1,14,-1
 360 312 l 1,15,-1
 202 312 l 1,16,-1
 202 77 l 1,17,-1
 337 77 l 2,18,19
 457 77 457 77 530.5 141 c 128,-1,20
 604 205 604 205 604 340 c 128,-1,21
 604 475 604 475 533.5 540 c 128,-1,22
 463 605 463 605 337 605 c 2,23,-1
 202 605 l 1,12,-1
EndSplineSet
EndChar

StartChar: Ograve
Encoding: 210 210 146
Width: 758
Flags: W
LayerCount: 2
Fore
SplineSet
70 202 m 0,0,1
 50 264 50 264 50 340 c 128,-1,2
 50 416 50 416 70 476.5 c 128,-1,3
 90 537 90 537 122.5 576.5 c 128,-1,4
 155 616 155 616 198 642 c 0,5,6
 278 691 278 691 379 691 c 0,7,8
 504 691 504 691 599 621 c 0,9,10
 649 584 649 584 678.5 512 c 128,-1,11
 708 440 708 440 708 343.5 c 128,-1,12
 708 247 708 247 678 176 c 128,-1,13
 648 105 648 105 599 66 c 0,14,15
 502 -13 502 -13 379 -13 c 0,16,17
 279 -13 279 -13 198 35 c 0,18,19
 106 90 106 90 70 202 c 0,0,1
548.5 136 m 128,-1,21
 613 205 613 205 613 337 c 128,-1,22
 613 469 613 469 551.5 540 c 128,-1,23
 490 611 490 611 382 611 c 128,-1,24
 274 611 274 611 209.5 543.5 c 128,-1,25
 145 476 145 476 145 344.5 c 128,-1,26
 145 213 145 213 206.5 140 c 128,-1,27
 268 67 268 67 376 67 c 128,-1,20
 484 67 484 67 548.5 136 c 128,-1,21
455 768 m 1,28,-1
 265 877 l 1,29,-1
 317 938 l 1,30,-1
 489 813 l 1,31,-1
 455 768 l 1,28,-1
EndSplineSet
EndChar

StartChar: Ocircumflex
Encoding: 212 212 148
Width: 758
Flags: W
LayerCount: 2
Fore
SplineSet
70 202 m 0,0,1
 50 264 50 264 50 340 c 128,-1,2
 50 416 50 416 70 476.5 c 128,-1,3
 90 537 90 537 122.5 576.5 c 128,-1,4
 155 616 155 616 198 642 c 0,5,6
 278 691 278 691 379 691 c 0,7,8
 504 691 504 691 599 621 c 0,9,10
 649 584 649 584 678.5 512 c 128,-1,11
 708 440 708 440 708 343.5 c 128,-1,12
 708 247 708 247 678 176 c 128,-1,13
 648 105 648 105 599 66 c 0,14,15
 502 -13 502 -13 379 -13 c 0,16,17
 279 -13 279 -13 198 35 c 0,18,19
 106 90 106 90 70 202 c 0,0,1
548.5 136 m 128,-1,21
 613 205 613 205 613 337 c 128,-1,22
 613 469 613 469 551.5 540 c 128,-1,23
 490 611 490 611 382 611 c 128,-1,24
 274 611 274 611 209.5 543.5 c 128,-1,25
 145 476 145 476 145 344.5 c 128,-1,26
 145 213 145 213 206.5 140 c 128,-1,27
 268 67 268 67 376 67 c 128,-1,20
 484 67 484 67 548.5 136 c 128,-1,21
238 803 m 1,28,-1
 373 940 l 1,29,-1
 413 940 l 1,30,-1
 548 803 l 1,31,-1
 508 770 l 1,32,-1
 393 867 l 1,33,-1
 278 770 l 1,34,-1
 238 803 l 1,28,-1
EndSplineSet
EndChar

StartChar: multiply
Encoding: 215 215 151
Width: 588
Flags: W
LayerCount: 2
Fore
SplineSet
60 60 m 1,0,-1
 251 251 l 1,1,-1
 60 443 l 1,2,-1
 102 486 l 1,3,-1
 294 294 l 1,4,-1
 486 486 l 1,5,-1
 528 443 l 1,6,-1
 336 251 l 1,7,-1
 528 60 l 1,8,-1
 486 17 l 1,9,-1
 294 209 l 1,10,-1
 102 17 l 1,11,-1
 60 60 l 1,0,-1
EndSplineSet
EndChar

StartChar: Oslash
Encoding: 216 216 152
Width: 758
Flags: W
LayerCount: 2
Fore
SplineSet
51 -6 m 1,0,-1
 131 90 l 1,1,2
 50 183 50 183 50 341 c 0,3,4
 50 416 50 416 70 476.5 c 128,-1,5
 90 537 90 537 122.5 576.5 c 128,-1,6
 155 616 155 616 198 642 c 0,7,8
 278 691 278 691 379 691 c 0,9,10
 504 691 504 691 585 631 c 1,11,-1
 653 712 l 1,12,-1
 707 667 l 1,13,-1
 636 583 l 1,14,15
 708 495 708 495 708 340 c 0,16,17
 708 247 708 247 678 176 c 128,-1,18
 648 105 648 105 599 66 c 0,19,20
 502 -13 502 -13 384 -13 c 128,-1,21
 266 -13 266 -13 184 44 c 1,22,-1
 105 -51 l 1,23,-1
 51 -6 l 1,0,-1
209.5 543.5 m 128,-1,25
 145 476 145 476 145 354 c 128,-1,26
 145 232 145 232 191 161 c 1,27,-1
 528 563 l 1,28,29
 469 611 469 611 383 611 c 0,30,24
 274 611 274 611 209.5 543.5 c 128,-1,25
613 336 m 0,31,32
 613 439 613 439 574 508 c 1,33,-1
 239 109 l 1,34,35
 293 67 293 67 375 67 c 0,36,37
 484 67 484 67 548.5 136 c 128,-1,38
 613 205 613 205 613 336 c 0,31,32
EndSplineSet
EndChar

StartChar: Ugrave
Encoding: 217 217 153
Width: 720
Flags: W
LayerCount: 2
Fore
SplineSet
85 682 m 1,0,-1
 169 682 l 1,1,-1
 169 256 l 2,2,3
 169 68 169 68 360 68 c 128,-1,4
 551 68 551 68 551 256 c 2,5,-1
 551 682 l 1,6,-1
 635 682 l 1,7,-1
 635 235 l 2,8,9
 635 130 635 130 558.5 59 c 128,-1,10
 482 -12 482 -12 355 -12 c 128,-1,11
 228 -12 228 -12 156.5 53 c 128,-1,12
 85 118 85 118 85 235 c 2,13,-1
 85 682 l 1,0,-1
427 768 m 1,14,-1
 237 877 l 1,15,-1
 289 938 l 1,16,-1
 461 813 l 1,17,-1
 427 768 l 1,14,-1
EndSplineSet
EndChar

StartChar: Ucircumflex
Encoding: 219 219 155
Width: 720
Flags: W
LayerCount: 2
Fore
SplineSet
85 682 m 1,0,-1
 169 682 l 1,1,-1
 169 256 l 2,2,3
 169 68 169 68 360 68 c 128,-1,4
 551 68 551 68 551 256 c 2,5,-1
 551 682 l 1,6,-1
 635 682 l 1,7,-1
 635 235 l 2,8,9
 635 130 635 130 558.5 59 c 128,-1,10
 482 -12 482 -12 355 -12 c 128,-1,11
 228 -12 228 -12 156.5 53 c 128,-1,12
 85 118 85 118 85 235 c 2,13,-1
 85 682 l 1,0,-1
215 804 m 1,14,-1
 350 941 l 1,15,-1
 390 941 l 1,16,-1
 525 804 l 1,17,-1
 485 771 l 1,18,-1
 370 868 l 1,19,-1
 255 771 l 1,20,-1
 215 804 l 1,14,-1
EndSplineSet
EndChar

StartChar: Yacute
Encoding: 221 221 157
Width: 576
Flags: W
LayerCount: 2
Fore
SplineSet
243 0 m 1,0,-1
 243 248 l 1,1,-1
 25 682 l 1,2,-1
 118 682 l 1,3,-1
 285 351 l 1,4,-1
 453 682 l 1,5,-1
 546 682 l 1,6,-1
 328 248 l 1,7,-1
 328 0 l 1,8,-1
 243 0 l 1,0,-1
188 813 m 1,9,-1
 360 938 l 1,10,-1
 412 877 l 1,11,-1
 222 768 l 1,12,-1
 188 813 l 1,9,-1
EndSplineSet
EndChar

StartChar: Thorn
Encoding: 222 222 158
Width: 547
Flags: W
LayerCount: 2
Fore
SplineSet
169 682 m 1,0,-1
 169 563 l 1,1,-1
 252 563 l 2,2,3
 384 563 384 563 445.5 516.5 c 128,-1,4
 507 470 507 470 507 362 c 0,5,6
 507 306 507 306 484.5 263 c 128,-1,7
 462 220 462 220 426 197 c 0,8,9
 356 152 356 152 278 152 c 2,10,-1
 169 152 l 1,11,-1
 169 0 l 1,12,-1
 85 0 l 1,13,-1
 85 682 l 1,14,-1
 169 682 l 1,0,-1
241 488 m 2,15,-1
 169 488 l 1,16,-1
 169 227 l 1,17,-1
 271 227 l 2,18,19
 344 227 344 227 383 257.5 c 128,-1,20
 422 288 422 288 422 364 c 128,-1,21
 422 440 422 440 380.5 464 c 128,-1,22
 339 488 339 488 241 488 c 2,15,-1
EndSplineSet
EndChar

StartChar: germandbls
Encoding: 223 223 159
Width: 677
Flags: W
LayerCount: 2
Fore
SplineSet
100 0 m 1,0,-1
 100 442 l 2,1,2
 100 610 100 610 146.5 684.5 c 128,-1,3
 193 759 193 759 322 759 c 0,4,5
 404 759 404 759 464 717.5 c 128,-1,6
 524 676 524 676 524 588 c 0,7,8
 524 539 524 539 506 505.5 c 128,-1,9
 488 472 488 472 463 456.5 c 128,-1,10
 438 441 438 441 412.5 430.5 c 128,-1,11
 387 420 387 420 369 406 c 128,-1,12
 351 392 351 392 351 373 c 128,-1,13
 351 354 351 354 377 336 c 128,-1,14
 403 318 403 318 440 300 c 128,-1,15
 477 282 477 282 513.5 260.5 c 128,-1,16
 550 239 550 239 576 205 c 128,-1,17
 602 171 602 171 602 124.5 c 128,-1,18
 602 78 602 78 570.5 44 c 128,-1,19
 539 10 539 10 498.5 -1.5 c 128,-1,20
 458 -13 458 -13 418 -13 c 0,21,22
 339 -13 339 -13 282 4 c 1,23,-1
 261 9 l 1,24,-1
 277 82 l 1,25,26
 343 58 343 58 411 58 c 0,27,28
 517 58 517 58 517 127 c 0,29,30
 517 171 517 171 428 214 c 0,31,32
 391 232 391 232 354.5 252.5 c 128,-1,33
 318 273 318 273 292 304 c 128,-1,34
 266 335 266 335 266 371 c 128,-1,35
 266 407 266 407 285 430 c 128,-1,36
 304 453 304 453 331.5 465.5 c 128,-1,37
 359 478 359 478 386.5 490 c 128,-1,38
 414 502 414 502 433 524 c 128,-1,39
 452 546 452 546 452 582 c 128,-1,40
 452 618 452 618 428 643.5 c 128,-1,41
 404 669 404 669 375.5 677.5 c 128,-1,42
 347 686 347 686 315 686 c 128,-1,43
 283 686 283 686 259.5 678.5 c 128,-1,44
 236 671 236 671 221.5 652 c 128,-1,45
 207 633 207 633 198.5 614 c 128,-1,46
 190 595 190 595 186 558 c 0,47,48
 180 502 180 502 180 411 c 2,49,-1
 180 0 l 1,50,-1
 100 0 l 1,0,-1
EndSplineSet
EndChar

StartChar: agrave
Encoding: 224 224 160
Width: 567
Flags: W
LayerCount: 2
Fore
SplineSet
387 117 m 1,0,-1
 387 231 l 1,1,2
 318 228 318 228 282 223 c 0,3,4
 211 214 211 214 180.5 191.5 c 128,-1,5
 150 169 150 169 150 131 c 0,6,7
 150 57 150 57 228.5 57 c 128,-1,8
 307 57 307 57 387 117 c 1,0,-1
396 -8 m 1,9,-1
 386 47 l 1,10,11
 283 -13 283 -13 211 -13 c 0,12,13
 65 -13 65 -13 65 127 c 0,14,15
 65 199 65 199 132 239.5 c 128,-1,16
 199 280 199 280 295 288 c 1,17,-1
 387 294 l 1,18,19
 387 336 387 336 384.5 358 c 128,-1,20
 382 380 382 380 373 402.5 c 128,-1,21
 364 425 364 425 343.5 434 c 128,-1,22
 323 443 323 443 288 443 c 0,23,24
 215 443 215 443 158 426 c 1,25,-1
 138 421 l 1,26,-1
 122 490 l 1,27,28
 206 513 206 513 305 513 c 0,29,30
 402 513 402 513 437 457 c 0,31,32
 467 409 467 409 467 331 c 2,33,-1
 467 91 l 1,34,-1
 473 0 l 1,35,-1
 396 -8 l 1,9,-1
354 601 m 1,36,-1
 164 710 l 1,37,-1
 216 771 l 1,38,-1
 388 646 l 1,39,-1
 354 601 l 1,36,-1
EndSplineSet
EndChar

StartChar: aacute
Encoding: 225 225 161
Width: 567
Flags: W
LayerCount: 2
Fore
SplineSet
387 117 m 1,0,-1
 387 231 l 1,1,2
 318 228 318 228 282 223 c 0,3,4
 211 214 211 214 180.5 191.5 c 128,-1,5
 150 169 150 169 150 131 c 0,6,7
 150 57 150 57 228.5 57 c 128,-1,8
 307 57 307 57 387 117 c 1,0,-1
396 -8 m 1,9,-1
 386 47 l 1,10,11
 283 -13 283 -13 211 -13 c 0,12,13
 65 -13 65 -13 65 127 c 0,14,15
 65 199 65 199 132 239.5 c 128,-1,16
 199 280 199 280 295 288 c 1,17,-1
 387 294 l 1,18,19
 387 336 387 336 384.5 358 c 128,-1,20
 382 380 382 380 373 402.5 c 128,-1,21
 364 425 364 425 343.5 434 c 128,-1,22
 323 443 323 443 288 443 c 0,23,24
 215 443 215 443 158 426 c 1,25,-1
 138 421 l 1,26,-1
 122 490 l 1,27,28
 206 513 206 513 305 513 c 0,29,30
 402 513 402 513 437 457 c 0,31,32
 467 409 467 409 467 331 c 2,33,-1
 467 91 l 1,34,-1
 473 0 l 1,35,-1
 396 -8 l 1,9,-1
182 645 m 1,36,-1
 354 770 l 1,37,-1
 406 709 l 1,38,-1
 216 600 l 1,39,-1
 182 645 l 1,36,-1
EndSplineSet
EndChar

StartChar: acircumflex
Encoding: 226 226 162
Width: 567
Flags: W
LayerCount: 2
Fore
SplineSet
387 117 m 1,0,-1
 387 231 l 1,1,2
 318 228 318 228 282 223 c 0,3,4
 211 214 211 214 180.5 191.5 c 128,-1,5
 150 169 150 169 150 131 c 0,6,7
 150 57 150 57 228.5 57 c 128,-1,8
 307 57 307 57 387 117 c 1,0,-1
396 -8 m 1,9,-1
 386 47 l 1,10,11
 283 -13 283 -13 211 -13 c 0,12,13
 65 -13 65 -13 65 127 c 0,14,15
 65 199 65 199 132 239.5 c 128,-1,16
 199 280 199 280 295 288 c 1,17,-1
 387 294 l 1,18,19
 387 336 387 336 384.5 358 c 128,-1,20
 382 380 382 380 373 402.5 c 128,-1,21
 364 425 364 425 343.5 434 c 128,-1,22
 323 443 323 443 288 443 c 0,23,24
 215 443 215 443 158 426 c 1,25,-1
 138 421 l 1,26,-1
 122 490 l 1,27,28
 206 513 206 513 305 513 c 0,29,30
 402 513 402 513 437 457 c 0,31,32
 467 409 467 409 467 331 c 2,33,-1
 467 91 l 1,34,-1
 473 0 l 1,35,-1
 396 -8 l 1,9,-1
135 633 m 1,36,-1
 270 770 l 1,37,-1
 310 770 l 1,38,-1
 445 633 l 1,39,-1
 405 600 l 1,40,-1
 290 697 l 1,41,-1
 175 600 l 1,42,-1
 135 633 l 1,36,-1
EndSplineSet
EndChar

StartChar: atilde
Encoding: 227 227 163
Width: 567
Flags: W
LayerCount: 2
Fore
SplineSet
387 117 m 1,0,-1
 387 231 l 1,1,2
 318 228 318 228 282 223 c 0,3,4
 211 214 211 214 180.5 191.5 c 128,-1,5
 150 169 150 169 150 131 c 0,6,7
 150 57 150 57 228.5 57 c 128,-1,8
 307 57 307 57 387 117 c 1,0,-1
396 -8 m 1,9,-1
 386 47 l 1,10,11
 283 -13 283 -13 211 -13 c 0,12,13
 65 -13 65 -13 65 127 c 0,14,15
 65 199 65 199 132 239.5 c 128,-1,16
 199 280 199 280 295 288 c 1,17,-1
 387 294 l 1,18,19
 387 336 387 336 384.5 358 c 128,-1,20
 382 380 382 380 373 402.5 c 128,-1,21
 364 425 364 425 343.5 434 c 128,-1,22
 323 443 323 443 288 443 c 0,23,24
 215 443 215 443 158 426 c 1,25,-1
 138 421 l 1,26,-1
 122 490 l 1,27,28
 206 513 206 513 305 513 c 0,29,30
 402 513 402 513 437 457 c 0,31,32
 467 409 467 409 467 331 c 2,33,-1
 467 91 l 1,34,-1
 473 0 l 1,35,-1
 396 -8 l 1,9,-1
412 704 m 1,36,-1
 466 663 l 1,37,38
 416 600 416 600 363 600 c 0,39,40
 326 600 326 600 282.5 620 c 128,-1,41
 239 640 239 640 227 640 c 0,42,43
 191 640 191 640 164 603 c 1,44,-1
 112 647 l 1,45,46
 154 705 154 705 223 705 c 0,47,48
 254 705 254 705 296 685 c 128,-1,49
 338 665 338 665 352 665 c 0,50,51
 385 665 385 665 412 704 c 1,36,-1
EndSplineSet
EndChar

StartChar: adieresis
Encoding: 228 228 164
Width: 567
Flags: W
LayerCount: 2
Fore
SplineSet
387 117 m 1,0,-1
 387 231 l 1,1,2
 318 228 318 228 282 223 c 0,3,4
 211 214 211 214 180.5 191.5 c 128,-1,5
 150 169 150 169 150 131 c 0,6,7
 150 57 150 57 228.5 57 c 128,-1,8
 307 57 307 57 387 117 c 1,0,-1
396 -8 m 1,9,-1
 386 47 l 1,10,11
 283 -13 283 -13 211 -13 c 0,12,13
 65 -13 65 -13 65 127 c 0,14,15
 65 199 65 199 132 239.5 c 128,-1,16
 199 280 199 280 295 288 c 1,17,-1
 387 294 l 1,18,19
 387 336 387 336 384.5 358 c 128,-1,20
 382 380 382 380 373 402.5 c 128,-1,21
 364 425 364 425 343.5 434 c 128,-1,22
 323 443 323 443 288 443 c 0,23,24
 215 443 215 443 158 426 c 1,25,-1
 138 421 l 1,26,-1
 122 490 l 1,27,28
 206 513 206 513 305 513 c 0,29,30
 402 513 402 513 437 457 c 0,31,32
 467 409 467 409 467 331 c 2,33,-1
 467 91 l 1,34,-1
 473 0 l 1,35,-1
 396 -8 l 1,9,-1
150 647 m 128,-1,37
 150 670 150 670 166 685.5 c 128,-1,38
 182 701 182 701 205 701 c 128,-1,39
 228 701 228 701 244.5 685.5 c 128,-1,40
 261 670 261 670 261 647 c 128,-1,41
 261 624 261 624 244.5 608.5 c 128,-1,42
 228 593 228 593 204.5 593 c 128,-1,43
 181 593 181 593 165.5 608.5 c 128,-1,36
 150 624 150 624 150 647 c 128,-1,37
321 647 m 128,-1,45
 321 670 321 670 336.5 685.5 c 128,-1,46
 352 701 352 701 375.5 701 c 128,-1,47
 399 701 399 701 415.5 685.5 c 128,-1,48
 432 670 432 670 432 647 c 128,-1,49
 432 624 432 624 415.5 608.5 c 128,-1,50
 399 593 399 593 375.5 593 c 128,-1,51
 352 593 352 593 336.5 608.5 c 128,-1,44
 321 624 321 624 321 647 c 128,-1,45
EndSplineSet
EndChar

StartChar: aring
Encoding: 229 229 165
Width: 567
Flags: W
LayerCount: 2
Fore
SplineSet
387 117 m 1,0,-1
 387 231 l 1,1,2
 318 228 318 228 282 223 c 0,3,4
 211 214 211 214 180.5 191.5 c 128,-1,5
 150 169 150 169 150 131 c 0,6,7
 150 57 150 57 228.5 57 c 128,-1,8
 307 57 307 57 387 117 c 1,0,-1
396 -8 m 1,9,-1
 386 47 l 1,10,11
 283 -13 283 -13 211 -13 c 0,12,13
 65 -13 65 -13 65 127 c 0,14,15
 65 199 65 199 132 239.5 c 128,-1,16
 199 280 199 280 295 288 c 1,17,-1
 387 294 l 1,18,19
 387 336 387 336 384.5 358 c 128,-1,20
 382 380 382 380 373 402.5 c 128,-1,21
 364 425 364 425 343.5 434 c 128,-1,22
 323 443 323 443 288 443 c 0,23,24
 215 443 215 443 158 426 c 1,25,-1
 138 421 l 1,26,-1
 122 490 l 1,27,28
 206 513 206 513 305 513 c 0,29,30
 402 513 402 513 437 457 c 0,31,32
 467 409 467 409 467 331 c 2,33,-1
 467 91 l 1,34,-1
 473 0 l 1,35,-1
 396 -8 l 1,9,-1
218.5 613.5 m 128,-1,37
 188 645 188 645 188 690.5 c 128,-1,38
 188 736 188 736 218.5 767.5 c 128,-1,39
 249 799 249 799 295 799 c 128,-1,40
 341 799 341 799 373 767.5 c 128,-1,41
 405 736 405 736 405 690.5 c 128,-1,42
 405 645 405 645 372.5 613.5 c 128,-1,43
 340 582 340 582 294.5 582 c 128,-1,36
 249 582 249 582 218.5 613.5 c 128,-1,37
239 690 m 128,-1,45
 239 666 239 666 255.5 649.5 c 128,-1,46
 272 633 272 633 296 633 c 128,-1,47
 320 633 320 633 337 649.5 c 128,-1,48
 354 666 354 666 354 690 c 128,-1,49
 354 714 354 714 337 731 c 128,-1,50
 320 748 320 748 296 748 c 128,-1,51
 272 748 272 748 255.5 731 c 128,-1,44
 239 714 239 714 239 690 c 128,-1,45
EndSplineSet
EndChar

StartChar: ae
Encoding: 230 230 166
Width: 884
Flags: W
LayerCount: 2
Fore
SplineSet
211 -13 m 0,0,1
 65 -13 65 -13 65 127 c 0,2,3
 65 202 65 202 127 241 c 128,-1,4
 189 280 189 280 284 288 c 2,5,-1
 382 296 l 1,6,-1
 386 323 l 1,7,8
 407 443 407 443 288 443 c 0,9,10
 216 443 216 443 160 429 c 2,11,-1
 139 424 l 1,12,-1
 122 495 l 1,13,14
 206 513 206 513 306.5 513 c 128,-1,15
 407 513 407 513 444 445 c 1,16,17
 507 513 507 513 618 513 c 0,18,19
 710 513 710 513 757 446 c 128,-1,20
 804 379 804 379 804 275 c 1,21,-1
 789 231 l 1,22,-1
 465 231 l 1,23,24
 465 158 465 158 506.5 107.5 c 128,-1,25
 548 57 548 57 631 57 c 0,26,27
 706 57 706 57 749 74 c 1,28,-1
 764 79 l 1,29,-1
 779 14 l 1,30,31
 703 -13 703 -13 616 -13 c 0,32,33
 498 -13 498 -13 432 69 c 1,34,35
 428 66 428 66 421.5 60.5 c 128,-1,36
 415 55 415 55 392.5 40.5 c 128,-1,37
 370 26 370 26 346 16 c 0,38,39
 281 -13 281 -13 211 -13 c 0,0,1
399 122 m 1,40,41
 386 159 386 159 380 214 c 1,42,-1
 379 231 l 1,43,44
 313 227 313 227 282 223 c 0,45,46
 211 214 211 214 180 191.5 c 128,-1,47
 149 169 149 169 149 131 c 128,-1,48
 149 93 149 93 170.5 75 c 128,-1,49
 192 57 192 57 228 57 c 0,50,51
 312 57 312 57 399 122 c 1,40,41
469 295 m 1,52,-1
 721 295 l 1,53,54
 721 325 721 325 704 375 c 0,55,56
 695 404 695 404 670 423.5 c 128,-1,57
 645 443 645 443 607.5 443 c 128,-1,58
 570 443 570 443 540.5 426 c 128,-1,59
 511 409 511 409 496 384 c 1,60,61
 469 335 469 335 469 295 c 1,52,-1
EndSplineSet
EndChar

StartChar: egrave
Encoding: 232 232 168
Width: 580
Flags: W
LayerCount: 2
Fore
SplineSet
460 79 m 1,0,-1
 475 12 l 1,1,2
 399 -13 399 -13 312 -13 c 0,3,4
 204 -13 204 -13 139.5 49.5 c 128,-1,5
 75 112 75 112 75 243 c 128,-1,6
 75 374 75 374 140.5 443.5 c 128,-1,7
 206 513 206 513 304 513 c 128,-1,8
 402 513 402 513 451 445.5 c 128,-1,9
 500 378 500 378 500 275 c 1,10,-1
 485 231 l 1,11,-1
 162 231 l 1,12,13
 162 159 162 159 201.5 108 c 128,-1,14
 241 57 241 57 327 57 c 0,15,16
 402 57 402 57 445 74 c 1,17,-1
 460 79 l 1,0,-1
165 295 m 1,18,-1
 417 295 l 1,19,20
 417 325 417 325 400 375 c 0,21,22
 391 404 391 404 366 423.5 c 128,-1,23
 341 443 341 443 303.5 443 c 128,-1,24
 266 443 266 443 236.5 426 c 128,-1,25
 207 409 207 409 192 384 c 1,26,27
 165 335 165 335 165 295 c 1,18,-1
362 601 m 1,28,-1
 172 710 l 1,29,-1
 224 771 l 1,30,-1
 396 646 l 1,31,-1
 362 601 l 1,28,-1
EndSplineSet
EndChar

StartChar: ecircumflex
Encoding: 234 234 170
Width: 580
Flags: W
LayerCount: 2
Fore
SplineSet
460 79 m 1,0,-1
 475 12 l 1,1,2
 399 -13 399 -13 312 -13 c 0,3,4
 204 -13 204 -13 139.5 49.5 c 128,-1,5
 75 112 75 112 75 243 c 128,-1,6
 75 374 75 374 140.5 443.5 c 128,-1,7
 206 513 206 513 304 513 c 128,-1,8
 402 513 402 513 451 445.5 c 128,-1,9
 500 378 500 378 500 275 c 1,10,-1
 485 231 l 1,11,-1
 162 231 l 1,12,13
 162 159 162 159 201.5 108 c 128,-1,14
 241 57 241 57 327 57 c 0,15,16
 402 57 402 57 445 74 c 1,17,-1
 460 79 l 1,0,-1
165 295 m 1,18,-1
 417 295 l 1,19,20
 417 325 417 325 400 375 c 0,21,22
 391 404 391 404 366 423.5 c 128,-1,23
 341 443 341 443 303.5 443 c 128,-1,24
 266 443 266 443 236.5 426 c 128,-1,25
 207 409 207 409 192 384 c 1,26,27
 165 335 165 335 165 295 c 1,18,-1
147 633 m 1,28,-1
 282 770 l 1,29,-1
 322 770 l 1,30,-1
 457 633 l 1,31,-1
 417 600 l 1,32,-1
 302 697 l 1,33,-1
 187 600 l 1,34,-1
 147 633 l 1,28,-1
EndSplineSet
EndChar

StartChar: igrave
Encoding: 236 236 172
Width: 248
Flags: W
LayerCount: 2
Fore
SplineSet
79 0 m 1,0,-1
 79 504 l 1,1,-1
 159 513 l 1,2,-1
 159 0 l 1,3,-1
 79 0 l 1,0,-1
156 600 m 1,4,-1
 -34 709 l 1,5,-1
 18 770 l 1,6,-1
 190 645 l 1,7,-1
 156 600 l 1,4,-1
EndSplineSet
EndChar

StartChar: icircumflex
Encoding: 238 238 174
Width: 280
Flags: W
LayerCount: 2
Fore
SplineSet
100 0 m 1,0,-1
 100 504 l 1,1,-1
 180 513 l 1,2,-1
 180 0 l 1,3,-1
 100 0 l 1,0,-1
-16 633 m 1,4,-1
 119 770 l 1,5,-1
 159 770 l 1,6,-1
 294 633 l 1,7,-1
 254 600 l 1,8,-1
 139 697 l 1,9,-1
 24 600 l 1,10,-1
 -16 633 l 1,4,-1
EndSplineSet
EndChar

StartChar: eth
Encoding: 240 240 176
Width: 601
Flags: W
LayerCount: 2
Fore
SplineSet
264 442 m 1,0,-1
 226 490 l 1,1,-1
 307 552 l 1,2,3
 283 580 283 580 228 637 c 1,4,-1
 286 691 l 1,5,6
 357 613 357 613 369 599 c 1,7,-1
 458 666 l 1,8,-1
 494 619 l 1,9,-1
 407 552 l 1,10,11
 456 487 456 487 480.5 420.5 c 128,-1,12
 505 354 505 354 505 268 c 0,13,14
 505 131 505 131 446.5 59 c 128,-1,15
 388 -13 388 -13 285 -13 c 128,-1,16
 182 -13 182 -13 128.5 41 c 128,-1,17
 75 95 75 95 75 189 c 0,18,19
 75 242 75 242 96.5 283.5 c 128,-1,20
 118 325 118 325 152 348 c 0,21,22
 218 394 218 394 292 394 c 0,23,24
 354 394 354 394 394 384 c 2,25,-1
 410 380 l 1,26,27
 392 440 392 440 345 505 c 1,28,-1
 264 442 l 1,0,-1
196.5 88 m 128,-1,30
 233 58 233 58 293.5 58 c 128,-1,31
 354 58 354 58 385.5 106.5 c 128,-1,32
 417 155 417 155 420 259 c 1,33,-1
 417 313 l 1,34,35
 365 324 365 324 299.5 324 c 128,-1,36
 234 324 234 324 197 288 c 128,-1,37
 160 252 160 252 160 185 c 128,-1,29
 160 118 160 118 196.5 88 c 128,-1,30
EndSplineSet
EndChar

StartChar: ograve
Encoding: 242 242 178
Width: 576
Flags: W
LayerCount: 2
Fore
SplineSet
125 249 m 0,0,1
 125 154 125 154 168 105.5 c 128,-1,2
 211 57 211 57 285.5 57 c 128,-1,3
 360 57 360 57 400.5 105 c 128,-1,4
 441 153 441 153 441 247.5 c 128,-1,5
 441 342 441 342 398 392.5 c 128,-1,6
 355 443 355 443 279 443 c 0,7,8
 125 443 125 443 125 249 c 0,0,1
62.5 122 m 128,-1,10
 40 176 40 176 40 242 c 128,-1,11
 40 308 40 308 56 355 c 128,-1,12
 72 402 72 402 97 430.5 c 128,-1,13
 122 459 122 459 156 478 c 1,14,15
 215 513 215 513 285 513 c 0,16,17
 368 513 368 513 441 461 c 0,18,19
 479 434 479 434 502.5 381 c 128,-1,20
 526 328 526 328 526 254.5 c 128,-1,21
 526 181 526 181 502 126 c 128,-1,22
 478 71 478 71 439 42 c 0,23,24
 365 -13 365 -13 280 -13 c 0,25,26
 193 -13 193 -13 122 40 c 0,27,9
 85 68 85 68 62.5 122 c 128,-1,10
341 601 m 1,28,-1
 151 710 l 1,29,-1
 203 771 l 1,30,-1
 375 646 l 1,31,-1
 341 601 l 1,28,-1
EndSplineSet
EndChar

StartChar: ocircumflex
Encoding: 244 244 180
Width: 636
Flags: W
LayerCount: 2
Fore
SplineSet
160 249 m 0,0,1
 160 154 160 154 203 105.5 c 128,-1,2
 246 57 246 57 320.5 57 c 128,-1,3
 395 57 395 57 435.5 105 c 128,-1,4
 476 153 476 153 476 247.5 c 128,-1,5
 476 342 476 342 433 392.5 c 128,-1,6
 390 443 390 443 314 443 c 0,7,8
 160 443 160 443 160 249 c 0,0,1
97.5 122 m 128,-1,10
 75 176 75 176 75 242 c 128,-1,11
 75 308 75 308 91 355 c 128,-1,12
 107 402 107 402 132 430.5 c 128,-1,13
 157 459 157 459 190 478 c 0,14,15
 250 513 250 513 320 513 c 0,16,17
 403 513 403 513 476 461 c 0,18,19
 514 434 514 434 537.5 381 c 128,-1,20
 561 328 561 328 561 254.5 c 128,-1,21
 561 181 561 181 537 126 c 128,-1,22
 513 71 513 71 474 42 c 0,23,24
 400 -13 400 -13 315 -13 c 0,25,26
 228 -13 228 -13 158 40 c 0,27,9
 120 68 120 68 97.5 122 c 128,-1,10
166 633 m 1,28,-1
 301 770 l 1,29,-1
 341 770 l 1,30,-1
 476 633 l 1,31,-1
 436 600 l 1,32,-1
 321 697 l 1,33,-1
 206 600 l 1,34,-1
 166 633 l 1,28,-1
EndSplineSet
EndChar

StartChar: otilde
Encoding: 245 245 181
Width: 636
Flags: W
LayerCount: 2
Fore
SplineSet
160 249 m 0,0,1
 160 154 160 154 203 105.5 c 128,-1,2
 246 57 246 57 320.5 57 c 128,-1,3
 395 57 395 57 435.5 105 c 128,-1,4
 476 153 476 153 476 247.5 c 128,-1,5
 476 342 476 342 433 392.5 c 128,-1,6
 390 443 390 443 314 443 c 0,7,8
 160 443 160 443 160 249 c 0,0,1
97.5 122 m 128,-1,10
 75 176 75 176 75 242 c 128,-1,11
 75 308 75 308 91 355 c 128,-1,12
 107 402 107 402 132 430.5 c 128,-1,13
 157 459 157 459 190 478 c 0,14,15
 250 513 250 513 320 513 c 0,16,17
 403 513 403 513 476 461 c 0,18,19
 514 434 514 434 537.5 381 c 128,-1,20
 561 328 561 328 561 254.5 c 128,-1,21
 561 181 561 181 537 126 c 128,-1,22
 513 71 513 71 474 42 c 0,23,24
 400 -13 400 -13 315 -13 c 0,25,26
 228 -13 228 -13 158 40 c 0,27,9
 120 68 120 68 97.5 122 c 128,-1,10
444 704 m 1,28,-1
 498 663 l 1,29,30
 448 600 448 600 395 600 c 0,31,32
 358 600 358 600 314.5 620 c 128,-1,33
 271 640 271 640 259 640 c 0,34,35
 223 640 223 640 196 603 c 1,36,-1
 144 647 l 1,37,38
 186 705 186 705 255 705 c 0,39,40
 286 705 286 705 328 685 c 128,-1,41
 370 665 370 665 384 665 c 0,42,43
 417 665 417 665 444 704 c 1,28,-1
EndSplineSet
EndChar

StartChar: divide
Encoding: 247 247 183
Width: 640
Flags: W
LayerCount: 2
Fore
SplineSet
100 243 m 1,0,-1
 100 323 l 1,1,-1
 540 323 l 1,2,-1
 540 243 l 1,3,-1
 100 243 l 1,0,-1
320 395 m 128,-1,5
 295 395 295 395 278 411.5 c 128,-1,6
 261 428 261 428 261 453.5 c 128,-1,7
 261 479 261 479 278 496 c 128,-1,8
 295 513 295 513 320.5 513 c 128,-1,9
 346 513 346 513 362.5 496 c 128,-1,10
 379 479 379 479 379 453.5 c 128,-1,11
 379 428 379 428 362 411.5 c 128,-1,4
 345 395 345 395 320 395 c 128,-1,5
320 53 m 128,-1,13
 295 53 295 53 278 69.5 c 128,-1,14
 261 86 261 86 261 111.5 c 128,-1,15
 261 137 261 137 278 154 c 128,-1,16
 295 171 295 171 320.5 171 c 128,-1,17
 346 171 346 171 362.5 154 c 128,-1,18
 379 137 379 137 379 111.5 c 128,-1,19
 379 86 379 86 362 69.5 c 128,-1,12
 345 53 345 53 320 53 c 128,-1,13
EndSplineSet
EndChar

StartChar: oslash
Encoding: 248 248 184
Width: 636
Flags: W
LayerCount: 2
Fore
SplineSet
82 5 m 1,0,-1
 132 65 l 1,1,2
 75 132 75 132 75 250 c 0,3,4
 75 308 75 308 91 355 c 128,-1,5
 107 402 107 402 132 430.5 c 128,-1,6
 157 459 157 459 190 478 c 0,7,8
 250 513 250 513 327.5 513 c 128,-1,9
 405 513 405 513 469 467 c 1,10,-1
 522 530 l 1,11,-1
 568 492 l 1,12,-1
 512 425 l 1,13,14
 561 359 561 359 561 256 c 0,15,16
 561 181 561 181 537 126 c 128,-1,17
 513 71 513 71 474 42 c 0,18,19
 400 -13 400 -13 317.5 -13 c 128,-1,20
 235 -13 235 -13 177 25 c 1,21,-1
 128 -33 l 1,22,-1
 82 5 l 1,0,-1
160 249 m 0,23,24
 160 175 160 175 186 129 c 1,25,-1
 419 407 l 1,26,27
 378 443 378 443 314 443 c 0,28,29
 160 443 160 443 160 249 c 0,23,24
476 245 m 0,30,31
 476 309 476 309 455 357 c 1,32,-1
 226 84 l 1,33,34
 262 57 262 57 328.5 57 c 128,-1,35
 395 57 395 57 435.5 105 c 128,-1,36
 476 153 476 153 476 245 c 0,30,31
EndSplineSet
EndChar

StartChar: ugrave
Encoding: 249 249 185
Width: 579
Flags: W
LayerCount: 2
Fore
SplineSet
410 -8 m 1,0,-1
 404 55 l 1,1,-1
 402 55 l 1,2,3
 316 -13 316 -13 238 -13 c 128,-1,4
 160 -13 160 -13 130 28.5 c 128,-1,5
 100 70 100 70 100 176 c 2,6,-1
 100 503 l 1,7,-1
 180 503 l 1,8,-1
 180 188 l 2,9,10
 180 96 180 96 194 80 c 0,11,12
 213 57 213 57 245 57 c 128,-1,13
 277 57 277 57 316.5 75 c 128,-1,14
 356 93 356 93 380 111 c 2,15,-1
 404 129 l 1,16,-1
 404 503 l 1,17,-1
 484 503 l 1,18,-1
 484 65 l 1,19,-1
 489 0 l 1,20,-1
 410 -8 l 1,0,-1
358 601 m 1,21,-1
 168 710 l 1,22,-1
 220 771 l 1,23,-1
 392 646 l 1,24,-1
 358 601 l 1,21,-1
EndSplineSet
EndChar

StartChar: ucircumflex
Encoding: 251 251 187
Width: 579
Flags: W
LayerCount: 2
Fore
SplineSet
410 -8 m 1,0,-1
 404 55 l 1,1,-1
 402 55 l 1,2,3
 316 -13 316 -13 238 -13 c 128,-1,4
 160 -13 160 -13 130 28.5 c 128,-1,5
 100 70 100 70 100 176 c 2,6,-1
 100 503 l 1,7,-1
 180 503 l 1,8,-1
 180 188 l 2,9,10
 180 96 180 96 194 80 c 0,11,12
 213 57 213 57 245 57 c 128,-1,13
 277 57 277 57 316.5 75 c 128,-1,14
 356 93 356 93 380 111 c 2,15,-1
 404 129 l 1,16,-1
 404 503 l 1,17,-1
 484 503 l 1,18,-1
 484 65 l 1,19,-1
 489 0 l 1,20,-1
 410 -8 l 1,0,-1
139 633 m 1,21,-1
 274 770 l 1,22,-1
 314 770 l 1,23,-1
 449 633 l 1,24,-1
 409 600 l 1,25,-1
 294 697 l 1,26,-1
 179 600 l 1,27,-1
 139 633 l 1,21,-1
EndSplineSet
EndChar

StartChar: thorn
Encoding: 254 254 190
Width: 584
Flags: W
LayerCount: 2
Fore
SplineSet
180 -2 m 1,0,-1
 180 -228 l 1,1,-1
 100 -228 l 1,2,-1
 100 749 l 1,3,-1
 180 758 l 1,4,-1
 180 460 l 1,5,6
 256 513 256 513 321 513 c 0,7,8
 409 513 409 513 465.5 446 c 128,-1,9
 522 379 522 379 522 252 c 0,10,11
 522 181 522 181 501.5 128 c 128,-1,12
 481 75 481 75 446 46 c 0,13,14
 377 -13 377 -13 278 -13 c 0,15,16
 228 -13 228 -13 180 -2 c 1,0,-1
312 443 m 0,17,18
 288 443 288 443 255 429.5 c 128,-1,19
 222 416 222 416 201 402 c 2,20,-1
 180 388 l 1,21,-1
 180 74 l 1,22,23
 226 57 226 57 278 57 c 0,24,25
 366 57 366 57 401.5 105 c 128,-1,26
 437 153 437 153 437 239 c 128,-1,27
 437 325 437 325 404 384 c 128,-1,28
 371 443 371 443 312 443 c 0,17,18
EndSplineSet
EndChar

StartChar: ydieresis
Encoding: 255 255 191
Width: 542
Flags: W
LayerCount: 2
Fore
SplineSet
231 13 m 1,0,-1
 30 503 l 1,1,-1
 115 503 l 1,2,-1
 209 276 l 2,3,4
 246 187 246 187 266 118 c 2,5,-1
 274 91 l 1,6,-1
 275 91 l 1,7,8
 307 189 307 189 341 276 c 2,9,-1
 428 503 l 1,10,-1
 512 503 l 1,11,-1
 274 -97 l 2,12,13
 257 -140 257 -140 223.5 -177 c 128,-1,14
 190 -214 190 -214 166 -228 c 2,15,-1
 142 -242 l 1,16,-1
 103 -173 l 1,17,18
 131 -159 131 -159 160 -130 c 128,-1,19
 189 -101 189 -101 200 -69 c 1,20,-1
 231 13 l 1,0,-1
131 657 m 128,-1,22
 131 680 131 680 146.5 695.5 c 128,-1,23
 162 711 162 711 185.5 711 c 128,-1,24
 209 711 209 711 225.5 695.5 c 128,-1,25
 242 680 242 680 242 657 c 128,-1,26
 242 634 242 634 225.5 618.5 c 128,-1,27
 209 603 209 603 185.5 603 c 128,-1,28
 162 603 162 603 146.5 618.5 c 128,-1,21
 131 634 131 634 131 657 c 128,-1,22
302 657 m 128,-1,30
 302 680 302 680 318 695.5 c 128,-1,31
 334 711 334 711 357 711 c 128,-1,32
 380 711 380 711 396.5 695.5 c 128,-1,33
 413 680 413 680 413 657 c 128,-1,34
 413 634 413 634 396.5 618.5 c 128,-1,35
 380 603 380 603 356.5 603 c 128,-1,36
 333 603 333 603 317.5 618.5 c 128,-1,29
 302 634 302 634 302 657 c 128,-1,30
EndSplineSet
EndChar

StartChar: dotlessi
Encoding: 305 305 192
Width: 280
Flags: W
LayerCount: 2
Fore
SplineSet
100 0 m 1,0,-1
 100 504 l 1,1,-1
 180 513 l 1,2,-1
 180 0 l 1,3,-1
 100 0 l 1,0,-1
EndSplineSet
EndChar

StartChar: Lslash
Encoding: 321 321 193
Width: 580
Flags: W
LayerCount: 2
Fore
SplineSet
166 682 m 1,0,-1
 249 682 l 1,1,-1
 249 441 l 1,2,-1
 366 497 l 1,3,-1
 397 428 l 1,4,-1
 249 358 l 1,5,-1
 249 80 l 1,6,-1
 560 80 l 1,7,-1
 560 0 l 1,8,-1
 166 0 l 1,9,-1
 166 321 l 1,10,-1
 51 267 l 1,11,-1
 20 336 l 1,12,-1
 166 404 l 1,13,-1
 166 682 l 1,0,-1
EndSplineSet
EndChar

StartChar: lslash
Encoding: 322 322 194
Width: 450
Flags: W
LayerCount: 2
Fore
SplineSet
41 257 m 1,0,-1
 10 326 l 1,1,-1
 179 404 l 1,2,-1
 179 749 l 1,3,-1
 259 758 l 1,4,-1
 259 441 l 1,5,-1
 409 511 l 1,6,-1
 440 442 l 1,7,-1
 259 358 l 1,8,-1
 259 0 l 1,9,-1
 179 0 l 1,10,-1
 179 321 l 1,11,-1
 41 257 l 1,0,-1
EndSplineSet
EndChar

StartChar: OE
Encoding: 338 338 195
Width: 926
Flags: W
LayerCount: 2
Fore
SplineSet
433 77 m 1,0,-1
 433 605 l 1,1,-1
 407 605 l 2,2,3
 281 605 281 605 210.5 540 c 128,-1,4
 140 475 140 475 140 340 c 128,-1,5
 140 205 140 205 213.5 141 c 128,-1,6
 287 77 287 77 407 77 c 2,7,-1
 433 77 l 1,0,-1
861 0 m 1,8,-1
 407 0 l 2,9,10
 249 0 249 0 149.5 87.5 c 128,-1,11
 50 175 50 175 50 344 c 128,-1,12
 50 513 50 513 145 597.5 c 128,-1,13
 240 682 240 682 407 682 c 2,14,-1
 851 682 l 1,15,-1
 851 605 l 1,16,-1
 517 605 l 1,17,-1
 517 387 l 1,18,-1
 827 387 l 1,19,-1
 827 312 l 1,20,-1
 517 312 l 1,21,-1
 517 77 l 1,22,-1
 861 77 l 1,23,-1
 861 0 l 1,8,-1
EndSplineSet
EndChar

StartChar: oe
Encoding: 339 339 196
Width: 972
Flags: W
LayerCount: 2
Fore
SplineSet
852 79 m 1,0,-1
 867 14 l 1,1,2
 791 -13 791 -13 704 -13 c 0,3,4
 570 -13 570 -13 511 83 c 1,5,6
 476 33 476 33 422 10 c 128,-1,7
 368 -13 368 -13 320.5 -13 c 128,-1,8
 273 -13 273 -13 234.5 -1 c 128,-1,9
 196 11 196 11 158.5 38.5 c 128,-1,10
 121 66 121 66 98 121 c 128,-1,11
 75 176 75 176 75 248 c 128,-1,12
 75 320 75 320 97 372.5 c 128,-1,13
 119 425 119 425 155 454 c 0,14,15
 226 513 226 513 314 513 c 0,16,17
 448 513 448 513 513 419 c 1,18,19
 571 513 571 513 706 513 c 0,20,21
 798 513 798 513 845 446 c 128,-1,22
 892 379 892 379 892 275 c 1,23,-1
 877 231 l 1,24,-1
 554 231 l 1,25,-1
 554 209 l 1,26,27
 560 144 560 144 599.5 100.5 c 128,-1,28
 639 57 639 57 719 57 c 0,29,30
 794 57 794 57 837 74 c 1,31,-1
 852 79 l 1,0,-1
476 252 m 0,32,33
 476 346 476 346 433 394.5 c 128,-1,34
 390 443 390 443 314 443 c 0,35,36
 160 443 160 443 160 252 c 0,37,38
 160 157 160 157 200 107 c 128,-1,39
 240 57 240 57 314 57 c 0,40,41
 476 57 476 57 476 252 c 0,32,33
557 295 m 1,42,-1
 809 295 l 1,43,44
 809 325 809 325 792 375 c 0,45,46
 783 404 783 404 758 423.5 c 128,-1,47
 733 443 733 443 695.5 443 c 128,-1,48
 658 443 658 443 628.5 426 c 128,-1,49
 599 409 599 409 584 384 c 1,50,51
 557 335 557 335 557 295 c 1,42,-1
EndSplineSet
EndChar

StartChar: Ydieresis
Encoding: 376 376 199
Width: 571
Flags: W
LayerCount: 2
Fore
SplineSet
243 0 m 1,0,-1
 243 248 l 1,1,-1
 25 682 l 1,2,-1
 118 682 l 1,3,-1
 285 351 l 1,4,-1
 453 682 l 1,5,-1
 546 682 l 1,6,-1
 328 248 l 1,7,-1
 328 0 l 1,8,-1
 243 0 l 1,0,-1
145 813 m 128,-1,10
 145 836 145 836 160.5 851.5 c 128,-1,11
 176 867 176 867 199.5 867 c 128,-1,12
 223 867 223 867 239.5 851.5 c 128,-1,13
 256 836 256 836 256 813 c 128,-1,14
 256 790 256 790 239.5 774.5 c 128,-1,15
 223 759 223 759 199.5 759 c 128,-1,16
 176 759 176 759 160.5 774.5 c 128,-1,9
 145 790 145 790 145 813 c 128,-1,10
316 813 m 128,-1,18
 316 836 316 836 332 851.5 c 128,-1,19
 348 867 348 867 371 867 c 128,-1,20
 394 867 394 867 410.5 851.5 c 128,-1,21
 427 836 427 836 427 813 c 128,-1,22
 427 790 427 790 410.5 774.5 c 128,-1,23
 394 759 394 759 370.5 759 c 128,-1,24
 347 759 347 759 331.5 774.5 c 128,-1,17
 316 790 316 790 316 813 c 128,-1,18
EndSplineSet
EndChar

StartChar: Zcaron
Encoding: 381 381 200
Width: 660
Flags: W
LayerCount: 2
Fore
SplineSet
65 0 m 1,0,-1
 65 36 l 1,1,-1
 451 602 l 1,2,-1
 65 602 l 1,3,-1
 65 682 l 1,4,-1
 585 682 l 1,5,-1
 585 648 l 1,6,-1
 196 80 l 1,7,-1
 576 80 l 1,8,-1
 576 0 l 1,9,-1
 65 0 l 1,0,-1
285 770 m 1,10,-1
 150 907 l 1,11,-1
 190 940 l 1,12,-1
 305 843 l 1,13,-1
 420 940 l 1,14,-1
 460 907 l 1,15,-1
 325 770 l 1,16,-1
 285 770 l 1,10,-1
EndSplineSet
EndChar

StartChar: zcaron
Encoding: 382 382 201
Width: 525
Flags: W
LayerCount: 2
Fore
SplineSet
55 0 m 1,0,-1
 55 31 l 1,1,-1
 342 441 l 1,2,3
 301 437 301 437 243 437 c 2,4,-1
 80 437 l 1,5,-1
 80 503 l 1,6,-1
 455 503 l 1,7,-1
 455 468 l 1,8,-1
 173 63 l 1,9,10
 215 66 215 66 244 66 c 2,11,-1
 454 66 l 1,12,-1
 454 0 l 1,13,-1
 55 0 l 1,0,-1
227 600 m 1,14,-1
 92 737 l 1,15,-1
 132 770 l 1,16,-1
 247 673 l 1,17,-1
 362 770 l 1,18,-1
 402 737 l 1,19,-1
 267 600 l 1,20,-1
 227 600 l 1,14,-1
EndSplineSet
EndChar

StartChar: circumflex
Encoding: 710 710 202
Width: 510
Flags: W
LayerCount: 2
Fore
SplineSet
100 633 m 1,0,-1
 235 770 l 1,1,-1
 275 770 l 1,2,-1
 410 633 l 1,3,-1
 370 600 l 1,4,-1
 255 697 l 1,5,-1
 140 600 l 1,6,-1
 100 633 l 1,0,-1
EndSplineSet
EndChar

StartChar: caron
Encoding: 711 711 203
Width: 510
Flags: W
LayerCount: 2
Fore
SplineSet
235 593 m 1,0,-1
 100 730 l 1,1,-1
 140 763 l 1,2,-1
 255 666 l 1,3,-1
 370 763 l 1,4,-1
 410 730 l 1,5,-1
 275 593 l 1,6,-1
 235 593 l 1,0,-1
EndSplineSet
EndChar

StartChar: breve
Encoding: 728 728 204
Width: 464
Flags: W
LayerCount: 2
Fore
SplineSet
100 701 m 1,0,-1
 157 701 l 1,1,2
 165 677 165 677 185.5 662.5 c 128,-1,3
 206 648 206 648 231 648 c 128,-1,4
 256 648 256 648 276.5 663 c 128,-1,5
 297 678 297 678 306 701 c 1,6,-1
 364 701 l 1,7,8
 353 655 353 655 315 624 c 128,-1,9
 277 593 277 593 230.5 593 c 128,-1,10
 184 593 184 593 147 624 c 128,-1,11
 110 655 110 655 100 701 c 1,0,-1
EndSplineSet
EndChar

StartChar: dotaccent
Encoding: 729 729 205
Width: 311
Flags: W
LayerCount: 2
Fore
SplineSet
100 647 m 128,-1,1
 100 670 100 670 116 685.5 c 128,-1,2
 132 701 132 701 155 701 c 128,-1,3
 178 701 178 701 194.5 685.5 c 128,-1,4
 211 670 211 670 211 647 c 128,-1,5
 211 624 211 624 194.5 608.5 c 128,-1,6
 178 593 178 593 154.5 593 c 128,-1,7
 131 593 131 593 115.5 608.5 c 128,-1,0
 100 624 100 624 100 647 c 128,-1,1
EndSplineSet
EndChar

StartChar: ring
Encoding: 730 730 206
Width: 417
Flags: W
LayerCount: 2
Fore
SplineSet
130.5 598.5 m 128,-1,1
 100 630 100 630 100 675.5 c 128,-1,2
 100 721 100 721 130.5 752.5 c 128,-1,3
 161 784 161 784 207 784 c 128,-1,4
 253 784 253 784 285 752.5 c 128,-1,5
 317 721 317 721 317 675.5 c 128,-1,6
 317 630 317 630 284.5 598.5 c 128,-1,7
 252 567 252 567 206.5 567 c 128,-1,0
 161 567 161 567 130.5 598.5 c 128,-1,1
151 675 m 128,-1,9
 151 651 151 651 167.5 634.5 c 128,-1,10
 184 618 184 618 208 618 c 128,-1,11
 232 618 232 618 249 634.5 c 128,-1,12
 266 651 266 651 266 675 c 128,-1,13
 266 699 266 699 249 716 c 128,-1,14
 232 733 232 733 208 733 c 128,-1,15
 184 733 184 733 167.5 716 c 128,-1,8
 151 699 151 699 151 675 c 128,-1,9
EndSplineSet
EndChar

StartChar: ogonek
Encoding: 731 731 207
Width: 242
Flags: W
LayerCount: 2
Fore
SplineSet
30 -85 m 0,0,1
 30 -34 30 -34 84 0 c 1,2,-1
 164 0 l 1,3,4
 135 -14 135 -14 122.5 -37 c 128,-1,5
 110 -60 110 -60 110 -72 c 0,6,7
 110 -115 110 -115 153 -115 c 0,8,9
 167 -115 167 -115 197 -109 c 1,10,-1
 212 -166 l 1,11,12
 173 -176 173 -176 146 -176 c 0,13,14
 91 -176 91 -176 60.5 -147.5 c 128,-1,15
 30 -119 30 -119 30 -85 c 0,0,1
EndSplineSet
EndChar

StartChar: tilde
Encoding: 732 732 208
Width: 554
Flags: W
LayerCount: 2
Fore
SplineSet
400 704 m 1,0,-1
 454 663 l 1,1,2
 404 600 404 600 351 600 c 0,3,4
 314 600 314 600 270.5 620 c 128,-1,5
 227 640 227 640 215 640 c 0,6,7
 179 640 179 640 152 603 c 1,8,-1
 100 647 l 1,9,10
 142 705 142 705 211 705 c 0,11,12
 242 705 242 705 284 685 c 128,-1,13
 326 665 326 665 340 665 c 0,14,15
 373 665 373 665 400 704 c 1,0,-1
EndSplineSet
EndChar

StartChar: hungarumlaut
Encoding: 733 733 209
Width: 535
Flags: W
LayerCount: 2
Fore
SplineSet
100 591 m 1,0,-1
 180 758 l 1,1,-1
 275 758 l 1,2,-1
 186 591 l 1,3,-1
 100 591 l 1,0,-1
260 591 m 1,4,-1
 340 758 l 1,5,-1
 435 758 l 1,6,-1
 350 591 l 1,7,-1
 260 591 l 1,4,-1
EndSplineSet
EndChar

StartChar: endash
Encoding: 8211 8211 210
Width: 640
Flags: W
LayerCount: 2
Fore
SplineSet
100 214 m 1,0,-1
 100 294 l 1,1,-1
 540 294 l 1,2,-1
 540 214 l 1,3,-1
 100 214 l 1,0,-1
EndSplineSet
EndChar

StartChar: emdash
Encoding: 8212 8212 211
Width: 770
Flags: W
LayerCount: 2
Fore
SplineSet
50 214 m 1,0,-1
 50 294 l 1,1,-1
 720 294 l 1,2,-1
 720 214 l 1,3,-1
 50 214 l 1,0,-1
EndSplineSet
EndChar

StartChar: quoteleft
Encoding: 8216 8216 212
Width: 330
Flags: W
LayerCount: 2
Fore
SplineSet
105 518 m 1,0,-1
 105 595 l 2,1,2
 105 623 105 623 119.5 667 c 128,-1,3
 134 711 134 711 148 741 c 2,4,-1
 163 771 l 1,5,-1
 225 760 l 1,6,7
 187 663 187 663 187 607 c 2,8,-1
 187 527 l 1,9,-1
 105 518 l 1,0,-1
EndSplineSet
EndChar

StartChar: quoteright
Encoding: 8217 8217 213
Width: 330
Flags: W
LayerCount: 2
Fore
SplineSet
143 681 m 2,0,-1
 143 761 l 1,1,-1
 225 770 l 1,2,-1
 225 693 l 2,3,4
 225 665 225 665 210.5 621 c 128,-1,5
 196 577 196 577 182 547 c 2,6,-1
 167 517 l 1,7,-1
 105 528 l 1,8,9
 143 625 143 625 143 681 c 2,0,-1
EndSplineSet
EndChar

StartChar: quotesinglbase
Encoding: 8218 8218 214
Width: 330
Flags: W
LayerCount: 2
Fore
SplineSet
143 41 m 2,0,-1
 143 121 l 1,1,-1
 225 130 l 1,2,-1
 225 53 l 2,3,4
 225 25 225 25 210.5 -19 c 128,-1,5
 196 -63 196 -63 182 -93 c 2,6,-1
 167 -123 l 1,7,-1
 105 -112 l 1,8,9
 143 -15 143 -15 143 41 c 2,0,-1
EndSplineSet
EndChar

StartChar: quotedblleft
Encoding: 8220 8220 215
Width: 476
Flags: W
LayerCount: 2
Fore
SplineSet
251 510 m 1,0,-1
 251 587 l 2,1,2
 251 615 251 615 265.5 659 c 128,-1,3
 280 703 280 703 294 733 c 2,4,-1
 309 763 l 1,5,-1
 371 752 l 1,6,7
 333 655 333 655 333 599 c 2,8,-1
 333 519 l 1,9,-1
 251 510 l 1,0,-1
105 510 m 1,10,-1
 105 587 l 2,11,12
 105 615 105 615 119.5 659 c 128,-1,13
 134 703 134 703 148 733 c 2,14,-1
 163 763 l 1,15,-1
 225 752 l 1,16,17
 187 655 187 655 187 599 c 2,18,-1
 187 519 l 1,19,-1
 105 510 l 1,10,-1
EndSplineSet
EndChar

StartChar: quotedblright
Encoding: 8221 8221 216
Width: 483
Flags: W
LayerCount: 2
Fore
SplineSet
296 678 m 2,0,-1
 296 758 l 1,1,-1
 378 767 l 1,2,-1
 378 690 l 2,3,4
 378 662 378 662 363 618 c 128,-1,5
 348 574 348 574 334 544 c 2,6,-1
 320 514 l 1,7,-1
 258 525 l 1,8,9
 296 622 296 622 296 678 c 2,0,-1
143 678 m 2,10,-1
 143 758 l 1,11,-1
 225 767 l 1,12,-1
 225 690 l 2,13,14
 225 662 225 662 210.5 618 c 128,-1,15
 196 574 196 574 182 544 c 2,16,-1
 167 514 l 1,17,-1
 105 525 l 1,18,19
 143 622 143 622 143 678 c 2,10,-1
EndSplineSet
EndChar

StartChar: quotedblbase
Encoding: 8222 8222 217
Width: 472
Flags: W
LayerCount: 2
Fore
SplineSet
143 41 m 2,0,-1
 143 121 l 1,1,-1
 225 130 l 1,2,-1
 225 53 l 2,3,4
 225 25 225 25 210.5 -19 c 128,-1,5
 196 -63 196 -63 182 -93 c 2,6,-1
 167 -123 l 1,7,-1
 105 -112 l 1,8,9
 143 -15 143 -15 143 41 c 2,0,-1
285 41 m 2,10,-1
 285 121 l 1,11,-1
 367 130 l 1,12,-1
 367 53 l 2,13,14
 367 25 367 25 352.5 -19 c 128,-1,15
 338 -63 338 -63 324 -93 c 2,16,-1
 309 -123 l 1,17,-1
 247 -112 l 1,18,19
 285 -15 285 -15 285 41 c 2,10,-1
EndSplineSet
EndChar

StartChar: dagger
Encoding: 8224 8224 218
Width: 550
Flags: W
LayerCount: 2
Fore
SplineSet
230 0 m 1,0,-1
 230 513 l 1,1,-1
 100 513 l 1,2,-1
 100 583 l 1,3,-1
 230 583 l 1,4,-1
 230 749 l 1,5,-1
 310 758 l 1,6,-1
 310 583 l 1,7,-1
 450 583 l 1,8,-1
 450 513 l 1,9,-1
 310 513 l 1,10,-1
 310 0 l 1,11,-1
 230 0 l 1,0,-1
EndSplineSet
EndChar

StartChar: daggerdbl
Encoding: 8225 8225 219
Width: 550
Flags: W
LayerCount: 2
Fore
SplineSet
100 513 m 1,0,-1
 100 583 l 1,1,-1
 230 583 l 1,2,-1
 230 749 l 1,3,-1
 310 758 l 1,4,-1
 310 583 l 1,5,-1
 450 583 l 1,6,-1
 450 513 l 1,7,-1
 310 513 l 1,8,-1
 310 394 l 1,9,-1
 230 394 l 1,10,-1
 230 513 l 1,11,-1
 100 513 l 1,0,-1
100 201 m 1,12,-1
 100 271 l 1,13,-1
 230 271 l 1,14,-1
 230 346 l 1,15,-1
 310 346 l 1,16,-1
 310 271 l 1,17,-1
 450 271 l 1,18,-1
 450 201 l 1,19,-1
 310 201 l 1,20,-1
 310 0 l 1,21,-1
 230 0 l 1,22,-1
 230 201 l 1,23,-1
 100 201 l 1,12,-1
EndSplineSet
EndChar

StartChar: bullet
Encoding: 8226 8226 220
Width: 460
Flags: W
LayerCount: 2
Fore
SplineSet
141.5 176.5 m 128,-1,1
 105 214 105 214 105 265 c 128,-1,2
 105 316 105 316 141.5 351 c 128,-1,3
 178 386 178 386 229 386 c 128,-1,4
 280 386 280 386 317.5 350.5 c 128,-1,5
 355 315 355 315 355 265 c 128,-1,6
 355 215 355 215 317.5 177 c 128,-1,7
 280 139 280 139 229 139 c 128,-1,0
 178 139 178 139 141.5 176.5 c 128,-1,1
EndSplineSet
EndChar

StartChar: ellipsis
Encoding: 8230 8230 221
Width: 763
Flags: W
LayerCount: 2
Fore
SplineSet
110.5 15.5 m 128,-1,1
 95 31 95 31 95 53.5 c 128,-1,2
 95 76 95 76 110.5 92 c 128,-1,3
 126 108 126 108 149.5 108 c 128,-1,4
 173 108 173 108 189.5 92.5 c 128,-1,5
 206 77 206 77 206 54 c 128,-1,6
 206 31 206 31 189.5 15.5 c 128,-1,7
 173 0 173 0 149.5 0 c 128,-1,0
 126 0 126 0 110.5 15.5 c 128,-1,1
341.5 15.5 m 128,-1,9
 326 31 326 31 326 53.5 c 128,-1,10
 326 76 326 76 342 92 c 128,-1,11
 358 108 358 108 381 108 c 128,-1,12
 404 108 404 108 420.5 92.5 c 128,-1,13
 437 77 437 77 437 54 c 128,-1,14
 437 31 437 31 420.5 15.5 c 128,-1,15
 404 0 404 0 380.5 0 c 128,-1,8
 357 0 357 0 341.5 15.5 c 128,-1,9
572.5 15.5 m 128,-1,17
 557 31 557 31 557 53.5 c 128,-1,18
 557 76 557 76 572.5 92 c 128,-1,19
 588 108 588 108 611.5 108 c 128,-1,20
 635 108 635 108 651.5 92.5 c 128,-1,21
 668 77 668 77 668 54 c 128,-1,22
 668 31 668 31 651.5 15.5 c 128,-1,23
 635 0 635 0 611.5 0 c 128,-1,16
 588 0 588 0 572.5 15.5 c 128,-1,17
EndSplineSet
EndChar

StartChar: perthousand
Encoding: 8240 8240 222
Width: 1213
Flags: W
LayerCount: 2
Fore
SplineSet
100 540 m 128,-1,1
 100 564 100 564 106.5 589 c 128,-1,2
 113 614 113 614 128.5 641.5 c 128,-1,3
 144 669 144 669 177 686.5 c 128,-1,4
 210 704 210 704 254.5 704 c 128,-1,5
 299 704 299 704 330 686 c 128,-1,6
 361 668 361 668 375 640 c 128,-1,7
 389 612 389 612 395 587.5 c 128,-1,8
 401 563 401 563 401 540 c 128,-1,9
 401 517 401 517 395 492.5 c 128,-1,10
 389 468 389 468 375 440 c 128,-1,11
 361 412 361 412 330 394 c 128,-1,12
 299 376 299 376 254.5 376 c 128,-1,13
 210 376 210 376 177 393.5 c 128,-1,14
 144 411 144 411 128.5 438.5 c 128,-1,15
 113 466 113 466 106.5 491 c 128,-1,0
 100 516 100 516 100 540 c 128,-1,1
329 540 m 128,-1,17
 329 640 329 640 250 640 c 0,18,19
 208 640 208 640 189.5 610 c 128,-1,20
 171 580 171 580 171 540 c 128,-1,21
 171 500 171 500 189.5 470 c 128,-1,22
 208 440 208 440 250 440 c 0,23,16
 329 440 329 440 329 540 c 128,-1,17
474 151 m 128,-1,25
 474 175 474 175 480.5 200 c 128,-1,26
 487 225 487 225 502.5 252.5 c 128,-1,27
 518 280 518 280 551 297.5 c 128,-1,28
 584 315 584 315 628.5 315 c 128,-1,29
 673 315 673 315 704 297 c 128,-1,30
 735 279 735 279 749 251 c 128,-1,31
 763 223 763 223 769 198.5 c 128,-1,32
 775 174 775 174 775 151 c 128,-1,33
 775 128 775 128 769 103.5 c 128,-1,34
 763 79 763 79 749 51 c 128,-1,35
 735 23 735 23 704 5 c 128,-1,36
 673 -13 673 -13 628.5 -13 c 128,-1,37
 584 -13 584 -13 551 4.5 c 128,-1,38
 518 22 518 22 502.5 49.5 c 128,-1,39
 487 77 487 77 480.5 102 c 128,-1,24
 474 127 474 127 474 151 c 128,-1,25
703 151 m 128,-1,41
 703 251 703 251 624 251 c 0,42,43
 582 251 582 251 563.5 221 c 128,-1,44
 545 191 545 191 545 151 c 128,-1,45
 545 111 545 111 563.5 81 c 128,-1,46
 582 51 582 51 624 51 c 0,47,40
 703 51 703 51 703 151 c 128,-1,41
812 151 m 128,-1,49
 812 175 812 175 818.5 200 c 128,-1,50
 825 225 825 225 840.5 252.5 c 128,-1,51
 856 280 856 280 889 297.5 c 128,-1,52
 922 315 922 315 966.5 315 c 128,-1,53
 1011 315 1011 315 1042 297 c 128,-1,54
 1073 279 1073 279 1087 251 c 128,-1,55
 1101 223 1101 223 1107 198.5 c 128,-1,56
 1113 174 1113 174 1113 151 c 128,-1,57
 1113 128 1113 128 1107 103.5 c 128,-1,58
 1101 79 1101 79 1087 51 c 128,-1,59
 1073 23 1073 23 1042 5 c 128,-1,60
 1011 -13 1011 -13 966.5 -13 c 128,-1,61
 922 -13 922 -13 889 4.5 c 128,-1,62
 856 22 856 22 840.5 49.5 c 128,-1,63
 825 77 825 77 818.5 102 c 128,-1,48
 812 127 812 127 812 151 c 128,-1,49
1041 151 m 128,-1,65
 1041 251 1041 251 962 251 c 0,66,67
 920 251 920 251 901.5 221 c 128,-1,68
 883 191 883 191 883 151 c 128,-1,69
 883 111 883 111 901.5 81 c 128,-1,70
 920 51 920 51 962 51 c 0,71,64
 1041 51 1041 51 1041 151 c 128,-1,65
137 2 m 1,72,-1
 656 743 l 1,73,-1
 720 695 l 1,74,-1
 201 -45 l 1,75,-1
 137 2 l 1,72,-1
EndSplineSet
EndChar

StartChar: guilsinglleft
Encoding: 8249 8249 223
Width: 372
Flags: W
LayerCount: 2
Fore
SplineSet
156 255 m 1,0,-1
 308 73 l 1,1,-1
 255 28 l 1,2,-1
 64 255 l 1,3,-1
 255 482 l 1,4,-1
 308 437 l 1,5,-1
 156 255 l 1,0,-1
EndSplineSet
EndChar

StartChar: guilsinglright
Encoding: 8250 8250 224
Width: 372
Flags: W
LayerCount: 2
Fore
SplineSet
64 73 m 1,0,-1
 216 255 l 1,1,-1
 64 437 l 1,2,-1
 117 482 l 1,3,-1
 308 255 l 1,4,-1
 117 28 l 1,5,-1
 64 73 l 1,0,-1
EndSplineSet
EndChar

StartChar: fraction
Encoding: 8260 8260 225
Width: 382
Flags: W
LayerCount: 2
Fore
SplineSet
20 -55 m 1,0,-1
 316 757 l 1,1,-1
 372 737 l 1,2,-1
 76 -75 l 1,3,-1
 20 -55 l 1,0,-1
EndSplineSet
EndChar

StartChar: fourinferior
Encoding: 8324 8324 226
Width: 469
Flags: W
LayerCount: 2
Fore
SplineSet
268 294 m 1,0,-1
 143 138 l 1,1,2
 186 140 186 140 232 140 c 2,3,-1
 265 140 l 1,4,-1
 265 195 l 1,5,-1
 268 294 l 1,0,-1
70 83 m 1,6,-1
 70 131 l 1,7,-1
 265 367 l 1,8,-1
 332 367 l 1,9,-1
 332 140 l 1,10,-1
 369 140 l 1,11,-1
 369 83 l 1,12,-1
 332 83 l 1,13,-1
 332 0 l 1,14,-1
 265 0 l 1,15,-1
 265 83 l 1,16,-1
 70 83 l 1,6,-1
EndSplineSet
EndChar

StartChar: Euro
Encoding: 8364 8364 227
Width: 672
Flags: W
LayerCount: 2
Fore
SplineSet
75 250 m 1,0,-1
 75 315 l 1,1,-1
 163 315 l 1,2,-1
 163 389 l 1,3,-1
 75 389 l 1,4,-1
 75 454 l 1,5,-1
 170 454 l 1,6,7
 211 691 211 691 405 691 c 0,8,9
 466 691 466 691 538 680 c 2,10,-1
 563 676 l 1,11,-1
 550 606 l 1,12,13
 451 621 451 621 393.5 621 c 128,-1,14
 336 621 336 621 303 577.5 c 128,-1,15
 270 534 270 534 255 454 c 1,16,-1
 473 454 l 1,17,-1
 473 389 l 1,18,-1
 252 389 l 1,19,-1
 252 315 l 1,20,-1
 473 315 l 1,21,-1
 473 250 l 1,22,-1
 256 250 l 1,23,24
 271 133 271 133 290 107 c 0,25,26
 317 71 317 71 354 63 c 0,27,28
 376 58 376 58 403 58 c 0,29,30
 452 58 452 58 533 73 c 2,31,-1
 560 78 l 1,32,-1
 572 9 l 1,33,34
 467 -12 467 -12 389 -12 c 0,35,36
 292 -12 292 -12 244 45.5 c 128,-1,37
 196 103 196 103 170 250 c 1,38,-1
 75 250 l 1,0,-1
EndSplineSet
EndChar

StartChar: trademark
Encoding: 8482 8482 228
Width: 871
Flags: W
LayerCount: 2
Fore
SplineSet
142 349 m 1,0,-1
 142 709 l 1,1,-1
 30 709 l 1,2,-1
 30 759 l 1,3,-1
 313 759 l 1,4,-1
 313 709 l 1,5,-1
 201 709 l 1,6,-1
 201 349 l 1,7,-1
 142 349 l 1,0,-1
718 638 m 0,8,9
 718 649 718 649 722 659 c 1,10,-1
 721 659 l 1,11,-1
 597 349 l 1,12,-1
 546 349 l 1,13,-1
 421 659 l 1,14,-1
 420 659 l 1,15,16
 424 643 424 643 424 614 c 1,17,-1
 408 349 l 1,18,-1
 357 349 l 1,19,-1
 379 759 l 1,20,-1
 443 759 l 1,21,-1
 571 422 l 1,22,-1
 572 422 l 1,23,-1
 701 759 l 1,24,-1
 765 759 l 1,25,-1
 786 349 l 1,26,-1
 735 349 l 1,27,-1
 718 614 l 2,28,29
 717 626 717 626 718 638 c 0,8,9
EndSplineSet
EndChar

StartChar: minus
Encoding: 8722 8722 229
Width: 487
Flags: W
LayerCount: 2
Fore
SplineSet
100 247 m 1,0,-1
 100 327 l 1,1,-1
 387 327 l 1,2,-1
 387 247 l 1,3,-1
 100 247 l 1,0,-1
EndSplineSet
EndChar

StartChar: infinity
Encoding: 8734 8734 230
Width: 873
Flags: W
LayerCount: 2
Fore
SplineSet
452 439 m 1,0,1
 476 479 476 479 517 508 c 128,-1,2
 558 537 558 537 604 537 c 0,3,4
 691 537 691 537 738 477 c 128,-1,5
 785 417 785 417 785 333.5 c 128,-1,6
 785 250 785 250 736 195.5 c 128,-1,7
 687 141 687 141 604 141 c 0,8,9
 555 141 555 141 508 169 c 128,-1,10
 461 197 461 197 428 238 c 1,11,12
 369 141 369 141 276.5 141 c 128,-1,13
 184 141 184 141 137 201 c 128,-1,14
 90 261 90 261 90 344.5 c 128,-1,15
 90 428 90 428 139 482.5 c 128,-1,16
 188 537 188 537 271 537 c 0,17,18
 320 537 320 537 369.5 508 c 128,-1,19
 419 479 419 479 452 439 c 1,0,1
417 368 m 1,20,21
 353 452 353 452 271 452 c 0,22,23
 223 452 223 452 191.5 425.5 c 128,-1,24
 160 399 160 399 160 342.5 c 128,-1,25
 160 286 160 286 193.5 256 c 128,-1,26
 227 226 227 226 271 226 c 0,27,28
 361 226 361 226 417 368 c 1,20,21
465 309 m 1,29,30
 520 226 520 226 604 226 c 0,31,32
 652 226 652 226 683.5 252.5 c 128,-1,33
 715 279 715 279 715 335.5 c 128,-1,34
 715 392 715 392 681.5 422 c 128,-1,35
 648 452 648 452 601.5 452 c 128,-1,36
 555 452 555 452 524 416 c 128,-1,37
 493 380 493 380 465 309 c 1,29,30
EndSplineSet
EndChar

StartChar: approxequal
Encoding: 8776 8776 231
Width: 673
Flags: W
LayerCount: 2
Fore
SplineSet
523 405 m 1,0,-1
 557 345 l 1,1,2
 499 298 499 298 440 298 c 0,3,4
 399 298 399 298 335 321.5 c 128,-1,5
 271 345 271 345 231 345 c 0,6,7
 207 345 207 345 188.5 336.5 c 128,-1,8
 170 328 170 328 153.5 318.5 c 128,-1,9
 137 309 137 309 131 306 c 1,10,-1
 100 366 l 1,11,12
 172 415 172 415 231 415 c 0,13,14
 271 415 271 415 335 391.5 c 128,-1,15
 399 368 399 368 434.5 368 c 128,-1,16
 470 368 470 368 523 405 c 1,0,-1
542 257 m 1,17,-1
 573 198 l 1,18,19
 544 174 544 174 519 162 c 128,-1,20
 494 150 494 150 456 150 c 128,-1,21
 418 150 418 150 354 173.5 c 128,-1,22
 290 197 290 197 250 197 c 0,23,24
 225 197 225 197 209 189 c 128,-1,25
 193 181 193 181 188.5 179 c 128,-1,26
 184 177 184 177 170 169 c 128,-1,27
 156 161 156 161 150 158 c 1,28,-1
 119 218 l 1,29,30
 191 267 191 267 250 267 c 0,31,32
 290 267 290 267 354 243.5 c 128,-1,33
 418 220 418 220 453.5 220 c 128,-1,34
 489 220 489 220 542 257 c 1,17,-1
EndSplineSet
EndChar

StartChar: notequal
Encoding: 8800 8800 232
Width: 680
Flags: W
LayerCount: 2
Fore
SplineSet
100 150 m 1,0,-1
 100 220 l 1,1,-1
 580 220 l 1,2,-1
 580 150 l 1,3,-1
 100 150 l 1,0,-1
100 355 m 1,4,-1
 100 425 l 1,5,-1
 580 425 l 1,6,-1
 580 355 l 1,7,-1
 100 355 l 1,4,-1
406 560 m 1,8,-1
 472 536 l 1,9,-1
 286 23 l 1,10,-1
 220 47 l 1,11,-1
 406 560 l 1,8,-1
EndSplineSet
EndChar

StartChar: lessequal
Encoding: 8804 8804 233
Width: 543
Flags: W
LayerCount: 2
Fore
SplineSet
100 315 m 1,0,-1
 100 362 l 1,1,-1
 443 560 l 1,2,-1
 443 476 l 1,3,-1
 218 342 l 1,4,-1
 443 198 l 1,5,-1
 443 111 l 1,6,-1
 100 315 l 1,0,-1
100 0 m 1,7,-1
 100 70 l 1,8,-1
 443 70 l 1,9,-1
 443 0 l 1,10,-1
 100 0 l 1,7,-1
EndSplineSet
EndChar

StartChar: greaterequal
Encoding: 8805 8805 234
Width: 543
Flags: W
LayerCount: 2
Fore
SplineSet
100 111 m 1,0,-1
 100 198 l 1,1,-1
 325 342 l 1,2,-1
 100 476 l 1,3,-1
 100 560 l 1,4,-1
 443 362 l 1,5,-1
 443 315 l 1,6,-1
 100 111 l 1,0,-1
100 0 m 1,7,-1
 100 70 l 1,8,-1
 443 70 l 1,9,-1
 443 0 l 1,10,-1
 100 0 l 1,7,-1
EndSplineSet
EndChar

StartChar: fi
Encoding: 64257 64257 235
Width: 657
Flags: W
LayerCount: 2
Fore
SplineSet
143 0 m 1,0,-1
 143 438 l 1,1,-1
 50 438 l 1,2,-1
 50 503 l 1,3,-1
 142 503 l 1,4,5
 142 632 142 632 208 695 c 128,-1,6
 274 758 274 758 364.5 758 c 128,-1,7
 455 758 455 758 557 693 c 1,8,-1
 521 633 l 1,9,10
 436 688 436 688 368 688 c 0,11,12
 224 688 224 688 222 503 c 1,13,-1
 363 503 l 2,14,15
 439 503 439 503 530 510 c 1,16,-1
 556 513 l 1,17,-1
 556 0 l 1,18,-1
 476 0 l 1,19,-1
 476 438 l 1,20,-1
 223 438 l 1,21,-1
 223 0 l 1,22,-1
 143 0 l 1,0,-1
EndSplineSet
EndChar

StartChar: fl
Encoding: 64258 64258 236
Width: 656
Flags: W
LayerCount: 2
Fore
SplineSet
143 0 m 1,0,-1
 143 438 l 1,1,-1
 50 438 l 1,2,-1
 50 503 l 1,3,-1
 142 503 l 1,4,5
 142 768 142 768 377 768 c 0,6,7
 418 768 418 768 463 761 c 128,-1,8
 508 754 508 754 532 746 c 2,9,-1
 556 738 l 1,10,-1
 556 0 l 1,11,-1
 476 0 l 1,12,-1
 476 683 l 1,13,14
 437 698 437 698 383 698 c 128,-1,15
 329 698 329 698 296.5 683 c 128,-1,16
 264 668 264 668 248 638 c 0,17,18
 222 587 222 587 222 503 c 1,19,-1
 348 503 l 1,20,-1
 348 438 l 1,21,-1
 223 438 l 1,22,-1
 223 0 l 1,23,-1
 143 0 l 1,0,-1
EndSplineSet
EndChar
